SplineFontDB: 1.0
FontName: Norasi
FullName: Norasi
FamilyName: Norasi
Weight: Regular
Copyright: Copyright © 1999, The National Font Project (v.beta ). Yannis Haralambous, Virach Sornlertlamvanich and Anutara Tantraporn. All rights reserved.\n\nThis release is under GPL license; maintained by TLWG.
Version: 002 April 17, 2003
ItalicAngle: 0
UnderlinePosition: -100
UnderlineWidth: 50
Ascent: 800
Descent: 200
NeedsXUIDChange: 1
FSType: 0
PfmFamily: 17
TTFWeight: 400
TTFWidth: 5
Panose: 2 7 5 6 6 0 0 2 0 4
LineGap: 8
VLineGap: 0
ScriptLang: 3
 1 DFLT 1 dflt 
 1 thai 1 dflt 
 1 latn 1 dflt 
TableOrder: GSUB 2
	'liga'
	'frac'
LangName: 1033 "" "" "" "TheNationalFontProject(v.beta).YannisHaralambous,VirachSornlertlamvanichandAnutaraTantraporn: Norasi: 1999" "Norasi Roman" "" "" "Norasi is a trademark of the The National Font Project (v.beta ). Yannis Haralambous, Virach Sornlertlamvanich and Anutara Tantraporn." "TLWG" "Yannis Haralambous, Virach Sornlertlamvanich and Anutara Tantraporn" "This font was developed under the National Font Project at NECTEC as to be a free licensed font for Thai users and developers." "linux.thai.net" "" "GPL" 
LangName: 1036 "" "" "Normal" 
LangName: 1040 "" "" "Normale" 
LangName: 1031 "" "" "Standard" 
LangName: 1034 "" "" "Normal" 
LangName: 1049 "" "" "+BB4EMQRLBEcEPQRLBDkA" 
LangName: 1038 "" "" "Norm+AOEA-l" 
LangName: 1054 "" "" "" "" "" "" "" "" "" "" "" "" "" "" "" "" "" "" "" "+AAoOQA4bDkcOGQ4hDhkOOA4pDiIOTA4qDjgOFA4bDiMOMA5ADioOIw40DhAOQA4lDjQOKA4EDjgOEw4EDkgOMgAKAAoOAQ4nDkgOMg4aDiMOIw4UDjIOHQ45DgcOKg4xDhUOJw5MDkAOFA4jDjEOCA4JDjIOGQAA" 
Encoding: tis-620
UnicodeInterp: none
DisplaySize: -72
AntiAlias: 1
FitToEm: 1
WinInfo: 32 8 11
BeginPrivate: 9
BlueValues 31 [-10 0 307 314 376 385 452 461]
ForceBold 5 false
BlueScale 8 0.039625
BlueFuzz 1 0
FamilyBlues 31 [-10 0 307 314 376 385 452 461]
StdVW 4 [52]
StemSnapV 10 [52 57 70]
StdHW 4 [21]
StemSnapH 13 [13 21 26 34]
EndPrivate

StartChar: .notdef
Encoding: 0 -1 0
Width: 250
Flags: MW
HStem: 0 15<15 250> 370 15<0 235>
VStem: 0 15<0 370> 235 15<15 385>
Fore
15 370 m 1
 15 15 l 1
 235 15 l 1
 235 370 l 1
 15 370 l 1
250 0 m 1
 0 0 l 1
 0 385 l 1
 250 385 l 1
 250 0 l 1
EndSplineSet
EndChar
StartChar: exclam
Encoding: 33 33 1
Width: 227
Flags: HMW
HStem: -6 73<119 130> 120 341<120 129>
VStem: 89 73<27 31 398 420>
Fore
129 120 m 1
 120 120 l 1
 114 194 l 2
 113 211 109 247 102 288 c 0
 95 337 89 393 89 409 c 0
 89 441 102 462 125 462 c 0
 148 462 161 442 161 407 c 0
 161 397 160 390 160 382 c 1
 129 120 l 1
125 67 m 0
 145 67 162 50 162 29 c 0
 162 9 146 -6 124 -6 c 0
 104 -6 89 9 89 29 c 0
 89 51 104 67 125 67 c 0
EndSplineSet
EndChar
StartChar: quotedbl
Encoding: 34 34 2
Width: 278
Flags: HMW
HStem: 294 167<76 88 191 203>
VStem: 53 58<425 436> 168 58<425 436>
Fore
204 294 m 1
 190 294 l 1
 178 356 168 423 168 434 c 0
 168 449 181 462 197 462 c 0
 213 462 226 449 226 434 c 0
 226 414 220 373 209 322 c 1
 204 294 l 1
89 294 m 1
 74 294 l 1
 63 356 53 423 53 434 c 0
 53 449 66 462 82 462 c 0
 98 462 111 449 111 434 c 0
 111 414 104 373 94 322 c 1
 89 294 l 1
EndSplineSet
EndChar
StartChar: numbersign
Encoding: 35 35 3
Width: 341
Flags: HMW
HStem: 0 14G<54 94 186 226> 147 38<4 76 123 207 253 321> 277 38<23 96 143 227 273 338> 277 175<137 142 267 272>
VStem: 3 318<147 185> 22 317<277 314>
Fore
322 185 m 1xd4
 322 147 l 1
 247 147 l 1
 226 0 l 1
 186 0 l 1
 208 147 l 1
 116 147 l 1
 94 0 l 1
 54 0 l 1
 76 147 l 1
 3 147 l 1
 3 185 l 1xd8
 83 185 l 1
 97 277 l 1
 22 277 l 1
 22 314 l 1
 102 314 l 1
 124 452 l 1
 163 452 l 1
 142 314 l 1
 233 314 l 1
 253 452 l 1
 293 452 l 1
 272 314 l 1
 339 314 l 1
 339 277 l 1
 267 277 l 1
 253 185 l 1
 322 185 l 1xd4
227 277 m 1xe0
 137 277 l 1xd0
 122 185 l 1
 214 185 l 1
 227 277 l 1xe0
EndSplineSet
EndChar
StartChar: dollar
Encoding: 36 36 4
Width: 341
Flags: W
VStem: 36 50<350 365> 157 23<-59 0 19 200 278 435 452 496> 258 54<100 116>
Fore
290 341 m 1
 280 341 l 1
 268 399 238 428 180 435 c 1
 180 267 l 1
 263 219 281 206 298 178 c 0
 307 164 312 139 312 116 c 0
 312 83 299 55 277 36 c 0
 252 16 231 8 180 0 c 1
 180 -59 l 1
 157 -59 l 1
 157 0 l 1
 100 2 71 10 30 35 c 1
 30 124 l 1
 40 124 l 1
 57 52 93 20 157 19 c 1
 157 212 l 1
 109 239 94 249 74 268 c 0
 46 294 36 317 36 350 c 0
 36 379 49 406 72 425 c 0
 95 442 114 449 157 453 c 1
 157 496 l 1
 180 496 l 1
 180 453 l 1
 238 447 267 436 290 417 c 1
 290 341 l 1
156 278 m 1
 156 435 l 1
 109 425 86 402 86 365 c 0
 86 333 100 316 156 278 c 1
180 200 m 1
 180 19 l 1
 234 29 258 55 258 100 c 0
 258 142 244 160 180 200 c 1
EndSplineSet
EndChar
StartChar: percent
Encoding: 37 37 5
Width: 568
Flags: HMW
HStem: 0 20<399 401> 197 23<122 134> 231 22<456 468> 398 17<293 315> 432 20<186 195> 448 14G<406 433>
VStem: 42 52<262 284> 245 17<363 384> 307 52<64 88> 509 18<166 182>
Fore
457 253 m 0xf3c0
 501 253 527 227 527 180 c 0
 527 127 505 72 468 35 c 0
 444 11 419 0 389 0 c 0
 339 0 307 35 307 88 c 0
 307 173 380 253 457 253 c 0xf3c0
462 231 m 0
 440 231 421 219 403 192 c 0
 378 156 358 100 358 64 c 0
 358 38 376 20 400 20 c 0
 425 20 444 32 466 59 c 0
 492 91 509 138 509 177 c 0
 509 207 488 231 462 231 c 0
433 462 m 1xf7c0
 170 -9 l 1
 137 -9 l 1
 377 419 l 1
 350 403 332 398 302 398 c 0
 282 398 270 400 257 405 c 1
 261 393 262 384 262 375 c 0
 262 325 240 271 205 235 c 0
 182 211 152 197 122 197 c 0
 78 197 42 236 42 284 c 0
 42 371 115 452 193 452 c 0xfbc0
 214 452 223 449 240 434 c 0
 257 420 272 415 300 415 c 0
 342 415 369 427 406 462 c 1
 433 462 l 1xf7c0
239 410 m 1
 219 415 211 419 201 427 c 0
 197 431 196 432 193 432 c 0
 171 432 145 408 126 371 c 0
 107 337 94 291 94 262 c 0
 94 238 110 221 134 221 c 0
 189 221 245 299 245 376 c 0
 245 386 243 396 239 410 c 1
EndSplineSet
EndChar
StartChar: ampersand
Encoding: 38 38 6
Width: 531
Flags: HMW
HStem: -9 36<145 180> 277 14<338 345 480 485> 440 22<236 247>
VStem: 29 63<95 123> 138 54<356 384> 299 36<373 385> 338 147<277 290>
Fore
485 291 m 1
 485 277 l 1
 451 272 438 264 421 236 c 2
 404 205 l 2
 382 168 365 143 335 102 c 1
 367 61 402 40 440 40 c 0
 465 40 480 48 502 76 c 1
 512 68 l 1
 492 20 453 -9 409 -9 c 0
 369 -9 336 9 293 53 c 1
 242 8 201 -9 145 -9 c 0
 73 -9 29 30 29 95 c 0
 29 152 63 201 136 242 c 2
 162 257 l 1
 143 309 138 330 138 356 c 0
 138 415 184 462 243 462 c 0
 297 462 335 427 335 379 c 0
 335 356 326 333 312 317 c 0
 293 296 276 284 229 262 c 1
 259 203 281 169 320 122 c 1
 363 180 382 216 382 246 c 0
 382 266 372 273 338 277 c 1
 338 291 l 1
 485 291 l 1
219 284 m 1
 275 314 299 343 299 382 c 0
 299 415 276 440 244 440 c 0
 213 440 192 416 192 384 c 0
 192 353 199 327 219 284 c 1
172 234 m 1
 113 196 91 167 91 123 c 0
 91 70 132 27 180 27 c 0
 208 27 236 39 276 71 c 1
 237 119 213 156 172 234 c 1
EndSplineSet
EndChar
StartChar: quotesingle
Encoding: 39 39 7
Width: 163
Flags: HMW
HStem: 294 167<74 89 74 74>
VStem: 53 58<425 436> 168 58<425 436>
Fore
89 294 m 1
 74 294 l 1
 63 356 53 423 53 434 c 0
 53 449 66 462 82 462 c 0
 98 462 111 449 111 434 c 0
 111 414 104 373 94 322 c 1
 89 294 l 1
EndSplineSet
EndChar
StartChar: parenleft
Encoding: 40 40 8
Width: 227
Flags: W
VStem: 33 58<150 200>
Fore
201 462 m 1
 208 451 l 1
 158 411 138 386 119 344 c 0
 100 302 91 246 91 174 c 0
 91 106 99 54 115 8 c 0
 134 -43 153 -67 208 -110 c 1
 199 -121 l 1
 164 -99 146 -84 118 -51 c 0
 58 18 33 85 33 172 c 0
 33 252 57 320 105 380 c 0
 130 411 151 429 201 462 c 1
EndSplineSet
EndChar
StartChar: parenright
Encoding: 41 41 9
Width: 227
Flags: HMW
VStem: 136 59<152 185>
Fore
26 -121 m 1
 20 -110 l 1
 69 -70 89 -46 109 -3 c 0
 127 39 136 96 136 167 c 0
 136 235 128 287 112 333 c 0
 93 384 74 408 20 451 c 1
 28 462 l 1
 63 440 81 425 109 392 c 0
 169 322 195 256 195 169 c 0
 195 89 171 20 122 -39 c 0
 97 -70 76 -88 26 -121 c 1
EndSplineSet
EndChar
StartChar: asterisk
Encoding: 42 42 10
Width: 341
Flags: HMW
HStem: 181 281<166 173>
VStem: 165 13<307 311 333 351>
Fore
165 307 m 1
 165 311 l 1
 141 296 136 293 129 287 c 0
 124 282 120 279 100 256 c 0
 89 243 83 240 72 240 c 0
 57 240 47 249 47 264 c 0
 47 281 59 289 89 294 c 0
 121 300 132 305 160 322 c 1
 152 326 l 2
 139 335 119 342 94 347 c 0
 61 353 47 363 47 379 c 0
 47 393 57 404 70 404 c 0
 81 404 89 398 103 382 c 1
 126 357 139 346 165 332 c 1
 165 341 l 2
 165 359 161 380 154 403 c 0
 150 417 147 429 147 438 c 0
 147 451 158 462 171 462 c 0
 185 462 196 451 196 436 c 0
 196 429 193 418 189 405 c 0
 182 384 178 365 178 348 c 2
 178 330 l 1
 182 333 l 2
 197 341 214 356 231 377 c 0
 248 396 259 405 270 405 c 0
 284 405 294 394 294 378 c 0
 294 361 285 354 259 350 c 0
 229 345 216 340 183 321 c 1
 188 317 l 2
 206 307 228 298 255 294 c 0
 285 289 295 282 295 264 c 0
 295 249 285 239 271 239 c 0
 259 239 247 247 230 268 c 0
 212 291 197 303 182 309 c 2
 178 311 l 1
 178 307 l 2
 178 280 182 254 191 230 c 0
 195 221 197 212 197 208 c 0
 197 194 184 181 170 181 c 0
 157 181 146 193 146 206 c 0
 146 214 149 225 154 238 c 0
 163 261 167 281 165 295 c 1
 165 307 l 1
EndSplineSet
EndChar
StartChar: plus
Encoding: 43 43 11
Width: 385
Flags: HMW
HStem: 0 14G<170 215> 150 45<21 170 215 364>
VStem: 170 45<1 150 195 345>
Fore
170 195 m 1
 170 345 l 1
 215 345 l 1
 215 195 l 1
 365 195 l 1
 365 150 l 1
 215 150 l 1
 215 0 l 1
 170 0 l 1
 170 150 l 1
 20 150 l 1
 20 195 l 1
 170 195 l 1
EndSplineSet
EndChar
StartChar: comma
Encoding: 44 44 12
Width: 170
Flags: HMW
HStem: -4 74<71 82>
VStem: 38 95<9 31>
Fore
57 -96 m 1
 51 -83 l 1
 87 -58 107 -33 107 -11 c 0
 107 -5 102 -1 97 -1 c 0
 96 -1 96 -1 91 -3 c 0
 87 -3 83 -4 79 -4 c 0
 54 -4 38 9 38 31 c 0
 38 54 55 70 79 70 c 0
 109 70 133 43 133 9 c 0
 133 -32 102 -74 57 -96 c 1
EndSplineSet
KernsSLIF: 148 -47 0 0 146 -47 0 0
EndChar
StartChar: hyphen
Encoding: 45 45 13
Width: 227
Flags: HMW
HStem: 132 43<27 194>
VStem: 27 168<133 175>
Fore
27 175 m 1
 195 175 l 1
 195 132 l 1
 27 132 l 1
 27 175 l 1
EndSplineSet
EndChar
StartChar: period
Encoding: 46 46 14
Width: 170
Flags: HMW
HStem: -8 76<81 91>
VStem: 48 76<25 36>
Fore
85 68 m 0
 106 68 124 51 124 29 c 0
 124 10 106 -8 85 -8 c 0
 65 -8 48 10 48 29 c 0
 48 51 65 68 85 68 c 0
EndSplineSet
KernsSLIF: 148 -47 0 0 146 -47 0 0
EndChar
StartChar: slash
Encoding: 47 47 15
Width: 189
Flags: HMW
HStem: 448 14G<150 196>
Fore
196 462 m 1
 40 -10 l 1
 -6 -10 l 1
 150 462 l 1
 196 462 l 1
EndSplineSet
EndChar
StartChar: zero
Encoding: 48 48 16
Width: 341
Flags: HMW
HStem: -10 18<161 180> 444 18<169 180>
VStem: 16 66<209 242> 259 66<209 242>
Fore
173 462 m 0
 263 462 325 365 325 225 c 0
 325 143 299 63 259 26 c 0
 235 2 206 -10 171 -10 c 0
 131 -10 96 7 71 37 c 0
 39 75 16 155 16 229 c 0
 16 309 42 388 82 426 c 0
 107 450 136 462 173 462 c 0
171 444 m 0
 113 444 82 368 82 223 c 0
 82 81 112 8 171 8 c 0
 229 8 259 81 259 224 c 0
 259 367 229 444 171 444 c 0
EndSplineSet
EndChar
StartChar: one
Encoding: 49 49 17
Width: 341
Flags: HMW
HStem: 0 10<81 109 81 97 215 269 251 268>
VStem: 145 59<51 382>
Fore
199 462 m 1
 204 460 l 1
 204 51 l 2
 204 18 215 11 269 10 c 1
 269 0 l 1
 81 0 l 1
 81 10 l 1
 109 11 119 13 129 19 c 0
 140 25 145 41 145 63 c 2
 145 373 l 2
 145 395 139 405 125 405 c 0
 118 405 107 402 94 397 c 0
 91 396 84 393 76 390 c 1
 76 399 l 1
 199 462 l 1
EndSplineSet
EndChar
StartChar: two
Encoding: 50 50 18
Width: 341
Flags: HMW
HStem: 0 52<88 261> 411 51<135 163>
VStem: 231 59<315 341>
Fore
324 94 m 1
 287 0 l 1
 20 0 l 1
 20 8 l 1
 142 137 l 2
 199 198 231 262 231 315 c 0
 231 372 192 411 135 411 c 0
 87 411 63 389 36 322 c 1
 21 326 l 1
 33 374 43 396 65 419 c 0
 90 447 126 462 163 462 c 0
 234 462 289 409 289 341 c 0
 289 287 263 236 202 172 c 2
 87 52 l 1
 251 52 l 2
 281 52 290 58 315 97 c 1
 324 94 l 1
EndSplineSet
EndChar
StartChar: three
Encoding: 51 51 19
Width: 341
Flags: HMW
HStem: 421 41<143 165>
VStem: 218 54<348 368> 246 49<117 150>
Fore
104 225 m 1xa0
 104 234 l 1
 151 251 170 261 190 281 c 0
 208 298 218 323 218 348 c 0
 218 391 187 421 143 421 c 0
 100 421 69 398 41 348 c 1
 31 351 l 1
 46 392 56 410 76 428 c 0
 101 450 131 462 165 462 c 0
 228 462 272 423 272 368 c 0xc0
 272 331 255 306 208 274 c 1
 238 261 251 253 264 238 c 0
 284 216 295 184 295 150 c 0
 295 104 277 64 245 36 c 0
 213 8 159 -10 107 -10 c 0
 59 -10 29 5 29 29 c 0
 29 44 40 53 55 53 c 0
 67 53 79 48 99 36 c 0
 124 20 138 15 156 15 c 0
 207 15 246 59 246 117 c 0
 246 164 219 203 177 218 c 0
 160 224 145 225 104 225 c 1xa0
EndSplineSet
EndChar
StartChar: four
Encoding: 52 52 20
Width: 341
Flags: HMW
HStem: 0 14G<200 253> 114 44<36 199 253 322> 448 14G<223 253>
VStem: 200 53<1 114 158 391>
Fore
322 158 m 1
 322 114 l 1
 253 114 l 1
 253 0 l 1
 200 0 l 1
 200 114 l 1
 8 114 l 1
 8 158 l 1
 223 462 l 1
 253 462 l 1
 253 158 l 1
 322 158 l 1
199 158 m 1
 199 392 l 1
 36 158 l 1
 199 158 l 1
EndSplineSet
EndChar
StartChar: five
Encoding: 53 53 21
Width: 341
Flags: HMW
HStem: 398 54<124 263>
VStem: 244 48<132 165>
Fore
124 398 m 1
 95 340 l 1
 175 326 214 310 244 280 c 0
 279 246 292 214 292 165 c 0
 292 113 277 74 246 44 c 1
 212 9 163 -10 105 -10 c 0
 54 -10 22 7 22 33 c 0
 22 50 31 58 51 58 c 0
 66 58 81 51 103 36 c 0
 124 20 135 16 149 16 c 0
 202 16 244 67 244 132 c 0
 244 200 208 242 129 268 c 0
 101 277 74 281 52 281 c 0
 46 281 44 283 44 287 c 0
 44 290 l 2
 119 452 l 1
 262 452 l 2
 276 452 283 455 293 470 c 1
 299 465 l 1
 273 404 l 2
 271 399 268 398 257 398 c 2
 124 398 l 1
EndSplineSet
EndChar
StartChar: six
Encoding: 54 54 22
Width: 341
Flags: W
HStem: -10 20<174 193> 261 31<165 191>
VStem: 23 64<178 199> 258 62<126 150>
Fore
305 467 m 1
 306 456 l 1
 199 438 122 365 104 262 c 1
 147 287 161 292 191 292 c 0
 270 292 320 237 320 150 c 0
 320 55 261 -10 176 -10 c 0
 134 -10 97 7 71 37 c 0
 42 71 23 131 23 190 c 0
 23 282 63 360 137 412 c 0
 187 447 227 460 305 467 c 1
165 261 m 0
 141 261 120 255 106 244 c 0
 92 234 87 214 87 180 c 0
 87 74 124 10 184 10 c 0
 231 10 258 51 258 126 c 0
 258 212 224 261 165 261 c 0
EndSplineSet
EndChar
StartChar: seven
Encoding: 55 55 23
Width: 341
Flags: HMW
HStem: 401 51<90 252>
Fore
307 452 m 1
 307 441 l 1
 162 -5 l 1
 117 -5 l 1
 253 401 l 1
 104 401 l 2
 67 401 55 393 25 346 c 1
 14 352 l 1
 54 452 l 1
 307 452 l 1
EndSplineSet
EndChar
StartChar: eight
Encoding: 56 56 24
Width: 341
Flags: W
HStem: -10 20<165 189> 442 20<165 181>
VStem: 38 52<101 119> 42 51<354 375> 242 47<365 377> 252 52<85 106>
Fore
198 253 m 1xd8
 281 192 304 158 304 106 c 0
 304 36 251 -10 169 -10 c 0
 92 -10 38 37 38 103 c 0xe4
 38 150 53 171 127 227 c 1
 55 289 42 309 42 354 c 0
 42 416 98 462 172 462 c 0
 240 462 289 421 289 365 c 0
 289 318 266 289 198 253 c 1xd8
186 183 m 2
 145 213 l 1
 105 181 90 152 90 109 c 0
 90 49 125 10 177 10 c 0
 221 10 252 40 252 85 c 0
 252 123 236 147 186 183 c 2
178 266 m 1
 181 268 181 268 184 270 c 0
 223 296 242 326 242 365 c 0
 242 412 213 442 167 442 c 0
 124 442 93 414 93 375 c 0xd8
 93 337 117 305 178 266 c 1
EndSplineSet
EndChar
StartChar: nine
Encoding: 57 57 25
Width: 341
Flags: W
HStem: 162 29<143 168> 442 20<147 170>
VStem: 20 63<300 324> 247 66<242 290>
Fore
40 -15 m 1
 38 -1 l 1
 142 16 218 89 246 201 c 1
 210 173 181 162 143 162 c 0
 70 162 20 217 20 300 c 0
 20 393 81 462 163 462 c 0
 251 462 313 382 313 269 c 0
 313 177 272 92 201 40 c 0
 154 7 117 -6 40 -15 c 1
247 242 m 2
 247 269 l 2
 247 384 216 442 157 442 c 0
 137 442 120 435 109 421 c 0
 94 404 83 363 83 324 c 0
 83 242 116 191 168 191 c 0
 193 191 218 200 237 216 c 0
 244 223 247 229 247 242 c 2
EndSplineSet
EndChar
StartChar: colon
Encoding: 58 58 26
Width: 189
Flags: HMW
HStem: -8 76<88 99> 238 76<88 99>
VStem: 55 76<25 36 268 277>
Fore
93 313 m 0
 113 313 131 296 131 274 c 0
 131 255 113 238 92 238 c 0
 72 238 55 255 55 274 c 0
 55 296 72 313 93 313 c 0
93 68 m 0
 113 68 131 51 131 29 c 0
 131 10 113 -8 92 -8 c 0
 72 -8 55 10 55 29 c 0
 55 51 72 68 93 68 c 0
EndSplineSet
EndChar
StartChar: semicolon
Encoding: 59 59 27
Width: 189
Flags: HMW
HStem: -4 74<87 98> 238 76<87 98>
VStem: 55 95<9 31> 55 76<268 276>
Fore
73 -96 m 1xe0
 67 -83 l 1
 104 -58 123 -33 123 -11 c 0
 123 -5 119 -1 113 -1 c 0
 113 -1 113 -1 108 -3 c 0
 104 -3 99 -4 95 -4 c 0
 70 -4 55 9 55 31 c 0
 55 55 71 70 95 70 c 0
 126 70 150 43 150 9 c 0
 150 -32 120 -73 73 -96 c 1xe0
93 313 m 0
 113 313 131 296 131 274 c 0
 131 255 113 238 92 238 c 0
 72 238 55 255 55 274 c 0xd0
 55 296 72 313 93 313 c 0
EndSplineSet
EndChar
StartChar: less
Encoding: 60 60 28
Width: 385
Flags: HMW
Fore
366 -7 m 1
 19 150 l 1
 19 195 l 1
 366 352 l 1
 366 303 l 1
 79 173 l 1
 366 42 l 1
 366 -7 l 1
EndSplineSet
EndChar
StartChar: equal
Encoding: 61 61 29
Width: 385
Flags: HMW
HStem: 82 45<21 364> 218 45<21 364>
VStem: 20 344<83 126 219 263>
Fore
365 264 m 1
 365 218 l 1
 20 218 l 1
 20 264 l 1
 365 264 l 1
365 127 m 1
 365 82 l 1
 20 82 l 1
 20 127 l 1
 365 127 l 1
EndSplineSet
EndChar
StartChar: greater
Encoding: 62 62 30
Width: 385
Flags: HMW
Fore
19 -7 m 1
 19 42 l 1
 306 173 l 1
 19 303 l 1
 19 352 l 1
 366 195 l 1
 366 150 l 1
 19 -7 l 1
EndSplineSet
EndChar
StartChar: question
Encoding: 63 63 31
Width: 303
Flags: HMW
HStem: -5 73<155 168> 441 20<145 156>
VStem: 46 61<348 363> 126 73<27 31> 220 63<344 366>
Fore
167 112 m 1
 155 112 l 1
 156 142 163 175 175 209 c 1
 195 253 l 2
 211 290 220 328 220 359 c 0
 220 405 187 441 146 441 c 0
 113 441 81 421 81 399 c 0
 81 393 85 387 93 378 c 0
 103 366 107 358 107 348 c 0
 107 332 96 320 79 320 c 0
 58 320 46 335 46 363 c 0
 46 419 94 462 157 462 c 0
 194 462 234 446 258 422 c 0
 274 406 283 382 283 356 c 0
 283 328 274 303 252 270 c 0
 242 255 242 255 211 217 c 0
 186 185 174 158 167 112 c 1
162 68 m 0
 182 68 199 51 199 30 c 0
 199 10 183 -5 161 -5 c 0
 141 -5 126 10 126 29 c 0
 126 51 141 68 162 68 c 0
EndSplineSet
EndChar
StartChar: at
Encoding: 64 64 32
Width: 628
Flags: W
HStem: -10 27<318 356> 98 22<427 439> 440 22<308 338>
VStem: 79 58<213 231> 219 49<173 188> 525 27<245 274>
Fore
470 50 m 1
 478 29 l 1
 412 -1 378 -10 330 -10 c 0
 188 -10 79 91 79 223 c 0
 79 356 190 462 328 462 c 0
 455 462 552 374 552 262 c 0
 552 173 494 98 427 98 c 0
 394 98 369 117 365 147 c 1
 341 117 309 98 279 98 c 0
 246 98 219 132 219 175 c 0
 219 225 240 277 277 313 c 0
 300 336 324 347 353 347 c 0
 377 347 387 339 402 311 c 1
 409 337 l 1
 456 337 l 1
 412 164 l 1
 411 160 410 156 410 152 c 0
 410 130 419 120 437 120 c 0
 482 120 525 186 525 255 c 0
 525 356 436 440 329 440 c 0
 279 440 234 422 200 389 c 0
 161 348 137 284 137 221 c 0
 137 102 220 17 336 17 c 0
 382 17 416 26 470 50 c 1
363 317 m 0
 346 318 322 305 303 283 c 0
 280 257 268 223 268 186 c 0
 268 150 283 128 309 128 c 0
 327 128 347 143 360 167 c 0
 378 199 389 240 391 272 c 0
 392 299 382 315 363 317 c 0
EndSplineSet
EndChar
StartChar: A
Encoding: 65 65 33
Width: 492
Flags: HMW
HStem: 0 13<10 27 135 145 308 344 308 323 472 482> 147 28<148 305> 447 14G<237 251>
VStem: 10 135<1 13> 308 174<1 13>
Fore
482 13 m 1
 482 0 l 1
 308 0 l 1
 308 13 l 1
 344 14 356 19 356 36 c 0
 356 46 351 63 343 82 c 2
 315 147 l 1
 136 147 l 1
 104 68 l 2
 101 59 99 49 99 41 c 0
 99 22 113 13 145 13 c 1
 145 0 l 1
 10 0 l 1
 10 13 l 1
 43 14 51 25 95 125 c 1
 237 460 l 1
 251 460 l 1
 421 72 l 1
 444 22 451 15 482 13 c 1
147 175 m 1
 305 175 l 1
 226 363 l 1
 147 175 l 1
EndSplineSet
KernsSLIF: 67 -27 2 0 71 -27 2 0 79 -37 2 0 81 -37 2 0 84 -75 2 0 85 -37 2 0 86 -92 2 0 87 -61 2 0 89 -71 2 0 146 -75 2 0 405 -23 2 0 406 -12 2 0 407 -50 2 0 408 -62 2 0 410 -62 2 0 118 -50 2 0 119 -62 2 0 121 -62 2 0
EndChar
StartChar: B
Encoding: 66 66 34
Width: 455
Flags: W
HStem: 0 13<12 40> 0 25<171 240> 223 27<147 195.133> 427 25<12 214> 439 13<12 31>
VStem: 77 70<51 223 74 406> 312 70<331 338> 326 79<111 129>
Fore
12 452 m 1x35
 203 452 l 2
 321 452 382 412 382 336 c 0x36
 382 308 371 283 354 268 c 0
 338 253 324 246 288 238 c 1
 333 227 351 218 371 200 c 0
 393 180 405 153 405 123 c 0
 405 90 391 59 367 38 c 0
 341 14 293 0 240 0 c 2x75
 12 0 l 1
 12 13 l 1
 68 15 77 24 77 74 c 2
 77 378 l 2
 77 428 69 436 12 439 c 1xad
 12 452 l 1x35
147 223 m 1
 147 53 l 2
 147 31 156 25 190 25 c 0
 235 25 263 31 285 43 c 0
 312 59 326 85 326 122 c 0x65
 326 165 308 193 269 209 c 0
 244 219 213 223 147 223 c 1
147 250 m 1
 212 250 l 2
 276 250 312 280 312 333 c 0
 312 394 270 427 192 427 c 2
 162 427 l 2x36
 152 427 147 421 147 406 c 2
 147 250 l 1
EndSplineSet
KernsSLIF: 65 -23 2 0 85 -6 2 0 386 -25 2 0 406 -12 2 0
EndChar
StartChar: C
Encoding: 67 67 35
Width: 455
Flags: HMW
HStem: -10 30<246 268> 307 14G<408 423> 434 27<246 268>
VStem: 19 79<209 242>
Fore
423 307 m 1
 408 307 l 1
 395 352 384 371 363 393 c 0
 335 420 300 434 261 434 c 0
 162 434 98 354 98 231 c 0
 98 155 119 94 157 60 c 0
 186 34 225 20 268 20 c 0
 324 20 369 41 420 89 c 1
 432 77 l 1
 391 22 323 -10 246 -10 c 0
 178 -10 115 16 74 61 c 0
 40 100 19 158 19 222 c 0
 19 297 45 361 93 403 c 0
 135 440 192 462 248 462 c 0
 280 462 314 456 348 445 c 0
 358 441 368 439 374 439 c 0
 388 439 399 447 403 462 c 1
 417 462 l 1
 423 307 l 1
EndSplineSet
KernsSLIF: 386 -12 2 0
EndChar
StartChar: D
Encoding: 68 68 36
Width: 492
Flags: W
HStem: 0 13<11 28.3333> 0 25<170 207> 427 25<11 206> 439 13<11 21.8>
VStem: 71 70<51 402> 393 75<207 241>
Fore
71 74 m 2x8c
 71 378 l 2
 71 428 65 434 11 439 c 1x9c
 11 452 l 1
 195 452 l 2
 289 452 363 427 410 380 c 0
 447 343 468 289 468 228 c 0
 468 162 442 101 398 61 c 0
 356 23 284 0 205 0 c 2x6c
 11 0 l 1
 11 13 l 1
 63 16 71 25 71 74 c 2x8c
141 400 m 2
 141 53 l 2
 141 31 149 25 176 25 c 0
 236 25 275 33 310 53 c 0
 365 85 393 143 393 223 c 0
 393 297 365 356 312 393 c 0
 279 416 235 427 176 427 c 0x6c
 148 427 141 421 141 400 c 2
EndSplineSet
KernsSLIF: 65 -27 2 0 86 -27 2 0 87 -20 2 0 89 -37 2 0 386 -12 2 0
EndChar
StartChar: E
Encoding: 69 69 37
Width: 417
Flags: HMW
HStem: 0 13<8 18> 0 25<194 253> 223 28<138 259> 426 26<150 270> 439 13<8 17>
VStem: 68 70<66 223 252 393>
Fore
408 115 m 1x74
 377 0 l 1x74
 8 0 l 1
 8 13 l 1
 58 16 68 27 68 74 c 2
 68 378 l 2
 68 425 59 435 8 439 c 1
 8 452 l 1
 371 452 l 1xac
 373 354 l 1
 356 354 l 1
 344 416 329 426 252 426 c 2
 160 426 l 2
 141 426 137 422 137 403 c 2
 137 251 l 1
 242 251 l 2
 274 251 294 257 302 268 c 0
 310 278 313 288 317 316 c 1
 333 316 l 1
 333 158 l 1
 317 158 l 1
 309 214 298 223 242 223 c 2
 137 223 l 1
 137 55 l 2
 137 43 139 36 142 33 c 1
 147 29 175 25 209 25 c 2
 227 25 l 2
 325 25 354 42 389 115 c 1
 408 115 l 1x74
EndSplineSet
EndChar
StartChar: F
Encoding: 70 70 38
Width: 379
Flags: HMW
HStem: 0 13<8 19 186 199> 223 28<138 253> 426 26<150 270> 439 13<8 17>
VStem: 68 70<66 223 252 393>
Fore
327 158 m 1xe8
 311 158 l 1
 303 213 292 223 236 223 c 2
 137 223 l 1
 137 74 l 2
 137 25 147 16 199 13 c 1
 199 0 l 1
 8 0 l 1
 8 13 l 1
 60 16 68 25 68 82 c 2
 68 378 l 2
 68 425 59 435 8 439 c 1
 8 452 l 1
 371 452 l 1xd8
 373 354 l 1
 356 354 l 1
 344 416 329 426 252 426 c 2
 159 426 l 2
 141 426 137 422 137 403 c 2
 137 251 l 1
 236 251 l 2
 291 251 303 262 311 316 c 1
 327 316 l 1
 327 158 l 1xe8
EndSplineSet
KernsSLIF: 65 -50 2 0 386 -10 2 0 44 -54 2 0 400 -10 2 0 46 -54 2 0 97 -10 2 0 111 -10 2 0
EndChar
StartChar: G
Encoding: 71 71 39
Width: 492
Flags: HMW
HStem: -10 27<262 281> 229 12<310 320 476 484> 434 27<255 273>
VStem: 22 78<209 242> 370 66<56 178>
Fore
484 242 m 1
 484 229 l 1
 444 226 436 217 436 177 c 2
 436 38 l 1
 409 14 324 -10 265 -10 c 0
 190 -10 124 16 79 63 c 0
 40 104 22 155 22 222 c 0
 22 361 119 462 256 462 c 0
 287 462 318 456 349 446 c 0
 361 441 372 439 379 439 c 0
 393 439 406 449 410 462 c 1
 425 462 l 1
 430 317 l 1
 414 317 l 1
 397 359 386 378 366 397 c 0
 339 421 306 434 268 434 c 0
 221 434 179 416 149 382 c 0
 119 349 100 287 100 223 c 0
 100 96 168 18 279 18 c 0
 328 18 370 36 370 58 c 2
 370 169 l 2
 370 198 366 214 356 220 c 0
 348 225 339 227 310 229 c 1
 310 242 l 1
 484 242 l 1
EndSplineSet
EndChar
StartChar: H
Encoding: 72 72 40
Width: 492
Flags: HMW
HStem: 0 13<13 24 194 203 289 300 471 479> 215 30<143 349> 439 13<13 20 195 203 289 297 472 479>
VStem: 73 70<66 214 246 393> 350 70<66 214 246 393>
Fore
143 245 m 1
 350 245 l 1
 350 378 l 2
 350 427 342 434 289 439 c 1
 289 452 l 1
 479 452 l 1
 479 439 l 1
 427 434 419 427 419 378 c 2
 419 74 l 2
 419 26 428 17 479 13 c 1
 479 0 l 1
 289 0 l 1
 289 13 l 1
 343 16 350 25 350 82 c 2
 350 215 l 1
 143 215 l 1
 143 74 l 2
 143 26 152 17 203 13 c 1
 203 0 l 1
 13 0 l 1
 13 13 l 1
 66 16 73 25 73 82 c 2
 73 378 l 2
 73 427 66 434 13 439 c 1
 13 452 l 1
 203 452 l 1
 203 439 l 1
 150 434 143 427 143 378 c 2
 143 245 l 1
EndSplineSet
EndChar
StartChar: I
Encoding: 73 73 41
Width: 227
Flags: HMW
HStem: 0 13<12 31 196 215> 439 13<12 24 201 215>
VStem: 79 70<66 393>
Fore
79 74 m 2
 79 378 l 2
 79 428 70 436 12 439 c 1
 12 452 l 1
 215 452 l 1
 215 439 l 1
 158 436 148 427 148 378 c 2
 148 74 l 2
 148 25 159 15 215 13 c 1
 215 0 l 1
 12 0 l 1
 12 13 l 1
 70 15 79 23 79 74 c 2
EndSplineSet
EndChar
StartChar: J
Encoding: 74 74 42
Width: 265
Flags: HMW
HStem: -10 26<74 94> 439 13<57 66 243 253>
VStem: 120 70<111 395>
Fore
190 378 m 2
 190 125 l 2
 190 40 148 -10 74 -10 c 0
 35 -10 7 11 7 40 c 0
 7 58 22 74 40 74 c 0
 58 74 69 63 76 39 c 0
 81 22 85 16 94 16 c 0
 112 16 120 31 120 61 c 2
 120 378 l 2
 120 427 113 435 57 439 c 1
 57 452 l 1
 253 452 l 1
 253 439 l 1
 197 435 190 427 190 378 c 2
EndSplineSet
KernsSLIF: 65 -40 2 0
EndChar
StartChar: K
Encoding: 75 75 43
Width: 492
Flags: HMW
HStem: 0 13<23 34 205 216 286 305 458 494 482 493> 439 13<23 32 208 217 283 300 452 461>
VStem: 85 70<66 202 238 393> 282 179<439 451> 285 208<1 13>
Fore
282 439 m 1xf0
 282 452 l 1
 461 452 l 1
 461 439 l 1xf0
 414 436 404 430 357 386 c 1
 227 257 l 1
 386 87 l 2
 449 20 458 14 494 13 c 1
 494 0 l 1
 285 0 l 1
 285 13 l 1xe8
 294 14 301 14 305 14 c 0
 324 14 333 19 333 29 c 0
 333 45 296 94 244 145 c 2
 172 216 l 1
 154 202 l 1
 154 74 l 2
 154 25 163 16 216 13 c 1
 216 0 l 1
 23 0 l 1
 23 13 l 1
 77 16 85 25 85 82 c 2
 85 378 l 2
 85 426 76 435 23 439 c 1
 23 452 l 1
 217 452 l 1
 217 439 l 1
 162 435 154 427 154 378 c 2
 154 238 l 1
 275 348 l 2
 313 382 328 403 328 418 c 0
 328 432 320 437 300 438 c 0
 297 438 290 438 282 439 c 1xf0
EndSplineSet
KernsSLIF: 79 -20 2 0 400 -23 2 0 406 -10 2 0 410 -17 2 0 101 -17 2 0 111 -23 2 0 117 -10 2 0 121 -17 2 0
EndChar
StartChar: L
Encoding: 76 76 44
Width: 417
Flags: HMW
HStem: 0 13<8 18> 0 27<172 259> 439 13<8 17 190 201>
VStem: 68 70<65 393>
Fore
391 119 m 1x70
 408 119 l 1
 376 0 l 1x70
 8 0 l 1
 8 13 l 1xb0
 58 16 68 27 68 74 c 2
 68 378 l 2
 68 425 59 435 8 439 c 1
 8 452 l 1
 201 452 l 5
 201 439 l 1
 147 436 137 426 137 378 c 2
 137 55 l 2
 137 31 146 27 196 27 c 2
 242 27 l 2
 298 27 336 39 360 66 c 0
 370 77 380 93 391 119 c 1x70
EndSplineSet
KernsSLIF: 84 -62 2 0 86 -68 2 0 87 -50 2 0 89 -68 2 0 146 -62 2 0 410 -37 2 0 121 -37 2 0
EndChar
StartChar: M
Encoding: 77 77 45
Width: 606
Flags: HMW
HStem: 0 13<8 18 156 169 398 409 579 589> 439 13<10 21 581 589>
VStem: 74 30<76 375> 460 70<66 391>
Fore
460 391 m 1
 285 0 l 1
 276 0 l 1
 104 376 l 1
 104 100 l 2
 104 31 116 16 169 13 c 1
 169 0 l 1
 8 0 l 1
 8 13 l 1
 65 17 74 30 74 100 c 2
 74 378 l 2
 74 427 66 436 10 439 c 1
 10 452 l 1
 145 452 l 1
 302 107 l 1
 453 452 l 1
 589 452 l 5
 589 439 l 1
 539 435 530 426 530 378 c 2
 530 74 l 2
 530 26 539 16 589 13 c 1
 589 0 l 1
 398 0 l 1
 398 13 l 1
 452 16 460 25 460 82 c 2
 460 391 l 1
EndSplineSet
EndChar
StartChar: N
Encoding: 78 78 46
Width: 492
Flags: HMW
HStem: 0 13<8 18 156 169> 439 13<8 23 322 331 476 483>
VStem: 74 30<80 367> 388 30<122 369>
Fore
418 -8 m 1
 406 -8 l 1
 104 368 l 1
 104 100 l 2
 104 31 116 16 169 13 c 1
 169 0 l 1
 8 0 l 1
 8 13 l 1
 65 17 74 30 74 100 c 2
 74 401 l 1
 47 434 38 439 8 439 c 1
 8 452 l 1
 125 452 l 1
 388 122 l 1
 388 352 l 2
 388 394 382 419 368 428 c 0
 358 434 348 437 322 439 c 1
 322 452 l 1
 483 452 l 1
 483 439 l 1
 457 436 447 434 438 427 c 0
 425 418 418 393 418 352 c 2
 418 -8 l 1
EndSplineSet
KernsSLIF: 65 -23 2 0
EndChar
StartChar: O
Encoding: 79 79 47
Width: 492
Flags: HMW
HStem: -10 25<242 253> 437 25<242 253>
VStem: 23 78<209 242> 392 78<209 242>
Fore
246 462 m 0
 312 462 369 437 412 390 c 0
 450 349 470 291 470 223 c 0
 470 86 377 -10 242 -10 c 0
 182 -10 122 17 82 60 c 0
 45 100 23 162 23 226 c 0
 23 363 116 462 246 462 c 0
246 437 m 0
 209 437 175 422 149 393 c 0
 120 361 101 294 101 225 c 0
 101 149 124 80 159 48 c 0
 183 27 214 15 245 15 c 0
 281 15 312 27 336 51 c 0
 352 67 363 84 369 101 c 0
 383 137 392 184 392 224 c 0
 392 305 371 369 334 403 c 0
 309 425 278 437 246 437 c 0
EndSplineSet
KernsSLIF: 65 -23 2 0 84 -27 2 0 86 -34 2 0 87 -23 2 0 88 -27 2 0 89 -34 2 0
EndChar
StartChar: P
Encoding: 80 80 48
Width: 379
Flags: HMW
HStem: 0 13<11 18 184 202> 197 27<160 193> 427 25<153 178> 439 13<11 17>
VStem: 68 70<66 198 226 393> 296 74<317 339>
Fore
138 199 m 1xdc
 138 74 l 2
 138 25 148 15 202 13 c 1
 202 0 l 1
 11 0 l 1
 11 13 l 1
 63 18 68 25 68 82 c 2
 68 378 l 2
 68 427 61 434 11 439 c 1
 11 452 l 1
 191 452 l 2
 255 452 315 433 342 403 c 0
 361 383 370 357 370 328 c 0
 370 283 345 242 305 220 c 0
 275 203 238 197 185 197 c 0
 167 197 156 197 138 199 c 1xdc
138 404 m 2
 138 226 l 1
 154 225 163 224 177 224 c 0
 255 224 296 258 296 324 c 0
 296 395 253 427 161 427 c 0xec
 143 427 138 422 138 404 c 2
EndSplineSet
KernsSLIF: 65 -62 2 0 386 -10 2 0 44 -75 2 0 46 -75 2 0 97 -10 2 0
EndChar
StartChar: Q
Encoding: 81 81 49
Width: 492
Flags: HMW
HStem: -121 12<453 479> 437 25<242 253>
VStem: 23 78<206 239> 392 78<206 239>
Fore
479 -109 m 1
 479 -121 l 1
 475 -121 l 2
 467 -122 461 -122 451 -122 c 0
 342 -122 259 -92 213 -38 c 2
 181 -1 l 1
 132 16 111 29 84 58 c 0
 44 102 23 158 23 225 c 0
 23 363 116 462 246 462 c 0
 377 462 470 363 470 226 c 0
 470 150 444 88 393 43 c 0
 362 16 337 4 291 -5 c 1
 346 -76 401 -107 479 -109 c 1
249 437 m 0
 209 437 177 423 149 393 c 0
 121 361 101 294 101 229 c 0
 101 149 123 81 159 48 c 0
 184 27 214 15 246 15 c 0
 284 15 320 31 345 59 c 0
 372 90 392 160 392 227 c 0
 392 305 370 370 333 403 c 0
 309 424 278 437 249 437 c 0
EndSplineSet
KernsSLIF: 85 -6 2 0
EndChar
StartChar: R
Encoding: 82 82 50
Width: 455
Flags: HMW
HStem: 0 13<12 20 190 201 441 450> 427 25<165 186> 439 13<12 18>
VStem: 70 70<66 209 235 393> 299 74<328 339>
Fore
450 13 m 1xb8
 450 0 l 1
 340 0 l 1
 178 210 l 1
 139 209 l 1
 139 74 l 2
 139 25 148 16 201 13 c 1
 201 0 l 1
 12 0 l 1
 12 13 l 1
 63 17 70 25 70 82 c 2
 70 378 l 2
 70 426 63 434 12 439 c 1
 12 452 l 1
 200 452 l 2
 264 452 321 434 347 406 c 0
 365 386 373 361 373 332 c 0
 373 300 361 271 339 253 c 0
 316 235 296 227 250 218 c 1
 391 45 l 1
 410 22 424 15 450 13 c 1xb8
139 402 m 2
 139 234 l 1
 205 236 229 240 260 257 c 0
 285 270 299 299 299 333 c 0
 299 397 259 427 174 427 c 0xd8
 147 427 139 421 139 402 c 2
EndSplineSet
KernsSLIF: 79 -27 2 0 84 -40 2 0 85 -27 2 0 86 -54 2 0 87 -37 2 0 89 -44 2 0
EndChar
StartChar: S
Encoding: 83 83 51
Width: 379
Flags: HMW
HStem: -9 24<180 193> 434 28<167 180>
VStem: 48 59<345 370> 266 69<92 115>
Fore
305 462 m 1
 320 316 l 1
 303 316 l 1
 292 356 283 374 262 396 c 0
 238 421 209 434 178 434 c 0
 136 434 107 408 107 370 c 0
 107 333 136 303 208 264 c 0
 298 215 335 171 335 115 c 0
 335 44 274 -10 196 -10 c 0
 169 -10 141 -4 115 6 c 0
 102 11 91 14 83 14 c 0
 73 14 65 4 64 -9 c 1
 49 -9 l 1
 29 136 l 1
 44 136 l 1
 79 53 122 15 182 15 c 0
 232 15 266 46 266 92 c 0
 266 109 263 123 257 132 c 0
 240 158 204 186 155 212 c 0
 79 252 48 290 48 345 c 0
 48 380 61 409 85 430 c 0
 107 450 137 462 167 462 c 0
 188 462 214 456 239 447 c 1
 251 441 262 438 269 438 c 0
 281 438 288 446 291 462 c 1
 305 462 l 1
EndSplineSet
EndChar
StartChar: T
Encoding: 84 84 52
Width: 417
Flags: HMW
HStem: 0 13<109 121 295 309> 423 29<121 173 244 296>
VStem: 173 70<66 423>
Fore
173 423 m 1
 137 423 l 2
 60 423 44 410 28 336 c 1
 12 336 l 1
 16 452 l 1
 401 452 l 1
 405 336 l 1
 389 336 l 1
 373 411 358 423 280 423 c 2
 243 423 l 1
 243 74 l 2
 243 25 253 16 309 13 c 1
 309 0 l 1
 109 0 l 1
 109 13 l 1
 166 16 173 24 173 82 c 2
 173 423 l 1
EndSplineSet
KernsSLIF: 65 -63 2 0 79 -12 2 0 386 -54 2 0 58 -34 2 0 44 -50 2 0 390 -47 2 0 45 -62 2 0 394 -23 2 0 400 -54 2 0 46 -50 2 0 403 -23 2 0 59 -37 2 0 406 -30 2 0 408 -54 2 0 410 -54 2 0 97 -54 2 0 101 -47 2 0 105 -23 2 0 111 -54 2 0 114 -23 2 0 117 -30 2 0 119 -54 2 0 121 -54 2 0
EndChar
StartChar: U
Encoding: 85 85 53
Width: 492
Flags: HMW
HStem: -10 30<242 261> 439 13<10 19 195 203 323 332 476 481>
VStem: 71 70<143 395> 387 30<154 373>
Fore
417 352 m 2
 417 173 l 2
 417 121 411 89 395 61 c 0
 368 14 317 -10 242 -10 c 0
 126 -10 71 46 71 165 c 2
 71 378 l 2
 71 427 63 435 10 439 c 1
 10 452 l 1
 203 452 l 1
 203 439 l 1
 148 434 141 427 141 378 c 2
 141 159 l 2
 141 116 145 91 158 69 c 0
 176 37 210 20 258 20 c 0
 309 20 353 42 371 74 c 0
 382 95 387 121 387 167 c 2
 387 352 l 2
 387 420 376 435 323 439 c 1
 323 452 l 1
 481 452 l 1
 481 439 l 1
 425 432 417 421 417 352 c 2
EndSplineSet
KernsSLIF: 65 -27 2 0
EndChar
StartChar: V
Encoding: 86 86 54
Width: 492
Flags: HMW
HStem: 439 13<11 28 183 193 336 348 465 476>
VStem: 11 182<439 451> 336 140<439 451>
Fore
476 452 m 1
 476 439 l 1
 443 437 436 429 413 376 c 1
 262 -8 l 1
 251 -8 l 1
 83 367 l 1
 54 428 44 438 11 439 c 1
 11 452 l 1
 193 452 l 1
 193 439 l 1
 183 438 175 438 173 438 c 0
 151 436 141 429 141 416 c 0
 141 406 147 391 169 341 c 2
 272 110 l 1
 373 361 l 2
 381 381 386 399 386 410 c 0
 386 429 373 437 336 439 c 1
 336 452 l 1
 476 452 l 1
EndSplineSet
KernsSLIF: 65 -92 2 0 71 -10 2 0 79 -27 2 0 386 -75 2 0 58 -50 2 0 44 -88 2 0 390 -75 2 0 45 -68 2 0 394 -40 2 0 400 -88 2 0 46 -88 2 0 59 -50 2 0 406 -51 2 0 97 -75 2 0 101 -75 2 0 105 -40 2 0 111 -88 2 0 117 -51 2 0
EndChar
StartChar: W
Encoding: 87 87 55
Width: 644
Flags: HMW
HStem: 439 13<3 10 159 171 214 253 214 228 359 396 386 395 501 508>
VStem: 3 167<439 451> 214 182<439 451> 501 135<439 451>
Fore
636 452 m 1
 636 439 l 1
 600 432 593 426 580 391 c 0
 505 190 498 171 440 -8 c 1
 430 -8 l 1
 321 281 l 1
 216 -8 l 1
 206 -8 l 1
 74 359 l 1
 48 423 38 436 3 439 c 1
 3 452 l 1
 171 452 l 1
 171 439 l 1
 136 437 126 432 126 417 c 0
 126 410 129 398 134 386 c 2
 232 129 l 1
 305 322 l 1
 283 378 l 1
 259 432 253 438 214 439 c 1
 214 452 l 1
 396 452 l 1
 396 439 l 1
 359 438 343 432 343 415 c 0
 343 408 348 395 354 380 c 0
 354 378 361 363 362 360 c 2
 452 127 l 1
 537 358 l 2
 544 378 548 395 548 410 c 0
 548 428 536 436 501 439 c 1
 501 452 l 1
 636 452 l 1
EndSplineSet
KernsSLIF: 65 -81 2 0 79 -6 2 0 386 -54 2 0 58 -25 2 0 44 -62 2 0 390 -54 2 0 45 -44 2 0 394 -27 2 0 400 -54 2 0 46 -62 2 0 59 -25 2 0 406 -34 2 0 410 -49 2 0 97 -54 2 0 101 -54 2 0 105 -27 2 0 111 -54 2 0 117 -34 2 0 121 -49 2 0
EndChar
StartChar: X
Encoding: 88 88 56
Width: 492
Flags: HMW
HStem: 0 13<7 16 156 166 278 286 475 481> 0 14<291 296> 439 13<15 30 202 221 313 331 464 475>
VStem: 7 159<1 13> 15 206<439 451> 278 203<1 13> 313 163<439 451>
Fore
475 452 m 1xaa
 475 439 l 1
 432 436 418 428 373 375 c 1
 274 251 l 1
 405 63 l 1
 434 24 444 17 481 13 c 1
 481 0 l 1
 278 0 l 1
 278 13 l 1xa4
 286 14 294 14 296 14 c 0x64
 320 15 330 22 330 34 c 0
 330 44 318 68 296 101 c 2
 231 197 l 1
 150 96 l 2
 124 64 114 47 114 37 c 0
 114 21 126 16 166 13 c 1
 166 0 l 1
 7 0 l 1
 7 13 l 1xb4
 42 16 45 18 106 91 c 1
 213 223 l 1
 139 332 l 1
 72 427 59 437 15 439 c 1
 15 452 l 1
 221 452 l 1
 221 439 l 1
 202 438 l 2
 180 438 169 432 169 419 c 0
 169 404 186 374 227 316 c 2
 256 276 l 1
 333 370 l 2
 353 395 361 407 361 417 c 0
 361 433 350 438 313 439 c 1
 313 452 l 1
 475 452 l 1xaa
EndSplineSet
EndChar
StartChar: Y
Encoding: 89 89 57
Width: 492
Flags: HMW
HStem: 0 13<146 162 325 355 343 354> 439 13<15 31 199 206 330 366 471 480>
VStem: 15 191<439 451> 215 70<66 201> 330 150<439 451>
Fore
480 452 m 1
 480 439 l 1
 445 436 427 421 386 361 c 1
 285 207 l 1
 285 74 l 2
 285 23 294 14 355 13 c 1
 355 0 l 1
 146 0 l 1
 146 13 l 1
 208 16 215 23 215 82 c 2
 215 201 l 1
 126 332 l 1
 57 428 48 438 15 439 c 1
 15 452 l 1
 206 452 l 1
 206 439 l 1
 199 438 192 438 189 438 c 0
 167 437 158 431 158 419 c 0
 158 411 162 399 169 389 c 2
 270 237 l 1
 368 391 l 2
 374 401 378 410 378 416 c 0
 378 433 366 438 330 439 c 1
 330 452 l 1
 480 452 l 1
EndSplineSet
KernsSLIF: 65 -81 2 0 67 -23 2 0 79 -20 2 0 386 -68 2 0 58 -62 2 0 44 -88 2 0 390 -68 2 0 45 -75 2 0 394 -37 2 0 400 -75 2 0 46 -88 2 0 59 -62 2 0 406 -75 2 0 97 -68 2 0 101 -68 2 0 105 -37 2 0 111 -75 2 0 117 -75 2 0
EndChar
StartChar: Z
Encoding: 90 90 58
Width: 417
Flags: HMW
HStem: 0 26<100 290> 426 26<137 304>
Fore
392 120 m 1
 408 120 l 1
 391 0 l 1
 6 0 l 1
 6 10 l 1
 305 426 l 1
 154 426 l 2
 109 426 78 416 62 397 c 0
 51 382 45 369 39 335 c 1
 21 335 l 1
 35 452 l 1
 394 452 l 1
 394 442 l 1
 99 26 l 1
 274 26 l 2
 313 26 343 36 360 53 c 0
 373 68 380 82 392 120 c 1
EndSplineSet
EndChar
StartChar: bracketleft
Encoding: 91 91 59
Width: 227
Flags: HMW
HStem: -107 17<142 203> 435 17<137 203>
VStem: 60 52<-63 407> 60 144<-106 -89 435 451>
Fore
204 -89 m 1xd0
 204 -107 l 1
 60 -107 l 1
 60 452 l 1
 204 452 l 1
 204 435 l 1xd0
 143 435 l 2
 121 435 112 426 112 405 c 2
 112 -54 l 2xe0
 112 -78 123 -89 145 -89 c 2
 204 -89 l 1xd0
EndSplineSet
EndChar
StartChar: backslash
Encoding: 92 92 60
Width: 189
Flags: HMW
HStem: 448 14G<-6 40>
Fore
-6 462 m 1
 40 462 l 1
 196 -10 l 1
 150 -10 l 1
 -6 462 l 1
EndSplineSet
EndChar
StartChar: bracketright
Encoding: 93 93 61
Width: 227
Flags: HMW
HStem: -107 17<24 89> 435 17<24 89>
VStem: 115 52<-63 407>
Fore
23 -89 m 1
 85 -89 l 2
 106 -89 115 -81 115 -59 c 2
 115 399 l 2
 115 423 104 435 82 435 c 2
 23 435 l 1
 23 452 l 1
 167 452 l 1
 167 -107 l 1
 23 -107 l 1
 23 -89 l 1
EndSplineSet
EndChar
StartChar: asciicircum
Encoding: 94 94 62
Width: 320
Flags: HMW
HStem: 438 14G<140 181>
Fore
63 203 m 1
 16 203 l 1
 140 452 l 1
 181 452 l 1
 305 203 l 1
 258 203 l 1
 160 400 l 1
 63 203 l 1
EndSplineSet
EndChar
StartChar: underscore
Encoding: 95 95 63
Width: 341
Flags: HMW
HStem: -85 34<1 341>
VStem: 0 341<-85 -52>
Fore
341 -85 m 1
 0 -85 l 1
 0 -51 l 1
 341 -51 l 1
 341 -85 l 1
EndSplineSet
EndChar
StartChar: grave
Encoding: 96 96 64
Width: 150
Flags: HMW
Fore
127 309 m 1
 114 302 l 1
 89 331 36 395 26 412 c 0
 16 427 25 444 37 451 c 0
 48 457 67 457 76 441 c 0
 85 424 114 345 127 309 c 1
EndSplineSet
EndChar
StartChar: a
Encoding: 97 97 65
Width: 303
Flags: HMW
HStem: -7 40<97 128> 298 16<143 154>
VStem: 25 60<66 85> 38 60<234 242> 196 55<72 182 199 223>
Fore
302 45 m 1xd8
 302 27 l 1
 278 1 264 -7 240 -7 c 0
 212 -7 200 8 197 43 c 1
 155 8 127 -7 97 -7 c 0
 55 -7 25 23 25 66 c 0xe8
 25 89 35 112 50 126 c 0
 79 152 91 157 196 199 c 1
 196 241 l 2
 196 278 178 298 144 298 c 0
 117 298 95 283 95 264 c 0
 95 259 96 254 97 248 c 0
 98 243 98 240 98 237 c 0
 98 222 84 208 68 208 c 0
 52 208 38 222 38 238 c 0
 38 281 89 314 153 314 c 0
 193 314 223 301 238 277 c 0
 248 260 251 240 251 205 c 2
 251 72 l 2
 251 42 256 32 272 32 c 0
 282 32 290 36 302 45 c 1xd8
196 84 m 2
 196 183 l 1
 113 153 85 128 85 88 c 2
 85 85 l 2
 85 56 104 33 128 33 c 0
 143 33 162 39 178 48 c 0
 193 57 196 63 196 84 c 2
EndSplineSet
KernsSLIF: 118 -13 2 0 119 -10 2 0
EndChar
StartChar: b
Encoding: 98 98 66
Width: 341
Flags: HMW
HStem: -7 22<159 173> 271 43<172 199>
VStem: 47 57<47 223 257 397> 259 60<135 166>
Fore
104 465 m 1
 104 256 l 1
 118 289 158 314 199 314 c 0
 268 314 320 250 320 166 c 0
 320 68 250 -7 160 -7 c 0
 105 -7 47 16 47 37 c 2
 47 391 l 2
 47 420 41 426 14 426 c 0
 9 426 6 426 2 425 c 1
 2 436 l 1
 22 442 l 2
 54 451 72 456 101 466 c 1
 104 465 l 1
104 220 m 2
 104 48 l 2
 104 31 135 15 171 15 c 0
 227 15 259 59 259 135 c 0
 259 218 225 271 172 271 c 0
 137 271 104 246 104 220 c 2
EndSplineSet
KernsSLIF: 46 -27 2 0 117 -13 2 0 118 -10 2 0
EndChar
StartChar: c
Encoding: 99 99 67
Width: 303
Flags: HMW
HStem: -7 49<147 175> 294 20<159 170>
VStem: 17 53<145 175>
Fore
272 107 m 1
 281 100 l 1
 261 60 248 42 229 25 c 0
 205 4 178 -7 147 -7 c 0
 71 -7 17 57 17 145 c 0
 17 199 36 246 70 276 c 0
 98 300 133 314 167 314 c 0
 224 314 272 282 272 244 c 0
 272 228 257 215 239 215 c 0
 225 215 212 227 207 246 c 2
 203 262 l 2
 196 287 187 294 163 294 c 0
 107 294 70 246 70 175 c 0
 70 97 113 42 175 42 c 0
 214 42 239 59 272 107 c 1
EndSplineSet
KernsSLIF: 121 -10 2 0
EndChar
StartChar: d
Encoding: 100 100 68
Width: 341
Flags: HMW
HStem: -7 36<145 171> 295 19<160 171>
VStem: 18 59<140 167> 232 57<69 234 285 397> 232 103<29 38>
Fore
235 -7 m 1xe8
 232 -5 l 1
 232 39 l 1xe8
 209 7 183 -7 145 -7 c 0
 70 -7 18 53 18 140 c 0
 18 237 82 314 160 314 c 0
 188 314 206 307 232 285 c 1
 232 391 l 2
 232 419 226 426 201 426 c 0
 195 426 191 426 186 425 c 1
 186 436 l 1
 229 448 253 455 286 466 c 1
 289 465 l 1
 289 78 l 2xf0
 289 46 295 39 320 39 c 0
 322 39 323 39 335 40 c 1
 335 29 l 1
 235 -7 l 1xe8
232 70 m 2xf0
 232 227 l 2
 232 263 199 295 163 295 c 0
 111 295 77 244 77 167 c 0
 77 83 115 29 171 29 c 0
 191 29 208 36 221 49 c 0
 227 57 232 65 232 70 c 2xf0
EndSplineSet
EndChar
StartChar: e
Encoding: 101 101 69
Width: 303
Flags: HMW
HStem: -7 47<145 173> 189 22<68 206> 289 25<140 160>
Fore
279 112 m 1
 289 107 l 1
 261 33 210 -7 145 -7 c 0
 66 -7 17 52 17 146 c 0
 17 202 36 251 68 279 c 0
 94 302 126 314 160 314 c 0
 195 314 227 300 247 275 c 0
 264 253 271 234 277 189 c 1
 66 189 l 1
 68 147 72 125 85 99 c 0
 104 60 134 40 173 40 c 0
 216 40 246 60 279 112 c 1
68 211 m 1
 207 211 l 1
 198 270 182 289 140 289 c 0
 98 289 75 264 68 211 c 1
EndSplineSet
KernsSLIF: 103 -10 2 0 118 -17 2 0 119 -17 2 0 120 -10 2 0 121 -10 2 0
EndChar
StartChar: f
Encoding: 102 102 70
Width: 227
Flags: HMW
HStem: 0 10<14 26 173 191> 285 22<15 70 128 210>
VStem: 14 197<285 307> 70 57<55 285 307 331>
Fore
211 307 m 1xe0
 211 285 l 1
 128 285 l 1
 128 71 l 2
 128 20 135 12 191 10 c 1
 191 0 l 1
 14 0 l 1
 14 10 l 1xe0
 63 13 70 21 70 71 c 2
 70 285 l 1xd0
 14 285 l 1
 14 307 l 1xe0
 70 307 l 1
 71 362 76 386 94 416 c 0
 112 448 148 466 190 466 c 0
 231 466 262 449 262 424 c 0
 262 408 249 396 233 396 c 0
 221 396 213 403 202 421 c 0
 190 440 180 447 166 447 c 0
 140 447 127 426 127 386 c 2
 127 307 l 1xd0
 211 307 l 1xe0
EndSplineSet
KernsSLIF: 97 -6 2 0 261 -34 2 0 102 -17 2 0 105 -13 2 0 146 37 2 0
EndChar
StartChar: g
Encoding: 103 103 71
Width: 341
Flags: W
HStem: -149 39<137 167> -30 20G<194.5 242> 104 15<145 173> 265 27<264 321> 295 19<145 163>
VStem: 19 48<-83 -60> 47 57<203 229> 225 52<181 208> 296 19<-46 -33>
Fore
321 265 m 1xfb80
 264 265 l 1
 274 243 277 227 277 208 c 0
 277 173 267 150 244 130 c 0
 223 112 196 102 171 102 c 0
 167 102 158 102 145 104 c 0
 143 104 138 104 132 105 c 1
 113 100 91 76 91 62 c 0
 91 51 108 45 144 44 c 2
 232 40 l 2
 283 38 315 9 315 -33 c 0
 315 -59 303 -81 277 -102 c 0
 242 -131 188 -149 137 -149 c 0
 72 -149 19 -119 19 -83 c 0xfd80
 19 -57 38 -35 86 1 c 1
 58 14 50 23 50 37 c 0
 50 51 59 64 81 84 c 0
 85 87 98 99 111 111 c 1
 66 134 47 160 47 203 c 0
 47 265 98 314 161 314 c 0
 179 314 197 311 216 304 c 2
 231 298 l 2
 244 294 255 292 268 292 c 2
 321 292 l 1
 321 265 l 1xfb80
100 -1 m 1
 72 -36 67 -44 67 -60 c 0
 67 -90 107 -110 167 -110 c 0
 244 -110 296 -83 296 -44 c 0
 296 -19 273 -10 211 -10 c 0
 178 -10 123 -6 100 -1 c 1
104 231 m 2xfb80
 104 229 l 2
 104 163 132 119 173 119 c 0
 205 119 225 143 225 181 c 0
 225 208 216 239 204 263 c 0
 193 283 175 295 154 295 c 0
 123 295 104 271 104 231 c 2xfb80
EndSplineSet
KernsSLIF: 97 -3 2 0
EndChar
StartChar: h
Encoding: 104 104 72
Width: 341
Flags: HMW
HStem: 0 10<6 11 147 154 188 194> 277 37<183 208>
VStem: 50 57<55 234 257 404> 234 57<55 218>
Fore
107 234 m 1
 107 70 l 2
 107 23 114 14 154 10 c 1
 154 0 l 1
 6 0 l 1
 6 10 l 1
 46 16 50 22 50 70 c 2
 50 391 l 2
 50 421 44 426 15 426 c 0
 12 426 10 426 7 425 c 1
 7 436 l 1
 25 442 l 2
 63 453 81 458 104 466 c 1
 107 464 l 1
 107 257 l 1
 139 298 167 314 208 314 c 0
 263 314 292 277 292 206 c 2
 292 70 l 2
 292 23 296 17 333 10 c 1
 333 0 l 1
 188 0 l 1
 188 10 l 1
 227 14 234 23 234 70 c 2
 234 205 l 2
 234 253 217 277 183 277 c 0
 156 277 136 266 107 234 c 1
EndSplineSet
KernsSLIF: 121 -3 2 0
EndChar
StartChar: i
Encoding: 105 105 73
Width: 189
Flags: HMW
HStem: 0 10<11 23 164 173> 397 70<81 89>
VStem: 65 57<55 240>
DStem: 175 460 175 460 20 405 179 457
Fore
119 314 m 1
 122 312 l 1
 122 70 l 2
 122 20 128 14 173 10 c 1
 173 0 l 1
 11 0 l 1
 11 10 l 1
 58 13 65 20 65 70 c 2
 65 228 l 2
 65 258 59 269 42 269 c 0
 36 269 27 268 19 267 c 2
 14 266 l 1
 14 277 l 1
 119 314 l 1
87 466 m 0
 107 466 123 451 123 432 c 0
 123 412 107 397 87 397 c 0
 68 397 53 412 53 432 c 0
 53 451 69 466 87 466 c 0
EndSplineSet
KernsSLIF: 118 -17 2 0
EndChar
StartChar: j
Encoding: 106 106 74
Width: 189
Flags: HMW
HStem: 397 70<94 98>
VStem: 74 57<-18 234>
Fore
132 312 m 1
 132 0 l 2
 132 -97 91 -149 16 -149 c 0
 -20 -149 -48 -133 -48 -111 c 0
 -48 -96 -36 -85 -20 -85 c 0
 -9 -85 1 -91 13 -107 c 0
 25 -121 31 -126 42 -126 c 0
 51 -126 61 -120 65 -113 c 0
 72 -100 74 -83 74 -31 c 2
 74 228 l 2
 74 257 68 269 53 269 c 0
 46 269 36 268 25 267 c 2
 22 266 l 1
 22 277 l 1
 62 289 88 298 128 314 c 1
 132 312 l 1
97 466 m 0
 117 466 132 451 132 432 c 0
 132 412 117 397 97 397 c 0
 78 397 63 412 63 432 c 0
 63 451 79 466 97 466 c 0
EndSplineSet
EndChar
StartChar: k
Encoding: 107 107 75
Width: 341
Flags: HMW
HStem: 0 10<151 165 197 212 335 345> 298 10<188 215>
VStem: 56 57<40 171 179 393> 188 139<298 307> 196 149<1 10>
Fore
5 425 m 1xe8
 5 436 l 1
 25 442 l 2
 65 453 85 458 111 466 c 1
 113 465 l 1
 113 178 l 1
 207 262 l 2
 216 270 223 279 223 285 c 0
 223 294 215 297 188 298 c 1
 188 307 l 1xf0
 328 307 l 1
 328 297 l 1
 322 297 l 2
 311 297 301 296 291 293 c 0
 271 287 229 256 180 211 c 2
 160 193 l 1
 265 60 l 1
 294 25 315 12 345 10 c 1
 345 0 l 1
 196 0 l 1
 196 10 l 1
 209 10 l 2
 217 10 223 14 223 20 c 0
 223 24 221 28 216 35 c 0
 214 37 212 39 211 41 c 2
 209 44 l 1
 113 171 l 1
 113 46 l 2
 113 22 124 12 151 11 c 2
 165 10 l 1
 165 0 l 1
 5 0 l 1
 5 10 l 1
 54 18 56 20 56 56 c 2
 56 385 l 2
 56 418 49 427 27 427 c 0
 20 427 14 426 5 425 c 1xe8
EndSplineSet
KernsSLIF: 101 -6 2 0 111 -6 2 0 121 -10 2 0
EndChar
StartChar: l
Encoding: 108 108 76
Width: 189
Flags: HMW
HStem: 0 10<14 23 165 175>
VStem: 67 57<55 393>
Fore
13 425 m 1
 13 436 l 1
 60 448 86 455 122 466 c 1
 124 465 l 1
 124 57 l 2
 124 20 132 13 175 10 c 1
 175 0 l 1
 14 0 l 1
 14 10 l 1
 57 14 67 23 67 59 c 2
 67 385 l 2
 67 417 60 427 38 427 c 0
 33 427 25 426 17 425 c 2
 13 425 l 1
EndSplineSet
KernsSLIF: 119 -6 2 0
EndChar
StartChar: m
Encoding: 109 109 77
Width: 531
Flags: HMW
HStem: 0 10<11 49 11 24 144 163 195 205 309 348 339 348 380 385 520 529> 279 36<197 219 373 403>
VStem: 13 100<274 283> 59 57<44 240> 242 57<51 218> 425 57<44 208>
CounterMasks: 1 00
Fore
13 272 m 1xec
 13 283 l 1
 51 294 74 301 109 314 c 1
 113 313 l 1
 113 262 l 1xec
 170 305 189 314 219 314 c 0
 256 314 279 296 292 257 c 1
 328 296 363 314 403 314 c 0
 455 314 482 273 482 193 c 2
 482 52 l 2
 482 25 491 13 511 12 c 2
 529 10 l 1
 529 0 l 1
 380 0 l 1
 380 10 l 1
 419 15 425 20 425 59 c 2
 425 203 l 2
 425 260 412 279 373 279 c 0
 342 279 320 266 299 237 c 1
 299 65 l 2
 299 23 309 11 348 10 c 1
 348 0 l 1
 195 0 l 1
 195 10 l 1
 234 13 242 20 242 59 c 2
 242 207 l 2
 242 255 227 279 197 279 c 0
 173 279 143 267 126 251 c 0
 122 246 116 240 116 238 c 2
 116 46 l 2
 116 19 126 12 163 10 c 1
 163 0 l 1
 11 0 l 1
 11 10 l 1
 49 11 59 21 59 58 c 2
 59 231 l 2xdc
 59 264 53 274 35 274 c 0
 27 274 22 274 13 272 c 1xec
EndSplineSet
EndChar
StartChar: n
Encoding: 110 110 78
Width: 341
Flags: HMW
HStem: 0 10<12 21 148 157 189 198 324 331> 277 38<182 209>
VStem: 11 99<274 283> 55 57<45 238> 232 57<55 218>
Fore
11 272 m 1xe8
 11 283 l 1
 48 294 72 302 105 314 c 1
 110 313 l 1
 110 259 l 1xe8
 156 302 178 314 209 314 c 0
 259 314 289 276 289 212 c 2
 289 55 l 2
 289 22 298 14 331 10 c 1
 331 0 l 1
 189 0 l 1
 189 10 l 1
 223 13 232 25 232 68 c 2
 232 210 l 2
 232 255 216 277 182 277 c 0
 160 277 145 268 112 238 c 1
 112 46 l 2
 112 21 122 13 157 10 c 1
 157 0 l 1
 12 0 l 1
 12 10 l 1
 47 13 55 23 55 61 c 2
 55 231 l 2xd8
 55 264 48 274 29 274 c 0
 22 274 15 274 11 272 c 1xe8
EndSplineSet
KernsSLIF: 118 -27 2 0 121 -10 2 0
EndChar
StartChar: o
Encoding: 111 111 79
Width: 341
Flags: HMW
HStem: -7 19<169 184> 295 19<161 171>
VStem: 20 61<154 188> 259 61<136 160>
Fore
171 314 m 0
 258 314 321 249 321 160 c 0
 321 66 255 -7 169 -7 c 0
 83 -7 20 62 20 154 c 0
 20 249 82 314 171 314 c 0
162 295 m 0
 113 295 81 253 81 188 c 0
 81 139 92 91 111 56 c 0
 126 29 151 12 178 12 c 0
 229 12 259 59 259 136 c 0
 259 229 219 295 162 295 c 0
EndSplineSet
KernsSLIF: 118 -10 2 0 119 -17 2 0 121 -6 2 0
EndChar
StartChar: p
Encoding: 112 112 80
Width: 341
Flags: HMW
HStem: -148 12<3 10> -148 12<117 169 156 168> -7 22<170 189> 273 41<178 207>
VStem: 51 57<-94 22 59 231> 262 59<142 169>
Fore
6 268 m 1xbc
 6 279 l 1
 44 291 68 300 104 314 c 1
 109 313 l 1
 109 260 l 1
 139 297 169 314 207 314 c 0
 273 314 321 253 321 169 c 0
 321 70 258 -7 178 -7 c 0
 149 -7 132 0 109 23 c 1
 109 -85 l 2
 109 -128 117 -135 169 -136 c 1
 169 -148 l 1x7c
 3 -148 l 1
 3 -137 l 1
 44 -132 51 -125 51 -89 c 2
 51 230 l 2
 51 262 46 269 23 269 c 0
 17 269 12 269 6 268 c 1xbc
109 228 m 2
 109 60 l 2
 109 40 147 15 180 15 c 0
 229 15 262 66 262 142 c 0
 262 221 229 273 178 273 c 0
 147 273 109 249 109 228 c 2
EndSplineSet
KernsSLIF: 121 -6 2 0
EndChar
StartChar: q
Encoding: 113 113 81
Width: 341
Flags: W
HStem: -148 11<172 184.25> -7 42<126 165> 292 20G<283 290> 296 19<159 177>
VStem: 16 59<140 165> 233 57<-101 44 75 312>
Fore
246 290 m 1xdc
 283 312 l 1
 290 312 l 1xec
 290 -96 l 2
 290 -125 296 -130 333 -139 c 1
 333 -148 l 1
 172 -148 l 1
 172 -137 l 1
 221 -133 233 -123 233 -85 c 2
 233 44 l 1
 203 11 165 -7 126 -7 c 0
 61 -7 16 54 16 140 c 0
 16 238 82 315 167 315 c 0
 194 315 214 309 246 290 c 1xdc
233 87 m 2
 233 227 l 2
 233 273 212 296 169 296 c 0xdc
 111 296 75 245 75 165 c 0
 75 119 89 75 111 55 c 1
 125 42 143 35 165 35 c 0
 186 35 208 43 223 56 c 0
 230 61 233 70 233 87 c 2
EndSplineSet
EndChar
StartChar: r
Encoding: 114 114 82
Width: 227
Flags: HMW
HStem: 0 10<152 167> 247 67<191 202>
VStem: 52 57<55 218>
Fore
5 266 m 1
 5 277 l 1
 45 290 70 299 106 314 c 1
 109 313 l 1
 109 250 l 1
 143 298 163 314 191 314 c 0
 214 314 229 300 229 278 c 0
 229 259 218 247 202 247 c 0
 193 247 186 251 175 261 c 0
 167 268 161 271 157 271 c 0
 139 271 109 237 109 215 c 2
 109 61 l 2
 109 23 121 12 167 10 c 1
 167 0 l 1
 3 0 l 1
 3 10 l 1
 47 18 52 23 52 57 c 2
 52 228 l 2
 52 258 46 269 29 269 c 0
 20 269 14 268 5 266 c 1
EndSplineSet
KernsSLIF: 44 -27 2 0 103 -12 2 0 45 -13 2 0 46 -37 2 0
EndChar
StartChar: s
Encoding: 115 115 83
Width: 265
Flags: HMW
HStem: -7 15<129 144> -3 107<36 44> 214 93<205 212> 298 15<122 141>
VStem: 35 42<229 252> 190 48<57 81>
Fore
215 214 m 1x2c
 205 214 l 1x2c
 189 275 169 298 130 298 c 0
 98 298 77 279 77 252 c 0
 77 234 87 216 107 206 c 2
 180 162 l 2
 221 137 238 115 238 81 c 0
 238 33 194 -7 141 -7 c 0x9c
 129 -7 111 -4 91 0 c 0
 76 4 66 5 60 5 c 0
 52 5 49 4 44 -3 c 1
 36 -3 l 1
 36 104 l 1
 46 104 l 1x4c
 55 65 61 49 76 32 c 0
 89 17 110 8 133 8 c 0
 168 8 190 27 190 57 c 0
 190 79 178 95 154 109 c 2
 115 131 l 2
 57 164 35 191 35 229 c 0
 35 279 74 313 128 313 c 0x9c
 145 313 160 311 175 305 c 0
 183 302 190 300 194 300 c 0
 197 300 197 301 203 306 c 2
 205 307 l 1
 212 307 l 1
 215 214 l 1x2c
EndSplineSet
EndChar
StartChar: t
Encoding: 116 116 84
Width: 189
Flags: HMW
HStem: -7 36<109 141> 285 22<106 173>
VStem: 9 165<288 292> 48 57<79 285>
Fore
174 307 m 1xe0
 174 285 l 1xe0
 105 285 l 1
 105 90 l 2
 105 47 115 29 141 29 c 0
 156 29 167 36 182 53 c 1
 190 45 l 1
 168 10 142 -7 109 -7 c 0
 68 -7 48 23 48 80 c 2
 48 285 l 1xd0
 12 285 l 1
 10 287 9 288 9 290 c 0xe0
 9 294 13 298 20 303 c 1
 31 306 61 339 87 376 c 0
 91 383 96 389 100 395 c 1
 104 395 105 393 105 386 c 2
 105 307 l 1xd0
 174 307 l 1xe0
EndSplineSet
EndChar
StartChar: u
Encoding: 117 117 85
Width: 341
Flags: HMW
HStem: -7 40<131 154> 296 12<177 191> 298 10<6 17>
VStem: 48 57<81 266> 227 57<81 266> 231 96<25 34>
Fore
327 34 m 1xd4
 327 25 l 1
 292 15 268 8 234 -6 c 1
 231 -5 l 1
 231 52 l 1xd4
 201 23 l 2
 183 4 156 -7 131 -7 c 0
 81 -7 48 28 48 82 c 2
 48 254 l 2
 48 285 39 296 6 298 c 1
 6 307 l 1
 106 307 l 1
 106 85 l 2
 106 56 128 33 154 33 c 0
 175 33 196 41 214 56 c 0
 224 63 227 73 227 92 c 2
 227 253 l 2xb8
 227 287 219 294 177 296 c 1
 177 307 l 1
 285 307 l 1
 285 73 l 2
 285 42 292 34 324 34 c 2
 327 34 l 1xd4
EndSplineSet
EndChar
StartChar: v
Encoding: 118 118 86
Width: 341
Flags: HMW
HStem: 297 10<13 26 139 147 231 238 319 326>
VStem: 13 134<297 307> 231 95<297 307>
Fore
326 307 m 1
 326 297 l 1
 305 295 301 290 281 244 c 1
 194 25 l 2
 184 -1 179 -10 175 -10 c 0
 171 -10 167 -4 163 8 c 0
 160 14 158 18 157 23 c 1
 75 218 l 1
 44 289 39 296 13 297 c 1
 13 307 l 1
 147 307 l 1
 147 297 l 1
 123 295 115 290 115 278 c 0
 115 272 117 262 122 253 c 1
 191 78 l 1
 259 255 l 2
 262 262 263 268 263 275 c 0
 263 288 253 295 231 297 c 1
 231 307 l 1
 326 307 l 1
EndSplineSet
KernsSLIF: 97 -17 2 0 44 -44 2 0 101 -10 2 0 111 -13 2 0 46 -44 2 0
EndChar
StartChar: w
Encoding: 119 119 87
Width: 492
Flags: HMW
HStem: 297 10<14 22 131 137 179 185>
VStem: 14 123<297 307> 179 139<297 307> 390 84<297 307>
Fore
390 307 m 1
 474 307 l 1
 474 297 l 1
 460 292 458 289 446 260 c 1
 352 24 l 2
 341 -3 337 -10 333 -10 c 0
 328 -10 326 -5 316 20 c 2
 254 181 l 1
 178 17 l 2
 169 -1 164 -10 160 -10 c 0
 156 -10 151 0 143 20 c 2
 51 254 l 1
 36 289 30 296 14 297 c 1
 14 307 l 1
 137 307 l 1
 137 297 l 1
 114 294 106 289 106 274 c 0
 106 268 107 261 110 254 c 2
 178 76 l 1
 240 212 l 1
 236 224 231 237 226 250 c 0
 212 287 204 294 179 297 c 1
 179 307 l 1
 317 307 l 1
 317 297 l 1
 285 292 278 287 278 272 c 0
 278 264 278 264 289 232 c 2
 347 79 l 1
 408 231 l 2
 416 249 420 266 420 276 c 0
 420 287 413 292 390 297 c 1
 390 307 l 1
EndSplineSet
KernsSLIF: 97 -6 2 0 44 -44 2 0 111 -6 2 0 46 -44 2 0
EndChar
StartChar: x
Encoding: 120 120 88
Width: 341
Flags: HMW
HStem: 0 10<12 19 98 110 190 201 318 327> 297 10<17 24 137 158 188 198 274 296>
VStem: 12 99<1 10> 16 141<297 307> 188 108<297 307> 190 137<1 10>
Fore
190 0 m 1xc4
 190 10 l 1
 212 12 217 14 217 27 c 0
 217 31 216 35 213 39 c 2
 151 135 l 1
 97 51 l 2
 88 37 83 27 83 23 c 0
 83 14 91 10 111 10 c 1
 111 0 l 1
 12 0 l 1
 12 10 l 1xe4
 34 12 41 17 61 45 c 1
 139 158 l 1
 75 256 l 2
 54 288 43 297 23 297 c 2
 16 297 l 1
 16 307 l 1
 158 307 l 1
 158 297 l 1
 137 296 128 292 128 282 c 0
 128 273 141 250 160 221 c 2
 169 208 l 1
 178 221 186 234 190 238 c 0xd4
 207 259 215 274 215 282 c 0
 215 292 208 296 188 297 c 1
 188 307 l 1
 296 307 l 1
 296 297 l 1xc8
 274 296 253 285 240 267 c 2
 184 185 l 1
 271 51 l 1
 292 21 306 10 327 10 c 1
 327 0 l 1
 190 0 l 1xc4
EndSplineSet
KernsSLIF: 101 -10 2 0
EndChar
StartChar: y
Encoding: 121 121 89
Width: 341
Flags: HMW
HStem: -149 70<50 71> 297 10<136 150 232 244 319 324>
VStem: 10 141<298 307> 232 92<297 307>
Fore
324 307 m 1
 324 297 l 1
 308 295 300 288 292 266 c 1
 186 -12 l 2
 150 -111 117 -149 71 -149 c 0
 42 -149 20 -132 20 -109 c 0
 20 -93 34 -79 50 -79 c 0
 61 -79 73 -82 86 -87 c 0
 93 -90 99 -91 103 -91 c 0
 113 -91 128 -79 137 -61 c 0
 149 -40 165 3 165 13 c 0
 165 23 154 48 135 82 c 1
 124 102 l 1
 122 108 l 1
 44 276 l 2
 39 287 27 295 10 298 c 1
 10 307 l 1
 150 307 l 1
 150 297 l 1
 121 296 111 291 111 279 c 0
 111 271 113 262 117 253 c 2
 196 80 l 1
 262 268 l 1
 264 273 265 277 265 280 c 0
 265 291 254 297 232 297 c 1
 232 307 l 1
 324 307 l 1
EndSplineSet
KernsSLIF: 44 -44 2 0 46 -44 2 0
EndChar
StartChar: z
Encoding: 122 122 90
Width: 303
Flags: HMW
HStem: 0 20<92 204> 287 20<91 199>
Fore
285 92 m 1
 276 0 l 1
 18 0 l 1
 18 10 l 1
 200 287 l 1
 106 287 l 2
 65 287 55 277 48 227 c 1
 36 227 l 1
 38 307 l 1
 275 307 l 1
 275 297 l 1
 91 20 l 1
 186 20 l 2
 221 20 244 27 253 38 c 0
 262 50 266 61 273 95 c 1
 285 92 l 1
EndSplineSet
EndChar
StartChar: braceleft
Encoding: 123 123 91
Width: 327
Flags: HMW
VStem: 126 51<-36 95 247 379>
Fore
239 -116 m 1
 239 -124 l 1
 194 -123 175 -119 156 -107 c 0
 137 -94 126 -66 126 -28 c 2
 126 93 l 2
 126 140 114 156 68 171 c 1
 114 184 126 200 126 248 c 2
 126 369 l 2
 126 408 137 435 156 447 c 0
 176 460 194 464 239 464 c 1
 239 457 l 1
 192 444 177 424 177 373 c 2
 177 258 l 2
 177 201 164 184 113 170 c 1
 164 157 177 139 177 83 c 2
 177 -32 l 2
 177 -83 192 -104 239 -116 c 1
EndSplineSet
EndChar
StartChar: bar
Encoding: 124 124 92
Width: 136
Flags: HMW
HStem: -10 471<46 90>
VStem: 46 45<-9 461>
Fore
46 -10 m 1
 46 462 l 1
 91 462 l 1
 91 -10 l 1
 46 -10 l 1
EndSplineSet
EndChar
StartChar: braceright
Encoding: 125 125 93
Width: 327
Flags: HMW
VStem: 151 51<-36 95 247 379>
Fore
89 457 m 1
 89 464 l 1
 135 464 152 460 171 447 c 0
 190 435 201 407 201 369 c 2
 201 248 l 2
 201 200 214 184 259 171 c 1
 214 156 201 141 201 93 c 2
 201 -29 l 2
 201 -68 191 -94 171 -107 c 0
 152 -119 134 -123 89 -124 c 1
 89 -116 l 1
 136 -104 151 -83 151 -32 c 2
 151 83 l 2
 151 139 164 157 215 171 c 1
 164 184 151 201 151 258 c 2
 151 373 l 2
 151 424 136 444 89 457 c 1
EndSplineSet
EndChar
StartChar: asciitilde
Encoding: 126 126 94
Width: 369
Flags: HMW
HStem: 127 45<246 260> 173 45<111 126>
Fore
306 207 m 1
 343 185 l 1
 311 141 290 127 259 127 c 0
 228 127 216 132 155 164 c 0
 143 170 129 173 115 173 c 0
 94 173 82 165 64 139 c 1
 27 160 l 1
 59 204 80 218 111 218 c 0
 142 218 154 214 215 182 c 0
 227 175 241 172 255 172 c 0
 277 172 288 180 306 207 c 1
EndSplineSet
EndChar
StartChar: uni0E10.descless
Encoding: 128 63232 95
Width: 355
Flags: W
HStem: 0 21G<193 245> 106 19<101 103> 197 23<100 113> 279 21<20 92> 316 29<231 245> 341 44<113 133> 360 20G<284 305>
VStem: 58 19<162 164> 126 19<158 164> 193 52<0 34.9494 161 197>
Back
245.117 196.777 m 1
 244.141 231.445 227.051 258.789 192.871 277.832 c 0
 165.527 292.48 131.836 299.805 91.7969 299.805 c 0
 80.0781 299.805 71.2891 299.805 65.918 299.316 c 0
 60.5469 299.316 56.1523 298.828 53.2227 297.852 c 1
 61.5234 326.66 85.4492 340.82 125 340.82 c 0
 130.859 340.82 138.672 339.355 147.949 336.426 c 0
 157.227 333.496 167.48 330.566 179.199 327.148 c 0
 190.918 323.242 201.172 320.312 209.961 318.359 c 0
 218.75 316.895 225.586 315.918 230.957 315.918 c 0
 268.555 315.918 292.969 337.402 305.176 379.883 c 1
 284.18 379.883 l 1
 279.297 370.117 273.926 361.816 268.555 354.98 c 0
 262.695 348.145 254.395 345.215 243.164 345.215 c 0
 239.746 345.215 235.352 346.191 230.469 348.633 c 0
 225.586 351.074 220.215 353.516 214.355 356.445 c 0
 208.984 359.375 203.125 362.305 197.266 365.723 c 0
 191.895 368.652 187.012 371.094 183.105 373.047 c 0
 173.828 377.441 164.551 380.859 154.785 382.324 c 0
 145.508 384.277 136.23 384.766 126.953 384.766 c 0
 112.793 384.766 100.098 382.324 87.8906 376.465 c 0
 76.1719 370.605 64.9414 363.281 55.6641 353.516 c 0
 45.8984 343.75 38.0859 332.52 32.2266 319.824 c 0
 25.8789 307.129 21.9727 293.457 20.0195 278.809 c 1
 65.918 278.809 102.051 275.391 127.93 268.066 c 0
 169.922 256.836 191.895 232.91 192.871 195.801 c 1
 192.871 161.133 l 1
 185.547 180.176 174.805 194.824 160.645 205.078 c 0
 145.996 214.844 130.371 220.215 112.793 220.215 c 0
 94.2383 220.215 80.5664 214.355 71.2891 203.613 c 0
 62.5 192.383 58.1055 178.711 58.1055 162.109 c 0
 58.1055 148.438 62.0117 136.23 70.3125 124.023 c 0
 78.6133 111.816 88.8672 105.957 101.074 105.957 c 0
 114.258 105.957 125 111.328 132.812 122.559 c 0
 141.113 133.301 145.02 145.996 145.02 160.156 c 0
 145.02 170.898 143.555 179.199 140.137 186.035 c 1
 155.762 171.875 168.945 149.414 178.711 118.652 c 0
 187.988 87.4023 192.871 47.8516 192.871 0 c 1
 245.117 0 l 1
 245.117 196.777 l 1
125.977 162.109 m 0
 125.977 149.902 123.535 140.625 118.652 134.277 c 0
 113.281 127.93 107.91 125 101.074 125 c 0
 93.75 125 87.8906 127.93 83.4961 134.277 c 0
 79.1016 140.625 77.1484 149.902 77.1484 162.109 c 0
 77.1484 171.875 79.1016 180.176 83.4961 187.012 c 0
 87.8906 193.848 93.75 196.777 101.074 196.777 c 0
 108.887 196.777 115.234 193.359 119.629 185.547 c 0
 124.023 177.734 125.977 169.922 125.977 162.109 c 0
EndSplineSet
Fore
245 197 m 1xf5c0
 245 0 l 1
 193 0 l 1
 193 96 172 158 140 186 c 1
 143 179 145 171 145 160 c 0
 145 132 128 106 101 106 c 0
 77 106 58 135 58 162 c 0
 58 195 76 220 113 220 c 0
 148 220 178 200 193 161 c 1
 193 196 l 1
 192 233 170 257 128 268 c 0
 102 275 66 279 20 279 c 1
 28 337 71 385 127 385 c 0xf5c0
 146 385 164 382 183 373 c 0
 199 365 231 345 243 345 c 0
 266 345 275 360 284 380 c 1
 305 380 l 1
 293 337 268 316 231 316 c 0xfbc0
 220 316 203 319 179 327 c 0
 156 334 137 341 125 341 c 0
 86 341 62 327 53 298 c 1
 60 299 68 300 92 300 c 0
 132 300 166 293 193 278 c 0
 227 259 244 232 245 197 c 1xf5c0
126 162 m 0
 126 178 117 197 101 197 c 0
 86 197 77 182 77 162 c 0
 77 138 86 125 101 125 c 0
 114 125 126 138 126 162 c 0
EndSplineSet
EndChar
StartChar: uni0E34.left
Encoding: 129 63233 96
Width: 0
Flags: MW
Back
-160.156 456.055 m 1
 -162.598 463.867 -167.969 473.145 -175.293 483.398 c 0
 -183.105 493.652 -192.871 503.418 -204.59 512.695 c 0
 -216.309 521.484 -229.004 529.297 -242.676 535.645 c 0
 -256.348 541.992 -270.508 544.922 -285.156 544.922 c 0
 -291.016 544.922 -297.852 544.434 -305.176 543.457 c 0
 -312.5 542.48 -318.848 541.016 -325.195 539.062 c 0
 -331.055 537.109 -335.938 534.18 -339.844 529.785 c 0
 -344.238 525.879 -346.191 520.996 -346.191 515.137 c 0
 -346.191 507.812 -341.797 502.93 -333.008 501.465 c 0
 -324.219 500 -315.43 499.023 -307.129 499.023 c 0
 -293.457 499.023 -282.227 498.535 -272.461 497.07 c 0
 -262.695 495.605 -252.441 493.652 -241.211 491.211 c 0
 -225.586 487.793 -211.426 482.91 -198.73 477.051 c 0
 -185.547 471.191 -172.852 463.867 -160.156 456.055 c 1
-134.766 421.875 m 1
 -147.461 430.664 -162.109 438.477 -178.711 444.824 c 0
 -194.824 451.66 -211.426 457.52 -229.004 461.914 c 0
 -239.746 465.332 -251.465 467.773 -264.648 470.215 c 0
 -277.344 472.168 -290.527 473.145 -304.199 473.145 c 0
 -309.57 473.145 -315.43 473.145 -323.242 473.145 c 0
 -330.566 473.145 -336.426 472.656 -341.797 472.168 c 0
 -363.281 472.168 -378.906 475.098 -388.184 481.934 c 0
 -391.113 484.863 -394.043 488.281 -396.484 493.164 c 0
 -398.926 497.559 -399.902 501.465 -399.902 504.883 c 0
 -399.902 516.113 -395.508 527.344 -386.23 538.574 c 0
 -376.465 549.316 -367.676 557.617 -358.887 562.988 c 0
 -340.332 574.219 -317.383 580.078 -290.039 580.078 c 0
 -272.461 580.078 -254.883 576.172 -236.328 567.871 c 0
 -218.262 560.059 -201.66 548.828 -186.523 535.156 c 0
 -171.387 520.996 -159.18 504.395 -149.414 484.863 c 0
 -139.648 465.82 -134.766 444.824 -134.766 421.875 c 1
EndSplineSet
Fore
-160 456 m 1
 -171 488 -227 545 -285 545 c 0
 -310 545 -346 539 -346 515 c 0
 -346 500 -324 499 -307 499 c 0
 -280 499 -264 496 -241 491 c 0
 -210 484 -185 472 -160 456 c 1
-135 422 m 1
 -160 439 -194 453 -229 462 c 1
 -250 469 -277 473 -304 473 c 2
 -323 473 l 2
 -330 473 -337 473 -342 472 c 0
 -363 472 -379 475 -388 482 c 0
 -395 487 -400 498 -400 505 c 0
 -400 528 -376 552 -359 563 c 0
 -340 574 -317 580 -290 580 c 0
 -221 580 -135 513 -135 422 c 1
EndSplineSet
EndChar
StartChar: uni0E35.left
Encoding: 130 63234 97
Width: 0
Flags: MW
Back
-149.902 615.234 m 1
 -188.965 615.234 l 1
 -188.965 537.109 l 1
 -204.102 550.293 -220.703 561.035 -237.793 568.359 c 0
 -255.371 576.172 -272.461 580.078 -290.039 580.078 c 0
 -317.383 580.078 -340.332 574.219 -358.887 562.988 c 0
 -367.676 557.617 -376.465 549.316 -386.23 538.574 c 0
 -395.508 527.344 -399.902 516.113 -399.902 504.883 c 0
 -399.902 501.465 -398.926 497.559 -396.484 493.164 c 0
 -394.043 488.281 -391.113 484.863 -388.184 481.934 c 0
 -378.906 475.098 -363.281 472.168 -341.797 472.168 c 0
 -336.426 472.656 -330.566 473.145 -323.242 473.145 c 0
 -315.43 473.145 -309.57 473.145 -304.199 473.145 c 0
 -290.527 473.145 -277.344 472.168 -264.648 470.215 c 0
 -251.465 467.773 -239.746 465.332 -229.004 461.914 c 0
 -211.426 457.52 -194.824 451.66 -178.711 444.824 c 0
 -162.109 438.477 -147.461 430.664 -134.766 421.875 c 1
 -134.766 444.824 -140.137 465.82 -149.902 485.84 c 1
 -149.902 615.234 l 1
-160.156 456.055 m 1
 -172.852 463.867 -185.547 471.191 -198.73 477.051 c 0
 -211.426 482.91 -225.586 487.793 -241.211 491.211 c 0
 -252.441 493.652 -262.695 495.605 -272.461 497.07 c 0
 -282.227 498.535 -293.457 499.023 -307.129 499.023 c 0
 -315.43 499.023 -324.219 500 -333.008 501.465 c 0
 -341.797 502.93 -346.191 507.812 -346.191 515.137 c 0
 -346.191 520.996 -344.238 525.879 -339.844 529.785 c 0
 -335.938 534.18 -331.055 537.109 -325.195 539.062 c 0
 -318.848 541.016 -312.5 542.48 -305.176 543.457 c 0
 -297.852 544.434 -291.016 544.922 -285.156 544.922 c 0
 -270.508 544.922 -256.348 541.992 -242.676 535.645 c 0
 -229.004 529.297 -216.309 521.484 -204.59 512.695 c 0
 -192.871 503.418 -183.105 493.652 -175.293 483.398 c 0
 -167.969 473.145 -162.598 463.867 -160.156 456.055 c 1
EndSplineSet
Fore
-150 615 m 1
 -150 486 l 1
 -140 466 -135 445 -135 422 c 1
 -160 439 -194 453 -229 462 c 1
 -250 469 -277 473 -304 473 c 2
 -323 473 l 2
 -330 473 -337 473 -342 472 c 0
 -363 472 -379 475 -388 482 c 0
 -395 487 -400 498 -400 505 c 0
 -400 528 -376 552 -359 563 c 0
 -340 574 -317 580 -290 580 c 0
 -255 580 -220 564 -189 537 c 1
 -189 615 l 1
 -150 615 l 1
-160 456 m 1
 -171 488 -227 545 -285 545 c 0
 -310 545 -346 539 -346 515 c 0
 -346 500 -324 499 -307 499 c 0
 -280 499 -264 496 -241 491 c 0
 -210 484 -185 472 -160 456 c 1
EndSplineSet
EndChar
StartChar: uni0E36.left
Encoding: 131 63235 98
Width: 0
Flags: MW
Back
-134.766 421.875 m 1
 -134.766 455.566 -145.02 484.863 -165.039 511.23 c 1
 -155.762 515.625 -148.438 522.461 -143.066 530.762 c 0
 -137.695 539.551 -134.766 549.316 -134.766 560.059 c 0
 -134.766 575.195 -140.137 588.379 -150.879 599.121 c 0
 -161.621 609.863 -174.805 615.234 -189.941 615.234 c 0
 -203.125 615.234 -214.844 610.84 -225.098 602.539 c 0
 -234.863 594.238 -241.211 583.496 -244.141 570.801 c 1
 -259.277 577.148 -274.902 580.078 -290.039 580.078 c 0
 -317.383 580.078 -340.332 574.219 -358.887 562.988 c 0
 -367.676 557.617 -376.465 549.316 -386.23 538.574 c 0
 -395.508 527.344 -399.902 516.113 -399.902 504.883 c 0
 -399.902 501.465 -398.926 497.559 -396.484 493.164 c 0
 -394.043 488.281 -391.113 484.863 -388.184 481.934 c 0
 -378.906 475.098 -363.281 472.168 -341.797 472.168 c 0
 -336.426 472.656 -330.566 473.145 -323.242 473.145 c 0
 -315.43 473.145 -309.57 473.145 -304.199 473.145 c 0
 -290.527 473.145 -277.344 472.168 -264.648 470.215 c 0
 -251.465 467.773 -239.746 465.332 -229.004 461.914 c 0
 -211.426 457.52 -194.824 451.66 -178.711 444.824 c 0
 -162.109 438.477 -147.461 430.664 -134.766 421.875 c 1
-160.156 456.055 m 1
 -172.852 463.867 -185.547 471.191 -198.73 477.051 c 0
 -211.426 482.91 -225.586 487.793 -241.211 491.211 c 0
 -252.441 493.652 -262.695 495.605 -272.461 497.07 c 0
 -282.227 498.535 -293.457 499.023 -307.129 499.023 c 0
 -315.43 499.023 -324.219 500 -333.008 501.465 c 0
 -341.797 502.93 -346.191 507.812 -346.191 515.137 c 0
 -346.191 520.996 -344.238 525.879 -339.844 529.785 c 0
 -335.938 534.18 -331.055 537.109 -325.195 539.062 c 0
 -318.848 541.016 -312.5 542.48 -305.176 543.457 c 0
 -297.852 544.434 -291.016 544.922 -285.156 544.922 c 0
 -270.508 544.922 -256.348 541.992 -242.676 535.645 c 0
 -229.004 529.297 -216.309 521.484 -204.59 512.695 c 0
 -192.871 503.418 -183.105 493.652 -175.293 483.398 c 0
 -167.969 473.145 -162.598 463.867 -160.156 456.055 c 1
-220.215 560.059 m 0
 -220.215 568.848 -217.285 575.684 -211.426 581.543 c 0
 -206.055 587.402 -198.73 589.844 -189.941 589.844 c 0
 -181.152 589.844 -174.316 587.402 -168.457 581.543 c 0
 -162.598 575.684 -160.156 568.848 -160.156 560.059 c 0
 -160.156 551.27 -162.598 543.945 -168.457 538.574 c 0
 -174.316 532.715 -181.152 529.785 -189.941 529.785 c 0
 -198.73 529.785 -206.055 532.715 -211.426 538.574 c 0
 -217.285 543.945 -220.215 551.27 -220.215 560.059 c 0
EndSplineSet
Fore
-135 422 m 1
 -160 439 -194 453 -229 462 c 1
 -250 469 -277 473 -304 473 c 2
 -323 473 l 2
 -330 473 -337 473 -342 472 c 0
 -363 472 -379 475 -388 482 c 0
 -395 487 -400 498 -400 505 c 0
 -400 528 -376 552 -359 563 c 0
 -340 574 -317 580 -290 580 c 0
 -275 580 -259 577 -244 571 c 1
 -239 596 -217 615 -190 615 c 0
 -159 615 -135 591 -135 560 c 0
 -135 539 -146 520 -165 511 c 1
 -145 485 -135 455 -135 422 c 1
-160 456 m 1
 -171 488 -227 545 -285 545 c 0
 -310 545 -346 539 -346 515 c 0
 -346 500 -324 499 -307 499 c 0
 -280 499 -264 496 -241 491 c 0
 -210 484 -185 472 -160 456 c 1
-220 560 m 0
 -220 543 -207 530 -190 530 c 0
 -173 530 -160 543 -160 560 c 0
 -160 577 -173 590 -190 590 c 0
 -207 590 -220 577 -220 560 c 0
EndSplineSet
EndChar
StartChar: uni0E37.left
Encoding: 132 63236 99
Width: 0
Flags: MW
Back
-149.902 615.234 m 1
 -185.059 615.234 l 1
 -185.059 534.18 l 1
 -192.383 540.527 -200.684 546.875 -209.961 553.223 c 1
 -209.961 615.234 l 1
 -245.117 615.234 l 1
 -245.117 570.801 l 1
 -260.254 577.148 -275.391 580.078 -290.039 580.078 c 0
 -317.383 580.078 -340.332 574.219 -358.887 562.988 c 0
 -367.676 557.617 -376.465 549.316 -386.23 538.574 c 0
 -395.508 527.344 -399.902 516.113 -399.902 504.883 c 0
 -399.902 501.465 -398.926 497.559 -396.484 493.164 c 0
 -394.043 488.281 -391.113 484.863 -388.184 481.934 c 0
 -378.906 475.098 -363.281 472.168 -341.797 472.168 c 0
 -336.426 472.656 -330.566 473.145 -323.242 473.145 c 0
 -315.43 473.145 -309.57 473.145 -304.199 473.145 c 0
 -290.527 473.145 -277.344 472.168 -264.648 470.215 c 0
 -251.465 467.773 -239.746 465.332 -229.004 461.914 c 0
 -211.426 457.52 -194.824 451.66 -178.711 444.824 c 0
 -162.109 438.477 -147.461 430.664 -134.766 421.875 c 1
 -134.766 444.824 -140.137 465.82 -149.902 485.84 c 1
 -149.902 615.234 l 1
-160.156 456.055 m 1
 -172.852 463.867 -185.547 471.191 -198.73 477.051 c 0
 -211.426 482.91 -225.586 487.793 -241.211 491.211 c 0
 -252.441 493.652 -262.695 495.605 -272.461 497.07 c 0
 -282.227 498.535 -293.457 499.023 -307.129 499.023 c 0
 -315.43 499.023 -324.219 500 -333.008 501.465 c 0
 -341.797 502.93 -346.191 507.812 -346.191 515.137 c 0
 -346.191 520.996 -344.238 525.879 -339.844 529.785 c 0
 -335.938 534.18 -331.055 537.109 -325.195 539.062 c 0
 -318.848 541.016 -312.5 542.48 -305.176 543.457 c 0
 -297.852 544.434 -291.016 544.922 -285.156 544.922 c 0
 -270.508 544.922 -256.348 541.992 -242.676 535.645 c 0
 -229.004 529.297 -216.309 521.484 -204.59 512.695 c 0
 -192.871 503.418 -183.105 493.652 -175.293 483.398 c 0
 -167.969 473.145 -162.598 463.867 -160.156 456.055 c 1
EndSplineSet
Fore
-150 615 m 1
 -150 486 l 1
 -140 466 -135 445 -135 422 c 1
 -160 439 -194 453 -229 462 c 1
 -250 469 -277 473 -304 473 c 2
 -323 473 l 2
 -330 473 -337 473 -342 472 c 0
 -363 472 -379 475 -388 482 c 0
 -395 487 -400 498 -400 505 c 0
 -400 528 -376 552 -359 563 c 0
 -340 574 -317 580 -290 580 c 0
 -275 580 -260 577 -245 571 c 1
 -245 615 l 1
 -210 615 l 1
 -210 553 l 1
 -201 547 -192 541 -185 534 c 1
 -185 615 l 1
 -150 615 l 1
-160 456 m 1
 -171 488 -227 545 -285 545 c 0
 -310 545 -346 539 -346 515 c 0
 -346 500 -324 499 -307 499 c 0
 -280 499 -264 496 -241 491 c 0
 -210 484 -185 472 -160 456 c 1
EndSplineSet
EndChar
StartChar: ellipsis
Encoding: 133 8230 100
Width: 682
Flags: HMW
HStem: -8 76<109 119 338 342 567 569>
VStem: 76 76<25 36> 303 76<25 36> 531 76<25 36>
Fore
113 68 m 0
 134 68 152 51 152 29 c 0
 152 10 134 -8 113 -8 c 0
 93 -8 76 10 76 29 c 0
 76 51 93 68 113 68 c 0
341 68 m 0
 361 68 379 51 379 29 c 0
 379 10 361 -8 340 -8 c 0
 320 -8 303 10 303 29 c 0
 303 51 320 68 341 68 c 0
568 68 m 0
 589 68 606 51 606 29 c 0
 606 10 589 -8 567 -8 c 0
 548 -8 531 10 531 29 c 0
 531 51 548 68 568 68 c 0
EndSplineSet
EndChar
StartChar: uni0E48.low_left
Encoding: 134 63237 101
Width: 0
Flags: HMW
DStem: -213 597 -163 597 -210 537 -167 537
Back
-163.086 597.168 m 1
 -166.992 537.109 l 1
 -178.223 454.102 l 1
 -179.199 448.242 -183.105 444.824 -188.965 444.824 c 0
 -194.824 444.824 -198.73 448.242 -200.195 454.102 c 1
 -209.961 537.109 l 1
 -212.891 597.168 l 1
 -163.086 597.168 l 1
EndSplineSet
Ref: 139 63242 N 1 0 0 1 -80 0.333313
EndChar
StartChar: uni0E49.low_left
Encoding: 135 63238 102
Width: 0
Flags: HMW
Back
-145.02 603.027 m 1
 -145.02 552.246 -162.598 512.695 -198.242 483.887 c 0
 -213.379 472.168 -229.492 462.402 -246.094 455.566 c 0
 -262.695 448.73 -281.738 444.824 -303.223 444.824 c 2
 -356.934 444.824 l 1
 -356.934 462.891 l 1
 -334.473 464.844 -316.895 476.562 -304.199 497.07 c 1
 -311.035 496.094 l 2
 -338.867 496.094 -353.027 514.16 -353.027 549.805 c 0
 -353.027 563.477 -349.121 575.684 -341.309 586.426 c 0
 -333.984 597.656 -323.73 603.027 -311.035 603.027 c 0
 -298.828 603.027 -289.062 597.656 -280.762 586.914 c 0
 -272.949 576.172 -269.043 564.453 -269.043 550.781 c 0
 -269.043 513.184 -280.762 485.352 -305.176 467.773 c 1
 -266.113 467.773 -237.793 481.445 -220.215 507.812 c 0
 -211.426 520.02 -204.59 533.691 -200.195 549.316 c 0
 -195.312 564.941 -192.871 583.008 -192.871 603.027 c 1
 -145.02 603.027 l 1
-289.062 549.805 m 0
 -289.062 559.57 -291.016 567.383 -294.434 573.73 c 0
 -298.34 579.59 -303.711 583.008 -311.035 583.008 c 0
 -326.172 583.008 -333.984 571.777 -333.984 549.805 c 0
 -333.984 526.855 -326.172 515.137 -311.035 515.137 c 0
 -296.387 515.137 -289.062 526.855 -289.062 549.805 c 0
EndSplineSet
Ref: 140 63243 N 1 0 0 1 -108 -0.5
EndChar
StartChar: uni0E4A.low_left
Encoding: 136 63239 103
Width: 0
Flags: HMW
Back
-141.113 582.031 m 1
 -141.113 489.258 -184.57 442.871 -271.973 442.871 c 1
 -271.973 462.891 l 1
 -260.742 465.82 -250.488 472.656 -242.188 483.398 c 0
 -233.398 494.629 -229.004 506.348 -229.004 519.043 c 0
 -229.004 544.434 -238.281 557.129 -256.836 557.129 c 0
 -274.414 557.129 -283.203 542.48 -283.203 514.16 c 1
 -301.758 514.16 l 1
 -301.758 542.48 -312.012 557.129 -332.031 557.129 c 0
 -338.867 557.129 -345.215 554.199 -351.074 547.852 c 1
 -339.844 547.852 -331.055 542.969 -325.684 533.691 c 0
 -319.824 523.926 -316.895 511.719 -316.895 497.07 c 0
 -316.895 462.402 -331.055 444.824 -358.887 444.824 c 0
 -370.117 444.824 -380.371 450.684 -388.672 461.426 c 0
 -396.973 472.656 -400.879 484.375 -400.879 497.07 c 0
 -400.879 512.207 -397.949 526.367 -392.09 539.062 c 0
 -386.719 548.828 -379.395 558.105 -370.605 566.406 c 0
 -361.328 574.707 -348.633 579.102 -332.031 579.102 c 0
 -314.453 579.102 -301.758 569.824 -292.969 550.781 c 1
 -291.016 559.082 -286.621 565.43 -279.785 570.801 c 0
 -273.438 576.172 -266.113 579.102 -258.789 579.102 c 0
 -222.168 579.102 -204.102 559.57 -204.102 520.02 c 0
 -204.102 495.117 -212.402 476.562 -229.004 463.867 c 1
 -198.242 476.074 -183.105 502.93 -183.105 544.922 c 2
 -183.105 562.012 l 1
 -185.059 582.031 l 1
 -141.113 582.031 l 1
-334.961 497.07 m 0
 -334.961 507.812 -336.914 516.113 -340.82 522.461 c 0
 -345.215 528.809 -351.074 532.227 -358.887 532.227 c 0
 -366.211 532.227 -372.07 528.32 -375.977 520.996 c 0
 -379.883 513.672 -381.836 505.859 -381.836 497.07 c 0
 -381.836 486.816 -379.883 478.516 -375.977 472.168 c 0
 -372.07 465.332 -366.211 461.914 -358.887 461.914 c 0
 -342.773 461.914 -334.961 473.633 -334.961 497.07 c 0
EndSplineSet
Ref: 141 63244 N 1 0 0 1 -112 0
EndChar
StartChar: uni0E4B.low_left
Encoding: 137 63240 104
Width: 0
Flags: HMW
HStem: 508 32<-322 -262 -212 -153>
DStem: -266 603 -209 603 -263 540 -212 540 -262 508 -213 508 -259 445 -216 445
Back
-266.113 603.027 m 1
 -263.184 540.039 l 1
 -321.777 540.039 l 1
 -321.777 507.812 l 1
 -262.207 507.812 l 1
 -258.789 444.824 l 1
 -215.82 444.824 l 1
 -212.891 507.812 l 1
 -152.832 507.812 l 1
 -152.832 540.039 l 1
 -211.914 540.039 l 1
 -208.984 603.027 l 1
 -266.113 603.027 l 1
EndSplineSet
Ref: 142 63245 N 1 0 0 1 -102 -40
EndChar
StartChar: uni0E4C.low_left
Encoding: 138 63241 105
Width: 0
Flags: HMW
Back
-198.242 506.836 m 1
 -198.242 506.836 -198.242 509.277 -199.219 514.648 c 0
 -199.707 519.531 -200.684 524.414 -202.148 528.809 c 0
 -207.52 538.574 -214.355 542.969 -223.145 542.969 c 0
 -229.492 542.969 -235.352 540.039 -240.234 534.18 c 0
 -244.629 527.832 -247.07 519.043 -247.07 506.836 c 0
 -247.07 480.957 -238.77 467.773 -223.145 467.773 c 0
 -220.215 467.773 -217.285 469.238 -213.379 471.191 c 0
 -209.961 473.145 -206.543 475.586 -203.125 479.004 c 0
 -201.172 482.91 -199.707 487.793 -199.219 493.164 c 0
 -198.242 498.535 -198.242 502.93 -198.242 506.836 c 1
-209.961 563.965 m 1
 -186.523 558.105 -174.805 538.574 -174.805 505.859 c 0
 -174.805 490.234 -179.688 476.074 -188.965 463.379 c 0
 -198.242 451.172 -210.449 444.824 -225.098 444.824 c 0
 -242.188 444.824 -256.836 451.172 -269.043 462.891 c 0
 -280.762 475.098 -287.109 489.746 -287.109 506.836 c 0
 -287.109 530.273 -278.809 549.316 -262.695 564.453 c 0
 -246.094 579.59 -221.68 591.797 -188.965 601.074 c 0
 -171.875 606.445 -159.18 612.305 -151.855 619.141 c 0
 -144.531 625.488 -142.578 636.23 -145.996 649.902 c 1
 -103.027 660.156 l 1
 -102.539 656.738 -102.051 651.855 -102.051 645.02 c 0
 -102.051 634.277 -105.469 625 -111.816 617.188 c 0
 -118.652 608.887 -131.348 601.562 -149.902 595.215 c 0
 -161.133 590.82 -172.852 585.938 -184.57 580.566 c 0
 -196.289 574.707 -204.59 569.336 -209.961 563.965 c 1
EndSplineSet
Fore
-198 507 m 1
 -198 507 -199 520 -202 529 c 1
 -207 538 -214 543 -223 543 c 0
 -236 543 -247 531 -247 507 c 0
 -247 481 -239 468 -223 468 c 0
 -218 468 -210 472 -203 479 c 1
 -199 487 -198 499 -198 507 c 1
-210 564 m 1
 -187 558 -175 539 -175 506 c 0
 -175 474 -196 445 -225 445 c 0
 -260 445 -287 472 -287 507 c 0
 -287 554 -254 582 -189 601 c 0
 -154 612 -139 622 -146 650 c 1
 -103 660 l 1
 -102 657 -102 652 -102 645 c 0
 -102 624 -113 608 -150 595 c 0
 -173 587 -199 575 -210 564 c 1
EndSplineSet
EndChar
StartChar: uni0E48.low
Encoding: 139 63242 106
Width: 0
Flags: MW
DStem: -133 597 -83 597 -130 537 -87 537
Back
-83.0078 597.168 m 1
 -86.9141 537.109 l 1
 -98.1445 454.102 l 1
 -99.1211 448.242 -103.027 444.824 -108.887 444.824 c 0
 -115.234 444.824 -118.652 448.242 -120.117 454.102 c 1
 -129.883 537.109 l 1
 -132.812 597.168 l 1
 -83.0078 597.168 l 1
EndSplineSet
Fore
-83 597 m 1
 -87 537 l 1
 -98 454 l 1
 -99 448 -103 445 -109 445 c 0
 -115 445 -119 448 -120 454 c 1
 -130 537 l 1
 -133 597 l 1
 -83 597 l 1
EndSplineSet
EndChar
StartChar: uni0E49.low
Encoding: 140 63243 107
Width: 0
Flags: MW
Back
-37.1094 603.027 m 1
 -37.1094 552.246 -54.6875 512.695 -89.8438 483.887 c 0
 -105.469 472.168 -121.094 462.402 -138.184 455.566 c 0
 -154.785 448.73 -173.828 444.824 -194.824 444.824 c 2
 -249.023 444.824 l 1
 -249.023 462.891 l 1
 -226.562 464.844 -208.496 476.562 -195.801 497.07 c 1
 -203.125 496.094 l 2
 -230.957 496.094 -245.117 514.16 -245.117 549.805 c 0
 -245.117 563.477 -241.211 575.684 -233.398 586.426 c 0
 -226.074 597.656 -215.82 603.027 -203.125 603.027 c 0
 -190.918 603.027 -181.152 597.656 -172.852 586.914 c 0
 -165.039 576.172 -161.133 564.453 -161.133 550.781 c 0
 -161.133 513.184 -172.852 485.352 -196.777 467.773 c 1
 -158.203 467.773 -129.883 481.445 -111.816 507.812 c 0
 -103.516 520.02 -96.6797 533.691 -91.7969 549.316 c 0
 -87.4023 564.941 -84.9609 583.008 -84.9609 603.027 c 1
 -37.1094 603.027 l 1
-181.152 549.805 m 0
 -181.152 559.57 -182.617 567.383 -186.523 573.73 c 0
 -189.941 579.59 -195.801 583.008 -203.125 583.008 c 0
 -218.262 583.008 -226.074 571.777 -226.074 549.805 c 0
 -226.074 526.855 -218.262 515.137 -203.125 515.137 c 0
 -188.477 515.137 -181.152 526.855 -181.152 549.805 c 0
EndSplineSet
Fore
-37 603 m 1
 -37 552 -55 513 -90 484 c 0
 -121 460 -152 445 -195 445 c 2
 -249 445 l 1
 -249 463 l 1
 -226 465 -209 476 -196 497 c 1
 -203 496 l 2
 -231 496 -245 514 -245 550 c 0
 -245 577 -228 603 -203 603 c 0
 -179 603 -161 578 -161 551 c 0
 -161 513 -173 485 -197 468 c 1
 -158 468 -130 481 -112 508 c 0
 -95 532 -85 563 -85 603 c 1
 -37 603 l 1
-181 550 m 0
 -181 569 -188 583 -203 583 c 0
 -218 583 -226 572 -226 550 c 0
 -226 527 -218 515 -203 515 c 0
 -188 515 -181 527 -181 550 c 0
EndSplineSet
EndChar
StartChar: uni0E4A.low
Encoding: 141 63244 108
Width: 0
Flags: MW
Back
-28.8086 582.031 m 1
 -28.8086 489.258 -72.7539 442.871 -160.156 442.871 c 1
 -160.156 462.891 l 1
 -148.438 465.82 -138.672 472.656 -129.883 483.398 c 0
 -121.094 494.629 -117.188 506.348 -117.188 519.043 c 0
 -117.188 544.434 -126.465 557.129 -145.02 557.129 c 0
 -162.109 557.129 -170.898 542.48 -170.898 514.16 c 1
 -189.941 514.16 l 1
 -189.941 542.48 -200.195 557.129 -220.215 557.129 c 0
 -226.562 557.129 -232.91 554.199 -238.77 547.852 c 1
 -227.539 547.852 -219.238 542.969 -213.379 533.691 c 0
 -208.008 523.926 -205.078 511.719 -205.078 497.07 c 0
 -205.078 462.402 -219.238 444.824 -247.07 444.824 c 0
 -258.301 444.824 -268.066 450.684 -276.367 461.426 c 0
 -284.668 472.656 -289.062 484.375 -289.062 497.07 c 0
 -289.062 504.395 -288.574 511.719 -287.109 518.555 c 0
 -285.645 525.391 -283.203 532.227 -279.785 539.062 c 0
 -274.902 550.293 -267.578 560.059 -258.301 567.871 c 0
 -249.512 576.172 -236.816 580.078 -220.215 580.078 c 0
 -203.125 580.078 -190.43 570.312 -181.152 550.781 c 1
 -179.199 559.082 -175.293 565.43 -169.434 570.801 c 0
 -164.062 576.172 -156.25 579.102 -146.973 579.102 c 0
 -110.352 579.102 -91.7969 559.57 -91.7969 520.02 c 0
 -91.7969 495.117 -100.098 476.562 -117.188 463.867 c 1
 -86.4258 476.074 -70.8008 502.93 -70.8008 544.922 c 2
 -70.8008 562.012 l 1
 -73.2422 582.031 l 1
 -28.8086 582.031 l 1
-223.145 497.07 m 0
 -223.145 507.812 -225.098 516.113 -229.004 522.461 c 0
 -232.91 528.809 -238.77 532.227 -247.07 532.227 c 0
 -254.395 532.227 -259.766 528.32 -264.16 520.996 c 0
 -268.066 513.672 -270.02 505.859 -270.02 497.07 c 0
 -270.02 486.816 -268.066 478.516 -264.16 472.168 c 0
 -259.766 465.332 -254.395 461.914 -247.07 461.914 c 0
 -230.957 461.914 -223.145 473.633 -223.145 497.07 c 0
EndSplineSet
Fore
-29 582 m 1
 -29 489 -73 443 -160 443 c 1
 -160 463 l 1
 -137 468 -117 494 -117 519 c 0
 -117 544 -126 557 -145 557 c 0
 -162 557 -171 543 -171 514 c 1
 -190 514 l 1
 -190 543 -200 557 -220 557 c 0
 -227 557 -233 554 -239 548 c 1
 -216 548 -205 526 -205 497 c 0
 -205 462 -219 445 -247 445 c 0
 -270 445 -289 472 -289 497 c 0
 -289 512 -287 526 -280 539 c 0
 -269 562 -253 580 -220 580 c 0
 -203 580 -190 570 -181 551 c 1
 -177 567 -166 579 -147 579 c 0
 -110 579 -92 559 -92 520 c 0
 -92 495 -100 477 -117 464 c 1
 -86 476 -71 503 -71 545 c 2
 -71 562 l 1
 -73 582 l 1
 -29 582 l 1
-223 497 m 0
 -223 518 -231 532 -247 532 c 0
 -262 532 -270 514 -270 497 c 0
 -270 477 -262 462 -247 462 c 0
 -231 462 -223 474 -223 497 c 0
EndSplineSet
EndChar
StartChar: uni0E4B.low
Encoding: 142 63245 109
Width: 0
Flags: MW
HStem: 548 32<-220 -160 -110 -51>
DStem: -164 643 -107 643 -161 580 -110 580 -160 548 -111 548 -157 485 -114 485
Back
-164.062 643.066 m 1
 -161.133 580.078 l 1
 -220.215 580.078 l 1
 -220.215 547.852 l 1
 -160.156 547.852 l 1
 -157.227 484.863 l 1
 -113.77 484.863 l 1
 -110.84 547.852 l 1
 -50.7812 547.852 l 1
 -50.7812 580.078 l 1
 -109.863 580.078 l 1
 -106.934 643.066 l 1
 -164.062 643.066 l 1
EndSplineSet
Fore
-164 643 m 1
 -107 643 l 1
 -110 580 l 1
 -51 580 l 1
 -51 548 l 1
 -111 548 l 1
 -114 485 l 1
 -157 485 l 1
 -160 548 l 1
 -220 548 l 1
 -220 580 l 1
 -161 580 l 1
 -164 643 l 1
EndSplineSet
EndChar
StartChar: uni0E4C.low
Encoding: 143 63246 110
Width: 0
Flags: MW
Back
-170.898 513.184 m 1
 -170.898 513.184 -171.387 515.625 -171.875 521.484 c 0
 -172.852 527.344 -173.828 532.227 -175.781 537.109 c 0
 -182.129 547.852 -189.453 553.223 -199.219 553.223 c 0
 -206.543 553.223 -212.891 549.805 -217.773 542.969 c 0
 -223.145 536.133 -226.074 526.367 -226.074 513.184 c 0
 -226.074 484.863 -216.797 471.191 -199.219 471.191 c 0
 -195.801 471.191 -191.895 472.168 -187.988 474.121 c 0
 -184.082 476.074 -180.176 479.004 -176.758 482.91 c 0
 -174.316 486.816 -172.852 492.188 -171.875 498.047 c 0
 -171.387 503.906 -170.898 508.789 -170.898 513.184 c 1
-184.082 576.172 m 1
 -158.203 569.824 -145.02 548.828 -145.02 512.207 c 0
 -145.02 494.629 -150.391 479.004 -160.645 465.332 c 0
 -170.898 451.66 -184.57 444.824 -201.172 444.824 c 0
 -220.215 444.824 -236.328 451.66 -249.512 464.355 c 0
 -262.695 477.539 -269.043 493.652 -269.043 513.184 c 0
 -269.043 564.453 -232.91 599.121 -161.133 618.164 c 0
 -141.602 623.535 -127.93 629.883 -120.117 637.207 c 0
 -111.816 644.531 -109.863 655.762 -113.77 670.898 c 1
 -65.918 682.129 l 1
 -65.4297 679.199 -64.9414 676.758 -64.9414 673.828 c 0
 -64.9414 671.387 -64.9414 668.457 -64.9414 666.016 c 0
 -64.9414 654.785 -68.8477 644.531 -76.1719 634.766 c 0
 -83.4961 625.488 -97.6562 617.188 -119.141 609.863 c 0
 -130.859 605.957 -143.555 601.074 -155.762 594.727 c 0
 -168.457 588.379 -178.223 582.031 -184.082 576.172 c 1
EndSplineSet
Fore
-171 513 m 1
 -171 513 -172 528 -176 537 c 0
 -182 548 -190 553 -199 553 c 0
 -214 553 -226 540 -226 513 c 0
 -226 485 -217 471 -199 471 c 0
 -192 471 -184 475 -177 483 c 1
 -172 491 -171 505 -171 513 c 1
-184 576 m 1
 -158 570 -145 549 -145 512 c 0
 -145 477 -168 445 -201 445 c 0
 -240 445 -269 474 -269 513 c 0
 -269 564 -233 599 -161 618 c 0
 -122 629 -106 640 -114 671 c 1
 -66 682 l 1
 -65 679 -65 677 -65 674 c 2
 -65 666 l 2
 -65 643 -76 625 -119 610 c 0
 -143 602 -172 588 -184 576 c 1
EndSplineSet
EndChar
StartChar: uni0E0D.descless
Encoding: 144 63247 111
Width: 545
Flags: W
HStem: -6 21G<96.5 137.5> 0 19<325 431> 90 20<137 143> 293 17<30 65> 352 33<157 191> 358 20G<423 475>
VStem: 53 52<62 209> 53 55<48 62> 163 16<51 62> 274 52<0 268> 423 52<55 378>
Back
475.098 55.1758 m 2
 475.098 18.5547 460.449 0 431.152 0 c 2
 273.926 0 l 1
 273.926 256.836 l 2
 273.926 285.156 264.648 307.617 245.605 325.684 c 0
 226.562 343.262 203.125 352.051 174.805 352.051 c 0
 127.441 352.051 90.8203 337.891 64.9414 310.059 c 1
 99.1211 310.059 126.953 295.41 148.926 266.113 c 1
 135.742 262.207 125 255.371 117.188 245.605 c 0
 108.887 235.84 104.98 223.145 104.98 207.031 c 2
 104.98 94.2383 l 1
 108.887 99.1211 113.281 103.516 118.652 105.957 c 0
 123.535 108.887 129.883 109.863 137.207 109.863 c 0
 148.438 109.863 158.203 104.98 166.504 95.2148 c 0
 174.805 84.9609 179.199 70.3125 179.199 50.7812 c 0
 179.199 13.1836 158.203 -5.85938 117.188 -5.85938 c 0
 96.1914 -5.85938 80.5664 0 69.3359 12.207 c 0
 58.5938 23.9258 53.2227 40.5273 53.2227 62.0117 c 2
 53.2227 193.848 l 2
 53.2227 234.863 72.7539 261.23 111.816 272.949 c 1
 94.7266 286.133 67.3828 292.969 29.7852 292.969 c 1
 37.1094 319.824 57.1289 341.797 88.8672 359.863 c 0
 116.211 376.465 145.508 384.766 175.781 384.766 c 0
 275.879 384.766 326.172 342.285 326.172 256.836 c 2
 326.172 19.043 l 1
 387.207 19.043 l 2
 396.973 19.043 405.273 21.9727 412.598 27.832 c 0
 419.434 34.1797 422.852 42.9688 422.852 55.1758 c 2
 422.852 377.93 l 1
 475.098 377.93 l 1
 475.098 55.1758 l 2
163.086 50.7812 m 0
 163.086 62.5 160.156 71.7773 154.785 79.1016 c 0
 149.902 86.4258 143.555 89.8438 137.207 89.8438 c 0
 130.371 89.8438 124.023 86.4258 117.676 79.1016 c 0
 111.328 71.7773 107.91 62.0117 107.91 49.8047 c 0
 107.91 42.4805 110.352 34.668 115.234 25.8789 c 0
 119.629 17.0898 126.953 13.1836 137.207 13.1836 c 0
 143.555 13.1836 149.902 16.1133 154.785 22.9492 c 0
 160.156 29.7852 163.086 39.0625 163.086 50.7812 c 0
EndSplineSet
Fore
475 55 m 2x76e0
 475 18 460 0 431 0 c 2
 274 0 l 1x76e0
 274 257 l 2
 274 313 231 352 175 352 c 0
 128 352 91 338 65 310 c 1
 99 310 127 295 149 266 c 1
 122 258 105 239 105 207 c 2
 105 94 l 1
 113 105 122 110 137 110 c 0
 160 110 179 90 179 51 c 0
 179 13 158 -6 117 -6 c 0
 76 -6 53 19 53 62 c 2
 53 194 l 2
 53 235 73 261 112 273 c 1
 95 286 67 293 30 293 c 1
 37 320 57 342 89 360 c 0
 116 377 145 385 176 385 c 0xbae0
 276 385 326 342 326 257 c 2
 326 19 l 1
 387 19 l 2
 407 19 423 31 423 55 c 2
 423 378 l 1
 475 378 l 1
 475 55 l 2x76e0
163 51 m 0
 163 74 150 90 137 90 c 0
 124 90 108 74 108 50 c 0x31e0
 108 35 117 13 137 13 c 0
 150 13 163 27 163 51 c 0
EndSplineSet
EndChar
StartChar: quoteleft
Encoding: 145 8216 112
Width: 227
Flags: HMW
HStem: 296 74<125 135>
VStem: 79 95<335 356>
Fore
155 462 m 1
 161 449 l 1
 124 423 105 399 105 376 c 0
 105 371 109 367 115 367 c 0
 115 367 115 367 120 368 c 0
 124 369 129 369 133 369 c 0
 158 369 173 356 173 335 c 0
 173 311 157 296 133 296 c 0
 102 296 79 322 79 356 c 0
 79 397 109 439 155 462 c 1
EndSplineSet
KernsSLIF: 65 -54 0 0 386 -50 0 0 145 -50 0 0
EndChar
StartChar: quoteright
Encoding: 146 8217 113
Width: 227
Flags: HMW
HStem: 388 74<87 98>
VStem: 54 95<401 423>
Fore
72 296 m 1
 66 309 l 1
 103 334 122 358 122 381 c 0
 122 386 118 391 113 391 c 0
 112 391 112 391 107 389 c 0
 103 389 98 388 94 388 c 0
 70 388 54 401 54 423 c 0
 54 446 70 462 94 462 c 0
 125 462 149 435 149 401 c 0
 149 360 118 318 72 296 c 1
EndSplineSet
KernsSLIF: 146 -50 0 0 100 -34 0 0 108 -6 0 0 114 -34 0 0 115 -37 0 0 32 -50 0 0 116 -12 0 0 118 -34 0 0
EndChar
StartChar: quotedblleft
Encoding: 147 8220 114
Width: 303
Flags: HMW
HStem: 296 74<75 85 237 248>
VStem: 29 95<335 356> 188 95<335 356>
Fore
106 462 m 1
 112 449 l 1
 75 423 56 399 56 376 c 0
 56 371 60 367 66 367 c 0
 66 367 66 367 71 368 c 0
 75 369 80 369 84 369 c 0
 109 369 124 356 124 335 c 0
 124 311 108 296 84 296 c 0
 53 296 29 322 29 356 c 0
 29 397 60 439 106 462 c 1
264 462 m 1
 270 449 l 1
 234 423 214 399 214 376 c 0
 214 371 218 367 224 367 c 0
 225 367 225 367 229 368 c 0
 234 369 238 369 242 369 c 0
 267 369 283 356 283 335 c 0
 283 311 266 296 242 296 c 0
 212 296 188 322 188 356 c 0
 188 397 218 439 264 462 c 1
EndSplineSet
KernsSLIF: 65 -54 0 0 386 -37 0 0
EndChar
StartChar: quotedblright
Encoding: 148 8221 115
Width: 303
Flags: HMW
HStem: 388 74<53 64 217 221>
VStem: 20 95<401 423> 179 95<401 423>
Fore
39 296 m 1
 33 309 l 1
 70 334 89 359 89 381 c 0
 89 386 85 391 79 391 c 0
 79 391 79 391 74 389 c 0
 70 389 65 388 61 388 c 0
 36 388 20 401 20 423 c 0
 20 446 37 462 61 462 c 0
 91 462 115 435 115 401 c 0
 115 360 85 318 39 296 c 1
197 296 m 1
 191 309 l 1
 228 334 247 359 247 381 c 0
 247 386 243 391 238 391 c 0
 237 391 237 391 232 389 c 0
 228 389 223 388 219 388 c 0
 194 388 179 401 179 423 c 0
 179 446 195 462 219 462 c 0
 250 462 274 435 274 401 c 0
 274 360 243 318 197 296 c 1
EndSplineSet
EndChar
StartChar: bullet
Encoding: 149 8226 116
Width: 238
Flags: HMW
HStem: 134 184<115 126>
VStem: 27 184<221 232>
Fore
119 318 m 0
 171 318 212 277 212 225 c 0
 212 175 170 134 119 134 c 0
 68 134 27 175 27 227 c 0
 27 277 68 318 119 318 c 0
EndSplineSet
EndChar
StartChar: endash
Encoding: 150 8211 117
Width: 341
Flags: HMW
HStem: 137 33<1 341>
VStem: 0 341<138 170>
Fore
0 171 m 1
 341 171 l 1
 341 137 l 1
 0 137 l 1
 0 171 l 1
EndSplineSet
EndChar
StartChar: emdash
Encoding: 151 8212 118
Width: 682
Flags: HMW
HStem: 137 33<1 682>
VStem: 0 683<138 170>
Fore
0 171 m 1
 683 171 l 1
 683 137 l 1
 0 137 l 1
 0 171 l 1
EndSplineSet
EndChar
StartChar: uni0E31.left
Encoding: 152 63248 119
Width: 0
Flags: MW
Back
27.832 569.824 m 1
 27.832 524.902 15.1367 487.305 -11.2305 458.008 c 0
 -17.5781 450.684 -25.8789 444.336 -36.1328 438.477 c 0
 -45.8984 432.617 -56.6406 428.223 -68.3594 424.316 c 0
 -80.0781 420.898 -92.2852 417.969 -104.492 416.016 c 0
 -116.699 414.062 -128.418 413.086 -139.16 413.086 c 0
 -153.809 413.086 -169.922 415.039 -187.5 418.945 c 0
 -205.078 422.852 -219.238 428.711 -229.98 436.035 c 0
 -253.418 453.125 -265.137 476.562 -265.137 504.883 c 0
 -265.137 548.34 -244.141 569.824 -203.125 569.824 c 0
 -172.363 569.824 -157.227 550.781 -157.227 513.184 c 0
 -157.227 498.535 -161.133 484.863 -168.945 473.145 c 0
 -176.758 460.938 -187.988 455.078 -202.148 455.078 c 1
 -210.938 457.031 l 1
 -204.102 449.707 -193.359 444.336 -178.711 440.918 c 0
 -163.574 437.5 -149.414 436.035 -136.23 436.035 c 0
 -120.605 436.035 -103.516 439.941 -84.9609 448.242 c 0
 -66.4062 456.055 -52.7344 467.773 -43.9453 482.91 c 0
 -29.2969 507.812 -21.9727 536.621 -21.9727 569.824 c 1
 27.832 569.824 l 1
-178.223 513.184 m 0
 -178.223 522.949 -180.176 531.25 -184.082 537.598 c 0
 -187.988 543.945 -193.848 546.875 -202.148 546.875 c 0
 -217.773 546.875 -226.074 535.645 -226.074 513.184 c 0
 -226.074 488.77 -217.773 477.051 -202.148 477.051 c 0
 -195.801 477.051 -190.43 480.469 -185.059 487.793 c 0
 -183.105 491.211 -181.641 495.117 -180.664 499.512 c 0
 -179.688 503.906 -178.711 508.301 -178.223 513.184 c 0
EndSplineSet
Fore
28 570 m 1
 28 525 15 487 -11 458 c 0
 -38 429 -95 413 -139 413 c 0
 -168 413 -209 421 -230 436 c 0
 -253 453 -265 476 -265 505 c 0
 -265 548 -244 570 -203 570 c 0
 -172 570 -157 551 -157 513 c 0
 -157 484 -174 455 -202 455 c 1
 -211 457 l 1
 -198 442 -163 436 -136 436 c 0
 -105 436 -61 452 -44 483 c 0
 -29 508 -22 537 -22 570 c 1
 28 570 l 1
-178 513 m 0
 -178 533 -186 547 -202 547 c 0
 -218 547 -226 536 -226 513 c 0
 -226 489 -218 477 -202 477 c 0
 -196 477 -190 481 -185 488 c 0
 -181 495 -179 504 -178 513 c 0
EndSplineSet
EndChar
StartChar: uni0E4D.left
Encoding: 153 63249 120
Width: 0
Flags: HMW
Back
-259.766 497.07 m 0
 -259.766 480.957 -254.395 467.285 -242.676 456.543 c 0
 -230.957 445.312 -217.285 439.941 -202.148 439.941 c 0
 -186.523 439.941 -173.34 445.312 -162.109 456.543 c 0
 -150.879 467.285 -145.02 480.957 -145.02 497.07 c 0
 -145.02 513.184 -150.879 526.855 -162.109 538.086 c 0
 -173.34 549.316 -186.523 555.176 -202.148 555.176 c 0
 -217.285 555.176 -230.957 549.316 -242.676 538.086 c 0
 -254.395 526.855 -259.766 513.184 -259.766 497.07 c 0
-234.863 497.07 m 0
 -234.863 506.348 -231.934 514.16 -225.586 520.508 c 0
 -219.238 526.855 -211.426 529.785 -202.148 529.785 c 0
 -192.871 529.785 -185.059 526.855 -179.199 520.508 c 0
 -172.852 514.16 -169.922 506.348 -169.922 497.07 c 0
 -169.922 487.793 -172.852 479.98 -179.199 474.121 c 0
 -185.059 467.773 -192.871 464.844 -202.148 464.844 c 0
 -211.426 464.844 -219.238 467.773 -225.586 474.121 c 0
 -231.934 479.98 -234.863 487.793 -234.863 497.07 c 0
EndSplineSet
Ref: 237 3661 N 1 0 0 1 -91 -3
EndChar
StartChar: uni0E47.left
Encoding: 154 63250 121
Width: 0
Flags: HMW
Back
-137.207 609.863 m 1
 -137.207 580.566 -150.879 561.035 -178.223 550.781 c 0
 -181.152 550.293 -185.547 549.316 -190.43 548.34 c 0
 -195.312 547.363 -200.684 546.875 -206.055 546.875 c 0
 -211.426 546.875 -218.262 547.363 -227.051 547.363 c 0
 -235.84 547.852 -244.629 547.852 -253.906 547.852 c 0
 -258.789 547.852 -262.207 547.852 -265.137 547.852 c 0
 -268.555 547.852 -271.484 547.852 -274.902 546.875 c 0
 -286.133 544.922 -295.898 540.527 -303.223 534.18 c 0
 -310.547 527.344 -313.965 515.137 -313.965 498.047 c 0
 -313.965 490.234 -312.5 482.91 -310.059 476.074 c 0
 -307.129 469.238 -304.199 463.379 -300.781 458.008 c 1
 -300.781 465.82 -298.34 472.168 -292.969 476.074 c 0
 -291.016 477.539 -289.062 478.516 -287.109 479.492 c 0
 -285.156 480.469 -282.227 481.445 -278.809 481.934 c 2
 -276.855 481.934 l 2
 -271.484 481.934 -266.113 479.98 -260.742 476.562 c 0
 -254.883 472.656 -250 468.262 -246.094 462.891 c 0
 -242.676 458.496 -238.77 454.102 -233.887 450.684 c 0
 -229.492 446.777 -224.609 444.824 -220.215 444.824 c 0
 -218.75 444.824 -217.285 445.312 -215.332 445.312 c 0
 -213.867 445.801 -211.914 447.266 -209.961 450.195 c 1
 -217.285 450.195 -224.121 453.613 -229.98 460.449 c 0
 -235.84 467.285 -238.77 478.027 -238.77 492.188 c 0
 -238.77 506.836 -235.352 517.578 -228.516 524.902 c 0
 -221.68 532.227 -211.914 536.133 -200.195 536.133 c 0
 -188.477 536.133 -179.199 532.227 -170.898 524.414 c 0
 -163.086 516.602 -159.18 507.324 -159.18 496.094 c 0
 -159.18 476.562 -164.062 459.961 -173.828 445.801 c 0
 -179.199 438.477 -185.059 433.105 -191.406 429.688 c 0
 -197.754 425.781 -206.055 423.828 -215.82 423.828 c 0
 -223.145 423.828 -229.492 425.293 -234.375 427.734 c 0
 -239.258 429.688 -244.141 432.617 -249.023 436.035 c 0
 -252.93 439.453 -257.324 444.824 -261.719 452.637 c 0
 -265.625 459.961 -270.508 463.867 -275.879 463.867 c 2
 -278.809 463.867 l 2
 -286.133 463.379 -290.039 456.543 -290.039 442.871 c 0
 -290.039 439.453 -289.551 436.523 -289.062 433.594 c 0
 -288.574 430.664 -287.598 427.734 -287.109 424.805 c 1
 -303.711 427.734 -317.871 436.035 -329.102 450.684 c 0
 -340.332 464.844 -346.191 481.445 -346.191 500 c 0
 -346.191 523.926 -338.867 542.48 -324.219 555.664 c 0
 -309.57 568.359 -291.016 575.195 -269.043 575.195 c 2
 -263.184 575.195 l 2
 -253.906 574.219 -242.188 573.73 -228.027 572.266 c 0
 -213.867 571.289 -204.59 570.801 -200.195 570.801 c 0
 -179.199 570.801 -168.945 582.52 -168.945 605.957 c 1
 -137.207 609.863 l 1
-187.012 492.188 m 0
 -187.012 509.277 -193.359 518.066 -206.055 518.066 c 0
 -211.914 518.066 -216.309 515.625 -219.727 510.742 c 0
 -222.656 505.371 -224.121 499.512 -224.121 492.188 c 0
 -224.121 486.816 -222.656 480.957 -220.215 474.609 c 0
 -217.285 468.262 -212.891 464.844 -206.055 464.844 c 0
 -193.359 464.844 -187.012 474.121 -187.012 492.188 c 0
EndSplineSet
Ref: 231 3655 N 1 0 0 1 -46.5 -0.5
EndChar
StartChar: uni0E48.left
Encoding: 155 63251 122
Width: 0
Flags: HMW
DStem: -186 785 -140 785 -183 730 -144 730
Back
-140.137 785.156 m 1
 -144.043 729.98 l 1
 -153.809 654.785 l 1
 -155.273 649.902 -158.691 646.973 -164.062 646.973 c 0
 -169.434 646.973 -172.852 649.902 -173.828 654.785 c 1
 -183.105 729.98 l 1
 -186.035 785.156 l 1
 -140.137 785.156 l 1
EndSplineSet
Ref: 232 3656 N 1 0 0 1 -55 -1
EndChar
StartChar: uni0E49.left
Encoding: 156 63252 123
Width: 0
Flags: HMW
Back
-49.8047 783.203 m 1
 -49.8047 769.043 -52.2461 754.883 -57.1289 740.723 c 0
 -61.5234 726.074 -67.8711 712.891 -76.1719 701.172 c 0
 -83.9844 688.965 -93.2617 678.711 -104.492 669.922 c 0
 -115.723 661.133 -126.953 654.785 -139.16 650.879 c 0
 -161.133 643.555 -181.152 640.137 -199.219 640.137 c 2
 -229.98 640.137 l 1
 -229.98 657.227 l 1
 -220.703 658.203 -210.938 661.133 -201.66 665.527 c 0
 -191.895 669.922 -184.57 675.781 -179.199 683.105 c 1
 -182.129 683.105 l 2
 -192.871 683.105 -201.66 687.012 -208.496 694.824 c 0
 -215.332 703.125 -219.238 714.844 -219.238 729.98 c 0
 -219.238 741.211 -215.82 751.953 -208.984 761.719 c 0
 -202.148 770.996 -193.359 775.879 -182.129 775.879 c 0
 -171.387 775.879 -162.598 771.484 -155.273 762.207 c 0
 -148.438 752.441 -145.02 742.188 -145.02 730.957 c 0
 -145.02 714.844 -148.438 700.684 -155.762 687.988 c 0
 -163.574 675.293 -172.852 666.016 -184.082 660.156 c 1
 -152.832 662.109 -129.395 673.828 -113.77 695.801 c 0
 -98.6328 717.773 -90.8203 747.07 -90.8203 783.203 c 1
 -49.8047 783.203 l 1
-162.109 729.98 m 0
 -162.109 737.793 -164.062 745.117 -167.969 750.977 c 0
 -171.875 756.836 -176.758 759.766 -182.129 759.766 c 0
 -189.453 759.766 -194.824 757.324 -198.73 751.953 c 0
 -202.148 746.582 -204.102 739.258 -204.102 729.98 c 0
 -204.102 709.473 -196.777 699.219 -182.129 699.219 c 0
 -176.758 699.219 -171.875 701.66 -167.969 707.031 c 0
 -164.062 712.402 -162.109 720.215 -162.109 729.98 c 0
EndSplineSet
Ref: 233 3657 N 1 0 0 1 -9 -10
EndChar
StartChar: uni0E4A.left
Encoding: 157 63253 124
Width: 0
Flags: HMW
Back
-40.0391 765.137 m 1
 -40.0391 681.152 -79.5898 639.16 -159.18 639.16 c 1
 -159.18 657.227 l 1
 -148.438 659.18 -139.16 665.039 -131.348 675.293 c 0
 -124.023 686.035 -120.117 696.777 -120.117 708.008 c 0
 -120.117 730.469 -128.418 742.188 -145.02 742.188 c 0
 -161.133 742.188 -168.945 729.004 -168.945 703.125 c 1
 -186.035 703.125 l 1
 -186.035 729.004 -194.824 742.188 -212.891 742.188 c 0
 -219.727 742.188 -225.586 739.258 -230.957 733.887 c 1
 -221.191 733.887 -213.379 729.492 -208.008 721.191 c 0
 -202.637 712.402 -200.195 701.172 -200.195 687.988 c 0
 -200.195 655.762 -212.891 640.137 -237.793 640.137 c 0
 -248.535 640.137 -257.812 645.02 -265.137 655.273 c 0
 -272.461 666.016 -275.879 676.758 -275.879 687.988 c 0
 -275.879 702.637 -273.438 715.332 -268.066 726.074 c 0
 -262.695 736.816 -255.859 745.605 -248.047 752.441 c 0
 -240.234 759.277 -228.516 763.184 -212.891 763.184 c 0
 -197.754 763.184 -186.035 754.395 -178.223 736.816 c 1
 -175.781 744.141 -172.363 750.488 -167.48 754.883 c 0
 -162.598 759.766 -155.762 762.207 -146.973 762.207 c 0
 -113.77 762.207 -97.168 744.141 -97.168 708.984 c 0
 -97.168 686.523 -104.492 669.434 -120.117 658.203 c 1
 -91.7969 669.434 -78.125 693.848 -78.125 730.957 c 2
 -78.125 747.07 l 1
 -80.0781 765.137 l 1
 -40.0391 765.137 l 1
-215.82 687.988 m 0
 -215.82 697.266 -217.773 705.078 -221.68 710.938 c 0
 -225.098 716.797 -230.469 720.215 -237.793 720.215 c 0
 -245.117 720.215 -250.488 716.309 -253.906 709.473 c 0
 -257.324 702.637 -258.789 695.312 -258.789 687.988 c 0
 -258.789 678.711 -257.324 670.898 -253.418 665.039 c 0
 -250 659.18 -244.629 655.762 -237.793 655.762 c 0
 -223.145 655.762 -215.82 666.504 -215.82 687.988 c 0
EndSplineSet
Ref: 234 3658 N 1 0 0 1 4 -10
EndChar
StartChar: uni0E4B.left
Encoding: 158 63254 125
Width: 0
Flags: HMW
HStem: 698 29<-249 -194 -149 -95>
DStem: -197 784 -147 784 -195 727 -149 727 -194 698 -150 698 -192 640 -152 640
Back
-194.824 784.18 m 1
 -192.871 727.051 l 1
 -247.07 727.051 l 1
 -247.07 698.242 l 1
 -191.895 698.242 l 1
 -189.941 640.137 l 1
 -149.902 640.137 l 1
 -147.949 698.242 l 1
 -92.7734 698.242 l 1
 -92.7734 727.051 l 1
 -146.973 727.051 l 1
 -145.02 784.18 l 1
 -194.824 784.18 l 1
EndSplineSet
Ref: 235 3659 N 1 0 0 1 -58 -10
EndChar
StartChar: uni0E4C.left
Encoding: 159 63255 126
Width: 0
Flags: HMW
Back
-134.766 694.824 m 1
 -134.766 694.824 -135.254 697.266 -136.23 701.66 c 0
 -136.719 706.055 -137.695 709.961 -139.16 713.867 c 0
 -143.066 722.656 -148.926 727.051 -157.227 727.051 c 0
 -163.086 727.051 -167.969 724.121 -172.363 719.238 c 0
 -176.758 713.867 -179.199 705.566 -179.199 694.824 c 0
 -179.199 671.875 -171.875 660.156 -157.227 660.156 c 0
 -150.391 660.156 -144.531 663.574 -140.137 669.922 c 0
 -138.184 673.34 -136.719 677.246 -136.23 682.129 c 0
 -135.254 686.523 -134.766 690.918 -134.766 694.824 c 1
-145.02 745.117 m 1
 -124.512 739.746 -113.77 722.656 -113.77 693.848 c 0
 -113.77 679.199 -118.164 666.504 -126.465 655.762 c 0
 -134.766 645.508 -145.508 640.137 -159.18 640.137 c 0
 -174.316 640.137 -187.5 645.508 -198.242 655.762 c 0
 -208.496 666.504 -213.867 679.688 -213.867 694.824 c 0
 -213.867 735.84 -185.059 763.184 -126.953 777.832 c 0
 -111.816 782.715 -100.586 788.086 -94.2383 793.945 c 0
 -87.4023 799.805 -85.4492 809.082 -88.8672 820.801 c 1
 -50.7812 830.078 l 1
 -50.293 826.66 -49.8047 822.266 -49.8047 816.895 c 0
 -49.8047 807.617 -53.2227 799.316 -59.082 791.992 c 0
 -64.9414 784.668 -76.1719 777.832 -92.7734 771.973 c 0
 -102.539 768.555 -112.305 764.648 -122.559 759.766 c 0
 -132.812 755.371 -140.137 750.488 -145.02 745.117 c 1
EndSplineSet
Ref: 236 3660 N 1 0 0 1 17 2
EndChar
StartChar: uni0E01
Encoding: 161 3585 128
Width: 404
Flags: HMW
HStem: 0 21<58 58 58 110 284 284 284 336> 352 33<173 191>
VStem: 30 41 58 52<0 193 193 207> 284 52<0 273>
Back
58.1055 0 m 1
 58.1055 192.871 l 2
 58.1055 235.84 77.1484 262.207 115.234 272.949 c 1
 94.2383 286.133 65.918 292.969 29.7852 292.969 c 1
 34.1797 306.152 41.5039 318.359 53.2227 329.59 c 0
 64.4531 340.332 78.125 350.586 94.2383 359.863 c 0
 122.559 376.465 151.855 384.766 182.129 384.766 c 0
 226.562 384.766 262.207 375 289.062 354.98 c 0
 320.312 333.008 335.938 300.781 335.938 258.789 c 2
 335.938 0 l 1
 284.18 0 l 1
 284.18 258.789 l 2
 284.18 287.598 273.926 310.547 253.906 327.148 c 0
 233.887 343.75 209.473 352.051 181.152 352.051 c 0
 133.789 352.051 97.168 337.891 70.8008 310.059 c 1
 104.98 310.059 132.812 295.41 153.809 266.113 c 1
 141.113 262.207 130.859 254.883 122.559 245.117 c 0
 114.258 234.863 109.863 222.168 109.863 207.031 c 2
 109.863 0 l 1
 58.1055 0 l 1
EndSplineSet
Fore
58 0 m 1xd8
 58 193 l 2xd8
 58 236 77 262 115 273 c 1
 94 286 66 293 30 293 c 1
 38 320 62 341 94 360 c 0
 123 377 152 385 182 385 c 0
 227 385 262 375 289 355 c 0
 320 333 336 301 336 259 c 2
 336 0 l 1
 284 0 l 1
 284 259 l 2
 284 316 238 352 181 352 c 0
 134 352 97 338 71 310 c 1
 105 310 133 295 154 266 c 1xe8
 129 258 110 238 110 207 c 2
 110 0 l 1
 58 0 l 1xd8
EndSplineSet
EndChar
StartChar: uni0E02
Encoding: 162 3586 129
Width: 352
Flags: W
HStem: 0 19<48 240> 237 18<65 69> 335 20<65 71> 356 20G<232 284> 364 21<104 110>
VStem: 20 19<296 309> 87 51<19 178> 91 17<296 307> 154 40<306 326> 232 52<55 376>
Back
284.18 55.1758 m 2
 284.18 18.5547 269.531 0 240.234 0 c 2
 47.8516 0 l 1
 47.8516 19.043 l 1
 86.9141 19.043 l 1
 86.9141 174.805 l 2
 86.9141 199.707 99.1211 228.516 124.023 261.23 c 0
 136.23 276.855 144.043 290.527 147.949 301.758 c 0
 151.855 313.477 153.809 321.289 153.809 326.172 c 0
 153.809 337.402 148.926 346.68 139.16 353.516 c 0
 128.906 360.352 117.188 363.77 104.004 363.77 c 0
 89.3555 363.77 77.6367 360.84 68.8477 354.98 c 1
 80.5664 354.98 89.8438 349.121 98.1445 336.914 c 0
 104.492 326.172 107.91 312.5 107.91 295.898 c 0
 107.91 282.227 104.004 268.555 96.6797 255.859 c 0
 88.8672 243.164 78.125 236.816 64.9414 236.816 c 0
 59.082 236.816 53.2227 238.77 47.3633 242.676 c 0
 41.9922 246.094 37.1094 250.977 33.2031 256.348 c 0
 28.8086 262.207 25.8789 268.555 23.4375 275.391 c 0
 20.9961 282.715 20.0195 289.551 20.0195 295.898 c 0
 20.0195 321.289 27.832 342.285 42.9688 359.375 c 0
 58.1055 376.465 78.6133 384.766 104.004 384.766 c 0
 130.859 384.766 152.344 377.93 168.945 363.77 c 0
 185.547 350.098 193.848 330.566 193.848 306.152 c 0
 193.848 298.828 192.383 290.039 188.477 280.273 c 0
 185.059 270.996 178.223 258.789 168.945 244.141 c 0
 159.668 228.516 152.344 215.82 146.484 205.078 c 0
 140.625 194.336 138.184 184.57 138.184 175.781 c 2
 138.184 19.043 l 1
 196.777 19.043 l 2
 207.52 19.043 216.309 21.9727 222.656 27.832 c 0
 229.004 34.1797 231.934 42.9688 231.934 55.1758 c 2
 231.934 375.977 l 1
 284.18 375.977 l 1
 284.18 55.1758 l 2
90.8203 295.898 m 0
 90.8203 306.641 88.3789 315.918 83.4961 323.73 c 0
 78.6133 331.055 72.2656 334.961 64.9414 334.961 c 2
 63.9648 334.961 l 2
 56.6406 334.961 50.7812 331.543 45.8984 324.707 c 0
 41.5039 317.383 39.0625 308.105 39.0625 295.898 c 0
 39.0625 286.621 41.5039 277.344 46.3867 268.555 c 0
 51.2695 259.277 57.6172 254.883 64.9414 254.883 c 0
 71.7773 254.883 77.6367 259.277 83.0078 268.555 c 0
 88.3789 277.344 90.8203 286.621 90.8203 295.898 c 0
EndSplineSet
Fore
284 376 m 1xf6c0
 284 55 l 2
 284 18 269 0 240 0 c 2
 48 0 l 1
 48 19 l 1
 87 19 l 1
 87 175 l 2xf6c0
 87 200 99 228 124 261 c 0
 148 293 154 317 154 326 c 0
 154 349 131 364 104 364 c 4
 89 364 78 361 69 355 c 1
 80 355 90 349 98 337 c 0
 105 326 108 313 108 296 c 0
 108 268 92 237 65 237 c 0
 40 237 20 269 20 296 c 0
 20 347 53 385 104 385 c 0xedc0
 157 385 194 355 194 306 c 0
 194 291 188 273 169 244 c 0
 150 213 138 193 138 176 c 2
 138 19 l 1
 197 19 l 2
 218 19 232 31 232 55 c 2
 232 376 l 1
 284 376 l 1xf6c0
91 296 m 0xe5c0
 91 317 80 335 65 335 c 2
 64 335 l 2
 49 335 39 320 39 296 c 0
 39 277 50 255 65 255 c 0
 78 255 91 277 91 296 c 0xe5c0
EndSplineSet
EndChar
StartChar: uni0E03
Encoding: 163 3587 130
Width: 392
Flags: HMW
HStem: 0 19<88 281> 364 21<87 93 168 176>
VStem: 197 33<316 331> 272 52<55 377>
Back
324.219 55.1758 m 2
 324.219 41.0156 320.312 28.8086 312.988 18.0664 c 0
 305.176 5.85938 294.434 0 280.762 0 c 2
 87.8906 0 l 1
 87.8906 19.043 l 1
 124.023 19.043 l 1
 124.023 173.828 l 2
 124.023 187.5 126.953 201.66 132.812 216.309 c 0
 139.16 231.445 147.461 248.047 159.18 266.113 c 1
 171.875 282.227 181.152 294.434 187.5 303.711 c 0
 193.848 312.5 196.777 320.801 196.777 329.102 c 0
 196.777 339.844 194.824 348.145 189.941 354.492 c 0
 185.547 360.84 178.223 363.77 167.969 363.77 c 0
 147.461 363.77 137.207 349.121 137.207 318.848 c 1
 122.07 318.848 l 1
 122.07 334.473 117.188 345.703 107.91 353.027 c 0
 98.6328 360.352 91.7969 363.77 86.9141 363.77 c 0
 81.543 363.77 76.6602 363.281 71.2891 361.816 c 0
 66.4062 360.84 63.4766 358.398 62.0117 354.98 c 1
 77.1484 354.98 89.3555 348.633 98.1445 335.938 c 0
 105.469 323.242 108.887 308.594 108.887 291.992 c 0
 108.887 278.809 104.98 265.625 97.168 252.441 c 0
 88.8672 239.258 78.125 232.91 63.9648 232.91 c 0
 52.7344 232.91 41.9922 238.77 32.7148 250 c 0
 22.9492 261.23 18.0664 275.391 18.0664 291.992 c 0
 18.0664 303.223 19.5312 314.453 22.4609 325.684 c 0
 25.3906 336.426 29.7852 346.191 35.6445 354.98 c 0
 41.0156 363.77 48.3398 370.605 57.1289 376.465 c 0
 65.4297 382.324 75.6836 384.766 86.9141 384.766 c 0
 95.2148 384.766 103.027 382.812 110.352 378.418 c 0
 118.164 374.023 124.512 368.164 128.906 359.863 c 1
 138.184 376.465 151.367 384.766 167.969 384.766 c 0
 186.035 384.766 200.684 378.906 212.402 366.699 c 0
 224.121 354.004 229.98 337.402 229.98 315.918 c 0
 229.98 310.547 227.539 301.27 222.656 288.086 c 0
 217.285 274.902 210.449 261.23 201.172 247.07 c 1
 184.57 216.797 175.781 192.871 175.781 174.805 c 2
 175.781 19.043 l 1
 234.863 19.043 l 2
 243.164 19.043 250.977 22.9492 259.277 30.2734 c 0
 268.066 38.0859 271.973 46.3867 271.973 55.1758 c 2
 271.973 376.953 l 1
 324.219 376.953 l 1
 324.219 55.1758 l 2
90.8203 291.992 m 0
 90.8203 301.758 88.8672 311.523 83.9844 320.801 c 0
 79.1016 330.566 71.7773 334.961 62.0117 334.961 c 0
 54.6875 334.961 48.8281 330.566 43.9453 321.777 c 0
 39.5508 313.477 37.1094 303.223 37.1094 291.992 c 0
 37.1094 280.762 40.0391 271.484 45.8984 264.648 c 0
 51.7578 257.324 58.5938 253.906 65.918 253.906 c 0
 72.7539 253.906 78.6133 257.324 83.4961 264.648 c 0
 88.3789 271.484 90.8203 280.762 90.8203 291.992 c 0
EndSplineSet
Fore
324 377 m 1
 324 55 l 2
 324 41 320 29 313 18 c 0
 305 6 294 0 281 0 c 2
 88 0 l 1
 88 19 l 1
 124 19 l 1
 124 174 l 2
 124 201 136 230 159 266 c 1
 184 298 197 313 197 329 c 0
 197 350 188 364 168 364 c 0
 147 364 137 349 137 319 c 1
 122 319 l 1
 122 350 96 364 87 364 c 0
 76 364 65 362 62 355 c 1
 77 355 89 349 98 336 c 1
 105 323 109 309 109 292 c 0
 109 265 92 233 64 233 c 0
 41 233 18 259 18 292 c 0
 18 336 42 385 87 385 c 0
 103 385 120 376 129 360 c 1
 138 377 151 385 168 385 c 0
 204 385 230 359 230 316 c 0
 230 305 220 275 201 247 c 1
 184 217 176 193 176 175 c 2
 176 19 l 1
 235 19 l 2
 251 19 272 38 272 55 c 2
 272 377 l 5
 324 377 l 1
91 292 m 0
 91 312 82 335 62 335 c 0
 47 335 37 315 37 292 c 0
 37 269 51 254 66 254 c 0
 79 254 91 269 91 292 c 0
EndSplineSet
EndChar
StartChar: uni0E04
Encoding: 164 3588 131
Width: 388
Flags: HMW
HStem: 0 21<80 132 80 80 268 268 268 320> 154 20<160 171> 252 24<161 171> 352 33<159 181>
VStem: 20 36<239 257> 194 21<214 225> 268 52<0 289>
Back
165.039 153.809 m 0
 180.176 153.809 192.383 160.645 201.66 173.34 c 0
 210.449 186.523 214.844 200.195 214.844 213.867 c 0
 214.844 231.445 209.961 246.094 200.684 257.812 c 0
 190.918 270.02 177.734 275.879 161.133 275.879 c 0
 150.879 275.879 141.602 273.926 133.301 270.508 c 0
 125 266.602 117.676 260.742 111.328 252.441 c 0
 104.98 244.141 100.098 233.398 96.6797 219.727 c 0
 92.7734 206.055 90.8203 188.477 90.8203 167.969 c 1
 81.543 183.105 73.7305 197.266 66.4062 209.961 c 0
 59.5703 222.656 56.1523 236.816 56.1523 252.93 c 0
 56.1523 318.848 96.1914 352.051 175.781 352.051 c 0
 202.148 352.051 223.633 345.215 241.699 331.543 c 0
 259.277 317.871 268.066 299.316 268.066 275.879 c 2
 268.066 0 l 1
 319.824 0 l 1
 319.824 275.879 l 2
 319.824 313.965 305.176 342.285 274.902 360.84 c 0
 250.488 376.953 217.773 384.766 176.758 384.766 c 0
 130.371 384.766 93.75 374.512 66.8945 354.004 c 0
 35.6445 330.566 20.0195 296.387 20.0195 250.977 c 0
 20.0195 242.188 21.9727 230.957 26.3672 216.309 c 0
 30.7617 202.148 38.5742 183.105 49.8047 160.156 c 0
 71.2891 115.234 82.0312 75.6836 82.0312 41.0156 c 2
 82.0312 29.7852 l 1
 80.0781 0 l 1
 131.836 0 l 1
 133.301 7.8125 134.277 16.6016 134.766 25.3906 c 0
 135.742 34.668 136.23 43.457 136.23 53.2227 c 0
 136.23 66.4062 135.742 79.1016 134.766 91.7969 c 0
 134.277 104.492 133.789 116.211 133.789 126.953 c 0
 133.789 134.277 134.277 141.602 134.766 149.414 c 0
 135.742 157.227 136.719 163.086 138.184 166.992 c 1
 141.113 164.551 145.508 161.621 149.902 158.691 c 0
 154.785 155.273 159.668 153.809 165.039 153.809 c 0
142.09 213.867 m 0
 142.09 226.562 144.531 236.328 149.902 242.676 c 0
 155.273 249.023 161.621 251.953 168.945 251.953 c 0
 174.805 251.953 180.664 249.023 186.035 242.676 c 0
 191.406 236.328 193.848 226.562 193.848 213.867 c 0
 193.848 203.125 191.406 193.848 186.523 186.035 c 0
 181.641 178.223 174.805 173.828 166.992 173.828 c 0
 161.621 173.828 156.25 176.758 150.391 182.617 c 0
 145.02 187.988 142.09 198.73 142.09 213.867 c 0
EndSplineSet
Fore
80 0 m 1
 82 30 l 1
 82 41 l 2
 82 76 71 115 50 160 c 0
 27 207 20 234 20 251 c 0
 20 296 36 331 67 354 c 0
 94 375 130 385 177 385 c 0
 218 385 250 377 275 361 c 0
 305 342 320 314 320 276 c 2
 320 0 l 1
 268 0 l 1
 268 276 l 2
 268 323 228 352 176 352 c 0
 96 352 56 319 56 253 c 0
 56 221 72 199 91 168 c 1
 91 250 122 276 161 276 c 0
 194 276 215 249 215 214 c 0
 215 186 196 154 165 154 c 0
 154 154 145 162 138 167 c 1
 135 159 134 142 134 127 c 0
 134 106 136 80 136 53 c 0
 136 34 135 16 132 0 c 1
 80 0 l 1
142 214 m 0
 142 183 156 174 167 174 c 0
 183 174 194 193 194 214 c 0
 194 239 181 252 169 252 c 0
 154 252 142 239 142 214 c 0
EndSplineSet
EndChar
StartChar: uni0E05
Encoding: 165 3589 132
Width: 396
Flags: HMW
HStem: 0 21<82 134 82 82 276 328 276 276> 154 20<162 173> 252 24<163 173> 309 21G<164 178> 352 33<110 121 215 232>
VStem: 20 34<271 289> 196 21<214 225> 276 52<0 309>
Back
50.7812 160.156 m 1
 62.5 138.184 70.8008 116.699 76.1719 96.6797 c 0
 81.543 76.1719 83.9844 57.6172 83.9844 41.0156 c 2
 83.9844 29.7852 l 1
 82.0312 0 l 1
 133.789 0 l 1
 135.254 7.8125 136.23 16.6016 137.207 25.3906 c 0
 137.695 34.668 138.184 43.457 138.184 53.2227 c 0
 138.184 66.4062 137.695 79.1016 137.207 91.7969 c 0
 136.23 104.492 136.23 116.211 136.23 126.953 c 0
 136.23 134.277 136.23 141.602 137.207 149.414 c 0
 137.695 157.227 138.672 163.086 140.137 166.992 c 1
 143.555 164.551 147.461 161.621 151.855 158.691 c 0
 156.738 155.273 161.621 153.809 166.992 153.809 c 0
 182.129 153.809 194.336 160.645 203.613 173.34 c 0
 212.402 186.523 216.797 200.195 216.797 213.867 c 0
 216.797 231.445 212.402 246.094 202.637 257.812 c 0
 192.871 270.02 179.688 275.879 163.086 275.879 c 0
 152.832 275.879 144.043 273.926 135.742 270.508 c 0
 126.953 266.602 119.629 260.742 113.281 252.441 c 0
 106.934 244.141 102.051 233.398 98.6328 219.727 c 0
 94.7266 206.055 92.7734 188.477 92.7734 167.969 c 1
 81.543 187.5 72.2656 205.078 64.9414 221.191 c 0
 57.6172 236.816 54.1992 253.906 54.1992 271.973 c 0
 54.1992 325.195 75.6836 352.051 119.141 352.051 c 0
 130.859 352.051 140.625 348.633 147.949 341.797 c 0
 155.273 335.449 160.645 324.219 164.062 309.082 c 1
 178.223 309.082 l 1
 181.152 324.219 187.012 335.449 194.824 341.797 c 0
 203.125 348.633 213.867 352.051 227.051 352.051 c 0
 242.188 352.051 254.395 346.191 263.184 334.961 c 0
 271.484 323.73 275.879 311.035 275.879 296.875 c 2
 275.879 0 l 1
 328.125 0 l 1
 328.125 294.922 l 2
 328.125 323.242 318.848 345.215 299.805 360.84 c 0
 281.25 376.953 257.812 384.766 229.98 384.766 c 0
 201.172 384.766 181.641 374.023 170.898 352.051 c 1
 162.109 374.023 142.578 384.766 111.816 384.766 c 0
 97.168 384.766 84.4727 381.836 73.2422 375.977 c 0
 61.5234 370.117 51.7578 361.816 43.9453 351.562 c 0
 36.1328 341.309 29.7852 329.102 25.8789 314.941 c 0
 21.9727 300.781 20.0195 286.133 20.0195 270.996 c 0
 21.4844 261.719 22.4609 253.418 23.4375 246.582 c 0
 24.4141 239.258 25.8789 231.934 27.832 224.609 c 0
 29.7852 216.797 32.7148 208.008 36.6211 198.242 c 0
 40.0391 187.988 44.9219 175.293 50.7812 160.156 c 1
144.043 213.867 m 0
 144.043 226.562 146.484 236.328 151.855 242.676 c 0
 157.227 249.023 163.574 251.953 170.898 251.953 c 0
 176.758 251.953 182.617 249.023 187.988 242.676 c 0
 193.359 236.328 195.801 226.562 195.801 213.867 c 0
 195.801 203.125 193.359 193.848 188.477 186.035 c 0
 183.594 178.223 176.758 173.828 168.945 173.828 c 0
 163.574 173.828 158.203 176.758 152.344 182.617 c 0
 146.973 187.988 144.043 198.73 144.043 213.867 c 0
EndSplineSet
Fore
82 0 m 5
 84 30 l 1
 84 41 l 2
 84 74 74 116 51 160 c 1
 27 222 25 233 20 271 c 1
 20 333 53 385 112 385 c 0
 143 385 162 374 171 352 c 1
 182 374 201 385 230 385 c 0
 286 385 328 351 328 295 c 2
 328 0 l 1
 276 0 l 1
 276 297 l 2
 276 325 258 352 227 352 c 0
 200 352 185 340 178 309 c 1
 164 309 l 1
 157 340 143 352 119 352 c 0
 76 352 54 325 54 272 c 0
 54 236 70 207 93 168 c 1
 93 250 124 276 163 276 c 0
 196 276 217 249 217 214 c 0
 217 186 198 154 167 154 c 0
 156 154 147 162 140 167 c 1
 137 159 136 142 136 127 c 0
 136 106 138 80 138 53 c 0
 138 34 137 16 134 0 c 1
 82 0 l 5
144 214 m 0
 144 183 158 174 169 174 c 0
 185 174 196 193 196 214 c 0
 196 239 183 252 171 252 c 0
 156 252 144 239 144 214 c 0
EndSplineSet
EndChar
StartChar: uni0E06
Encoding: 166 3590 133
Width: 440
Flags: W
HStem: -3 45<116 140> 0 21G<316 372> 236 20<70 74> 337 19<70 75> 357 20G<320 372> 365 20<88 100 177 186>
VStem: 25 21<298 302> 66 27<62 81> 94 21<286.188 301> 132 14<319 329.782> 139 52<54 132 159 190> 205 38<316 334> 320 52<79 377>
Back
372.07 0 m 1
 315.918 0 l 1
 304.688 37.1094 288.086 66.8945 266.113 88.8672 c 0
 244.141 110.84 219.238 125.488 190.918 131.836 c 1
 190.918 55.1758 l 2
 190.918 16.1133 173.828 -2.92969 140.137 -2.92969 c 0
 118.164 -2.92969 100.098 4.39453 86.4258 19.043 c 0
 72.7539 33.6914 65.918 52.2461 65.918 75.1953 c 0
 65.918 96.1914 72.7539 114.746 86.4258 130.371 c 0
 100.098 145.996 117.676 155.762 139.16 159.18 c 1
 139.16 173.828 l 2
 139.16 187.5 141.113 201.66 145.996 216.309 c 0
 150.879 231.445 159.18 247.559 171.875 265.137 c 0
 184.082 282.227 192.383 295.898 197.266 306.152 c 0
 202.637 315.918 205.078 322.754 205.078 326.172 c 0
 205.078 338.867 203.125 348.145 199.219 354.492 c 0
 194.824 360.84 187.5 363.77 176.758 363.77 c 0
 167.48 363.77 160.156 359.375 154.297 349.609 c 0
 148.926 339.844 145.996 329.59 145.996 318.848 c 1
 131.836 318.848 l 1
 131.836 348.145 121.094 363.77 100.098 365.234 c 2
 96.1914 365.234 l 2
 86.4258 365.234 79.1016 361.816 73.2422 355.957 c 1
 86.4258 355.957 96.6797 351.074 104.004 340.332 c 0
 111.328 330.078 115.234 315.918 115.234 297.852 c 0
 115.234 284.18 110.84 270.02 102.539 256.348 c 0
 94.2383 242.676 83.4961 235.84 69.8242 235.84 c 0
 58.1055 235.84 47.3633 241.699 38.5742 252.93 c 0
 29.2969 264.16 24.9023 279.297 24.9023 297.852 c 0
 24.9023 309.57 26.8555 320.312 30.2734 330.566 c 0
 34.1797 340.82 39.5508 350.098 45.8984 357.91 c 0
 52.7344 366.211 60.5469 372.559 69.8242 377.441 c 0
 79.1016 382.324 89.3555 384.766 100.098 384.766 c 0
 120.117 384.766 133.301 375.977 140.137 357.91 c 1
 144.043 373.535 157.227 382.324 180.176 384.766 c 1
 203.125 384.766 219.727 378.906 229.004 366.699 c 0
 238.281 354.004 243.164 337.402 243.164 315.918 c 0
 243.164 308.105 240.723 298.828 235.84 288.574 c 0
 231.445 278.32 224.121 265.137 214.844 250 c 0
 205.566 235.84 199.219 222.168 195.801 208.984 c 0
 192.871 195.801 190.918 184.57 190.918 174.805 c 2
 190.918 160.156 l 1
 203.613 160.156 216.309 158.203 229.004 153.809 c 0
 241.699 149.902 253.906 144.531 265.625 137.207 c 0
 277.344 129.883 287.598 121.094 296.875 111.328 c 0
 306.152 102.051 313.965 90.8203 319.824 79.1016 c 1
 319.824 376.953 l 1
 372.07 376.953 l 1
 372.07 0 l 1
94.2383 297.852 m 0
 94.2383 309.57 91.7969 318.848 87.4023 326.172 c 0
 83.0078 333.496 77.1484 336.914 69.8242 336.914 c 0
 62.5 336.914 56.6406 333.496 52.7344 326.66 c 0
 48.3398 319.336 45.8984 310.059 45.8984 297.852 c 0
 45.8984 286.133 47.8516 275.879 51.7578 268.066 c 0
 56.1523 259.766 62.0117 255.859 69.8242 255.859 c 0
 77.1484 255.859 83.0078 259.766 87.4023 268.066 c 0
 91.7969 275.879 94.2383 286.133 94.2383 297.852 c 0
139.16 62.0117 m 2
 139.16 129.883 l 1
 123.535 127.441 112.305 121.094 104.492 110.84 c 0
 96.6797 101.074 92.7734 88.8672 92.7734 74.2188 c 0
 92.7734 52.7344 100.586 41.9922 116.211 41.9922 c 0
 131.348 41.9922 139.16 48.8281 139.16 62.0117 c 2
EndSplineSet
Fore
372 377 m 5x3bb8
 372 0 l 1
 316 0 l 1x7bb8
 293 75 247 119 191 132 c 1
 191 55 l 2
 191 16 174 -3 140 -3 c 0
 96 -3 66 30 66 75 c 0
 66 118 96 152 139 159 c 1
 139 174 l 2xb3b8
 139 201 147 230 172 265 c 0
 196 300 205 319 205 326 c 0
 205 351 198 364 177 364 c 0
 158 364 146 340 146 319 c 1
 132 319 l 1
 132 348 121 364 100 365 c 2
 96 365 l 2
 87 365 79 362 73 356 c 1
 100 356 115 334 115 298 c 0
 115 270 97 236 70 236 c 0
 46 236 25 261 25 298 c 0
 25 342 56 385 100 385 c 0
 120 385 133 376 140 358 c 1
 144 373 157 382 180 385 c 1xb7d8
 227 385 243 359 243 316 c 0
 243 300 234 281 215 250 c 0
 196 222 191 194 191 175 c 2
 191 160 l 1
 241 160 297 126 320 79 c 1
 320 377 l 1
 372 377 l 5x3bb8
139 130 m 1
 108 125 93 103 93 74 c 0
 93 53 101 42 116 42 c 0xb3b8
 131 42 139 49 139 62 c 2
 139 130 l 1
46 298 m 0
 46 274 54 256 70 256 c 0
 85 256 94 274 94 298 c 0
 94 321 85 337 70 337 c 0
 55 337 46 322 46 298 c 0
EndSplineSet
EndChar
StartChar: uni0E07
Encoding: 167 3591 134
Width: 305
Flags: MW
HStem: 0 21<185 237 185 185> 262 19<156 161> 364 21<156 170>
VStem: 110 19<321 329> 185 52<67 329>
Back
236.816 0 m 1
 185.059 0 l 1
 0 251.953 l 1
 12.207 264.16 l 1
 185.059 66.8945 l 1
 185.059 284.18 l 1
 183.105 276.855 178.711 270.996 172.363 267.578 c 0
 166.016 263.672 160.645 262.207 155.762 262.207 c 0
 144.043 262.207 133.301 268.066 124.023 280.273 c 0
 114.746 292.969 109.863 306.152 109.863 320.801 c 0
 109.863 340.332 115.234 355.957 125.977 367.676 c 0
 136.719 379.395 151.367 384.766 169.922 384.766 c 0
 191.406 384.766 208.008 378.906 219.727 366.211 c 0
 230.957 353.516 236.816 336.426 236.816 314.941 c 2
 236.816 0 l 1
183.105 320.801 m 2
 183.105 333.008 180.664 343.262 175.293 351.562 c 0
 170.41 359.863 164.062 363.77 155.762 363.77 c 0
 148.438 363.77 142.09 359.375 137.207 350.586 c 0
 131.836 341.309 128.906 331.543 128.906 320.801 c 0
 128.906 310.547 131.836 300.781 137.695 292.969 c 0
 143.066 285.156 149.414 280.762 155.762 280.762 c 0
 162.598 280.762 168.945 284.668 174.316 291.992 c 0
 180.176 299.316 183.105 311.035 183.105 327.148 c 2
 183.105 320.801 l 2
EndSplineSet
Fore
237 0 m 1
 185 0 l 1
 0 252 l 1
 12 264 l 1
 185 67 l 1
 185 284 l 1
 181 269 165 262 156 262 c 0
 132 262 110 292 110 321 c 0
 110 360 133 385 170 385 c 0
 213 385 237 358 237 315 c 2
 237 0 l 1
183 321 m 2
 183 345 172 364 156 364 c 0
 141 364 129 342 129 321 c 0
 129 300 143 281 156 281 c 0
 169 281 183 295 183 327 c 2
 183 321 l 2
EndSplineSet
EndChar
StartChar: uni0E08
Encoding: 168 3592 135
Width: 319
Flags: HMW
HStem: 0 21<201 251 201 201> 141 18<98 100> 352 33<112 130>
VStem: 55 19<200 209> 123 18<200 209> 202 49<269 280>
Back
250.977 0 m 1
 201.172 0 l 1
 201.172 39.5508 197.266 74.707 189.453 105.469 c 0
 181.641 136.719 173.828 163.574 165.039 187.012 c 0
 162.109 192.871 158.691 200.195 154.297 208.008 c 0
 150.391 215.82 144.531 222.656 138.184 228.027 c 1
 139.16 224.121 140.137 219.238 140.625 213.379 c 0
 140.625 208.008 141.113 203.125 141.113 200.195 c 0
 141.113 183.105 137.207 169.434 129.395 158.203 c 0
 122.07 146.484 111.328 141.113 98.1445 141.113 c 0
 85.9375 141.113 75.6836 146.484 67.3828 158.203 c 0
 59.082 169.434 55.1758 183.105 55.1758 200.195 c 0
 55.1758 217.285 60.0586 232.422 69.3359 245.605 c 0
 79.1016 258.301 92.7734 265.137 109.863 265.137 c 0
 147.949 265.137 178.711 236.328 202.148 179.199 c 1
 202.148 269.043 l 2
 202.148 294.434 193.359 314.453 175.781 329.59 c 0
 158.691 344.727 137.207 352.051 111.816 352.051 c 0
 71.7773 352.051 37.5977 331.543 8.78906 291.016 c 1
 -2.92969 297.852 l 1
 28.3203 355.957 72.7539 384.766 129.883 384.766 c 0
 161.133 384.766 189.453 375.488 213.867 356.934 c 0
 227.539 347.168 236.816 335.449 242.676 322.266 c 0
 248.047 309.57 250.977 295.41 250.977 279.785 c 2
 250.977 0 l 1
123.047 200.195 m 0
 123.047 212.891 121.094 222.656 117.188 230.469 c 0
 112.793 238.281 106.445 242.188 98.1445 242.188 c 0
 91.3086 242.188 85.4492 238.281 81.0547 230.469 c 0
 76.1719 222.656 74.2188 212.891 74.2188 200.195 c 0
 74.2188 187.5 76.6602 177.246 82.0312 169.922 c 0
 87.4023 162.598 92.7734 159.18 98.1445 159.18 c 0
 104.492 159.18 110.352 162.598 115.723 169.922 c 0
 120.605 177.246 123.047 187.5 123.047 200.195 c 0
EndSplineSet
Fore
-3 298 m 1
 28 356 73 385 130 385 c 0
 161 385 189 376 214 357 c 0
 241 337 251 311 251 280 c 2
 251 0 l 1
 201 0 l 1
 201 79 182 140 165 187 c 0
 160 199 151 217 138 228 c 1
 141 220 141 207 141 200 c 0
 141 167 125 141 98 141 c 0
 74 141 55 167 55 200 c 0
 55 235 75 265 110 265 c 0
 148 265 179 236 202 179 c 1
 202 269 l 2
 202 320 163 352 112 352 c 0
 72 352 38 332 9 291 c 1
 -3 298 l 1
74 200 m 4
 74 175 87 159 98 159 c 0
 111 159 123 175 123 200 c 0
 123 225 115 242 98 242 c 0
 85 242 74 225 74 200 c 4
EndSplineSet
EndChar
StartChar: uni0E09
Encoding: 169 3593 136
Width: 458
Flags: MW
HStem: 352 33<168 186>
VStem: 25 20<197 208> 99 52<0 193> 276 52<53 132 160 269> 364 26<62 82>
Back
390.137 76.1719 m 0
 390.137 23.4375 369.141 -2.92969 327.148 -2.92969 c 0
 292.969 -2.92969 275.879 16.1133 275.879 55.1758 c 2
 275.879 132.812 l 1
 248.535 128.418 224.121 114.746 202.637 91.7969 c 0
 180.664 69.3359 164.551 38.5742 152.832 0 c 1
 99.1211 0 l 1
 99.1211 155.762 l 1
 95.7031 150.879 91.3086 146.484 85.9375 144.043 c 0
 80.5664 141.113 75.1953 140.137 69.8242 140.137 c 0
 54.6875 140.137 43.457 145.996 36.1328 158.691 c 0
 28.8086 170.898 24.9023 183.594 24.9023 196.777 c 0
 24.9023 216.309 29.7852 232.422 39.0625 245.117 c 0
 48.3398 257.812 62.5 264.16 82.0312 264.16 c 0
 103.516 264.16 120.117 257.324 132.324 244.629 c 0
 145.02 231.445 150.879 214.355 150.879 192.871 c 2
 150.879 80.0781 l 1
 162.109 102.539 178.711 120.605 200.684 133.789 c 0
 222.168 147.461 247.559 156.25 275.879 161.133 c 1
 275.879 256.836 l 2
 275.879 288.574 266.602 312.012 248.047 328.125 c 0
 229.492 344.238 204.102 352.051 172.852 352.051 c 0
 120.117 352.051 77.6367 330.566 44.9219 288.086 c 1
 33.2031 293.945 l 1
 44.4336 321.289 62.9883 343.262 89.3555 359.863 c 0
 115.723 376.465 144.531 384.766 175.781 384.766 c 0
 217.773 384.766 253.418 376.465 282.227 358.887 c 0
 299.316 349.121 311.523 336.426 317.871 320.801 c 0
 324.707 305.664 328.125 287.598 328.125 267.09 c 2
 328.125 159.18 l 1
 369.141 151.855 390.137 124.023 390.137 76.1719 c 0
97.168 198.242 m 1
 97.6562 210.449 95.7031 220.703 91.3086 228.516 c 0
 87.4023 236.328 80.0781 240.234 69.8242 240.234 c 0
 63.9648 240.234 58.1055 236.328 53.2227 229.492 c 0
 47.8516 222.656 44.9219 211.426 44.9219 196.777 c 0
 44.9219 185.059 47.3633 174.805 51.2695 166.992 c 0
 55.6641 159.18 62.5 154.785 71.7773 154.785 c 0
 80.5664 154.785 87.4023 159.668 91.7969 168.945 c 0
 96.6797 178.223 98.1445 190.43 97.168 206.055 c 1
 97.168 198.242 l 1
363.77 75.1953 m 0
 363.77 90.332 360.84 103.027 354.492 112.305 c 0
 348.145 122.07 339.355 128.906 328.125 131.836 c 1
 328.125 62.0117 l 2
 328.125 48.8281 333.008 41.9922 342.773 41.9922 c 0
 356.934 41.9922 363.77 53.2227 363.77 75.1953 c 0
EndSplineSet
Fore
33 294 m 1
 56 349 113 385 176 385 c 0
 218 385 253 376 282 359 c 0
 317 339 328 308 328 267 c 2
 328 159 l 1
 369 152 390 124 390 76 c 0
 390 23 369 -3 327 -3 c 0
 293 -3 276 16 276 55 c 2
 276 133 l 1
 221 124 176 77 153 0 c 1
 99 0 l 1
 99 156 l 1
 92 145 81 140 70 140 c 0
 39 140 25 170 25 197 c 0
 25 236 43 264 82 264 c 0
 125 264 151 236 151 193 c 2
 151 80 l 1
 174 125 219 152 276 161 c 1
 276 257 l 2
 276 320 236 352 173 352 c 0
 120 352 78 331 45 288 c 1
 33 294 l 1
45 197 m 0
 45 173 53 155 72 155 c 0
 89 155 100 175 97 206 c 1
 97 198 l 1
 98 223 90 240 70 240 c 0
 58 240 45 226 45 197 c 0
328 132 m 5
 328 62 l 2
 328 49 333 42 343 42 c 0
 357 42 364 53 364 75 c 0
 364 106 351 125 328 132 c 5
EndSplineSet
EndChar
StartChar: uni0E0A
Encoding: 170 3594 137
Width: 355
Flags: HMW
HStem: 0 20<51 243>
VStem: 89 52<20 177> 235 52<47 225>
Back
287.109 54.1992 m 2
 287.109 41.9922 283.203 30.2734 275.879 19.043 c 0
 267.09 6.34766 256.348 0 243.164 0 c 2
 50.7812 0 l 1
 50.7812 20.0195 l 1
 88.8672 20.0195 l 1
 88.8672 172.852 l 2
 88.8672 206.543 103.516 240.234 131.836 274.902 c 0
 139.16 284.18 145.02 292.48 149.414 299.805 c 0
 153.809 307.129 155.762 314.453 155.762 321.777 c 0
 155.762 350.098 140.137 363.77 108.887 363.77 c 0
 95.2148 363.77 83.0078 360.84 73.2422 354.98 c 1
 83.0078 354.98 91.7969 348.145 100.098 333.984 c 0
 103.516 328.125 105.469 321.289 106.934 313.477 c 0
 108.398 305.664 108.887 299.316 108.887 293.945 c 0
 108.887 279.297 104.98 265.625 97.168 252.441 c 0
 88.8672 239.258 78.125 232.91 64.9414 232.91 c 0
 53.2227 232.91 42.4805 238.281 33.6914 248.535 c 0
 24.4141 258.789 20.0195 273.926 20.0195 293.945 c 0
 20.0195 319.824 28.3203 341.797 44.9219 358.887 c 0
 61.5234 376.465 83.0078 384.766 108.887 384.766 c 0
 159.18 384.766 188.477 362.305 198.242 316.895 c 1
 220.215 328.125 230.957 354.492 230.957 395.996 c 2
 230.957 408.203 l 1
 287.109 408.203 l 1
 287.109 395.996 l 2
 287.109 368.652 282.227 347.656 272.461 333.008 c 0
 262.695 318.359 245.117 308.105 220.215 303.223 c 1
 238.77 303.223 254.883 291.504 269.043 269.043 c 0
 280.762 252.441 287.109 232.91 287.109 209.961 c 2
 287.109 54.1992 l 2
88.8672 293.945 m 0
 88.8672 304.199 86.9141 312.988 83.0078 321.289 c 0
 79.1016 329.59 73.2422 333.984 64.9414 333.984 c 0
 59.082 333.984 53.2227 330.078 47.3633 322.266 c 0
 41.9922 314.941 39.0625 305.176 39.0625 293.945 c 0
 39.0625 279.785 41.5039 269.043 45.8984 261.23 c 0
 50.7812 252.93 57.1289 249.023 64.9414 249.023 c 0
 73.7305 249.023 79.5898 252.93 83.4961 261.719 c 0
 87.4023 270.02 88.8672 280.762 88.8672 293.945 c 0
234.863 53.2227 m 2
 234.863 209.961 l 2
 234.863 231.445 230.957 248.047 223.145 259.766 c 0
 214.844 271.973 205.078 280.762 192.871 286.133 c 1
 192.871 282.715 189.453 276.367 183.105 267.578 c 0
 176.27 258.301 167.48 246.094 155.762 229.98 c 0
 145.996 215.332 141.113 196.777 141.113 174.805 c 2
 141.113 20.0195 l 1
 199.219 20.0195 l 2
 207.52 20.0195 215.82 23.4375 223.633 29.7852 c 0
 230.957 36.6211 234.863 44.4336 234.863 53.2227 c 2
EndSplineSet
Fore
287 408 m 1
 287 396 l 2
 287 341 271 314 220 303 c 1
 239 303 255 292 269 269 c 0
 281 252 287 233 287 210 c 2
 287 54 l 2
 287 42 283 30 276 19 c 0
 267 6 256 0 243 0 c 2
 51 0 l 1
 51 20 l 1
 89 20 l 1
 89 173 l 2
 89 206 103 240 132 275 c 0
 147 294 156 307 156 322 c 0
 156 350 140 364 109 364 c 0
 95 364 83 361 73 355 c 1
 83 355 92 348 100 334 c 0
 107 322 109 305 109 294 c 0
 109 265 92 233 65 233 c 0
 41 233 20 254 20 294 c 0
 20 346 57 385 109 385 c 0
 159 385 189 362 198 317 c 1
 220 328 231 355 231 396 c 2
 231 408 l 1
 287 408 l 1
39 294 m 0
 39 266 49 249 65 249 c 0
 82 249 89 267 89 294 c 0
 89 314 81 334 65 334 c 0
 53 334 39 317 39 294 c 0
193 286 m 1
 193 279 179 262 156 230 c 0
 146 215 141 197 141 175 c 2
 141 20 l 1
 199 20 l 2
 216 20 235 36 235 53 c 2
 235 210 l 2
 235 253 217 275 193 286 c 1
EndSplineSet
EndChar
StartChar: uni0E0B
Encoding: 171 3595 138
Width: 392
Flags: HMW
HStem: 0 19<88 280>
VStem: 124 52<19 177> 272 52<55 225>
Back
167.969 384.766 m 0
 151.367 384.766 138.184 376.465 128.906 359.863 c 1
 124.512 368.164 118.164 374.023 110.352 378.418 c 0
 103.027 382.812 95.2148 384.766 86.9141 384.766 c 0
 75.6836 384.766 65.4297 382.324 57.1289 376.465 c 0
 48.3398 370.605 41.0156 363.77 35.6445 354.98 c 0
 29.7852 346.191 25.3906 336.426 22.4609 325.684 c 0
 19.5312 314.453 18.0664 303.223 18.0664 291.992 c 0
 18.0664 275.391 22.9492 261.23 32.7148 250 c 0
 41.9922 238.77 52.7344 232.91 63.9648 232.91 c 0
 78.125 232.91 88.8672 239.258 97.168 252.441 c 0
 104.98 265.625 108.887 278.809 108.887 291.992 c 0
 108.887 308.594 105.469 323.242 98.1445 335.938 c 0
 89.3555 348.633 77.1484 354.98 62.0117 354.98 c 1
 63.4766 358.398 66.4062 360.84 71.2891 361.816 c 0
 76.6602 363.281 81.543 363.77 86.9141 363.77 c 0
 91.7969 363.77 98.6328 360.352 107.91 353.027 c 0
 117.188 345.703 122.07 334.473 122.07 318.848 c 1
 137.207 318.848 l 1
 137.207 349.121 147.461 363.77 167.969 363.77 c 0
 178.223 363.77 185.547 360.84 189.941 354.492 c 0
 194.824 348.145 196.777 339.844 196.777 329.102 c 0
 196.777 320.801 193.848 312.5 187.5 304.199 c 0
 181.152 295.41 171.875 282.715 160.156 266.113 c 0
 147.461 248.535 138.184 232.422 132.324 216.797 c 0
 126.953 201.66 124.023 187.5 124.023 173.828 c 2
 124.023 19.043 l 1
 87.8906 19.043 l 1
 87.8906 0 l 1
 279.785 0 l 2
 293.457 0 304.688 6.34766 313.965 19.043 c 0
 317.383 24.4141 319.824 29.7852 321.289 35.6445 c 0
 323.242 41.0156 324.219 47.8516 324.219 55.1758 c 2
 324.219 211.914 l 2
 324.219 242.676 318.359 266.113 307.129 282.715 c 0
 295.898 298.828 278.809 307.129 256.836 307.129 c 1
 301.758 312.988 324.219 343.262 324.219 397.949 c 2
 324.219 409.18 l 1
 267.09 409.18 l 1
 267.09 397.949 l 2
 267.09 375.977 263.672 356.934 257.324 340.82 c 0
 250.977 325.195 242.188 316.895 230.957 316.895 c 2
 229.98 316.895 l 1
 229.492 338.379 223.145 354.98 211.426 367.188 c 0
 199.707 378.906 185.547 384.766 167.969 384.766 c 0
271.973 55.1758 m 2
 271.973 45.8984 268.066 37.1094 259.277 29.7852 c 0
 250.977 22.4609 243.164 19.043 235.84 19.043 c 2
 175.781 19.043 l 1
 175.781 174.805 l 2
 175.781 192.871 184.57 216.797 201.172 247.07 c 0
 206.543 254.883 210.938 262.695 214.844 270.508 c 0
 219.238 278.32 222.168 285.645 225.098 292.969 c 1
 241.211 291.016 252.441 282.715 259.766 267.578 c 0
 267.09 252.441 271.484 233.887 271.973 211.914 c 1
 271.973 55.1758 l 2
90.8203 291.992 m 0
 90.8203 280.762 88.3789 271.484 83.4961 264.648 c 0
 78.6133 257.324 72.7539 253.906 65.918 253.906 c 0
 58.5938 253.906 51.7578 257.324 45.8984 264.648 c 0
 40.0391 271.484 37.1094 280.762 37.1094 291.992 c 0
 37.1094 303.223 39.5508 313.477 43.9453 321.777 c 0
 48.8281 330.566 54.6875 334.961 62.0117 334.961 c 0
 71.7773 334.961 79.1016 330.566 83.9844 320.801 c 0
 88.8672 311.523 90.8203 301.758 90.8203 291.992 c 0
EndSplineSet
Fore
324 409 m 1
 324 398 l 2
 324 343 302 313 257 307 c 1
 301 307 324 273 324 212 c 2
 324 55 l 2
 324 40 321 30 314 19 c 0
 305 6 293 0 280 0 c 2
 88 0 l 1
 88 19 l 1
 124 19 l 1
 124 174 l 2
 124 201 135 231 160 266 c 0
 184 299 197 313 197 329 c 0
 197 350 188 364 168 364 c 0
 147 364 137 349 137 319 c 1
 122 319 l 1
 122 350 96 364 87 364 c 0
 76 364 65 362 62 355 c 1
 77 355 89 349 98 336 c 1
 105 323 109 309 109 292 c 0
 109 265 92 233 64 233 c 0
 41 233 18 259 18 292 c 0
 18 336 42 385 87 385 c 0
 103 385 120 376 129 360 c 1
 138 377 151 385 168 385 c 0
 203 385 229 360 230 317 c 1
 231 317 l 2
 254 317 267 354 267 398 c 2
 267 409 l 1
 324 409 l 1
225 293 m 1
 220 278 212 263 201 247 c 1
 184 217 176 193 176 175 c 2
 176 19 l 1
 236 19 l 2
 251 19 272 36 272 55 c 2
 272 212 l 1
 271 256 257 289 225 293 c 1
37 292 m 0
 37 269 51 254 66 254 c 0
 79 254 91 269 91 292 c 0
 91 312 82 335 62 335 c 0
 47 335 37 315 37 292 c 0
EndSplineSet
EndChar
StartChar: uni0E0C
Encoding: 172 3596 139
Width: 542
Flags: HMW
HStem: 352 33<161.5 199>
VStem: 278 52<57 130 157 273> 422 52<111 378>
Back
474.121 0 m 1
 418.945 0 l 1
 418.945 16.6016 416.992 31.7383 412.598 44.9219 c 0
 408.203 58.1055 402.344 70.8008 395.02 82.0312 c 0
 387.695 94.2383 378.906 104.492 368.164 112.793 c 0
 357.422 121.582 344.727 127.441 330.078 129.883 c 1
 330.078 53.2227 l 2
 330.078 14.1602 312.5 -4.88281 277.832 -4.88281 c 0
 254.883 -4.88281 236.816 1.95312 224.121 16.1133 c 0
 211.426 29.7852 205.078 48.8281 205.078 71.7773 c 0
 205.078 94.2383 211.426 111.816 224.121 125.977 c 0
 236.816 140.137 254.883 150.391 277.832 157.227 c 1
 277.832 256.836 l 2
 277.832 286.133 268.066 309.57 248.535 326.66 c 0
 229.004 343.262 204.102 352.051 174.805 352.051 c 0
 128.418 352.051 91.7969 337.891 64.9414 309.082 c 1
 100.098 309.082 128.418 294.434 148.926 266.113 c 1
 135.742 262.207 125 255.371 117.188 245.605 c 0
 108.887 235.84 104.98 223.145 104.98 207.031 c 2
 104.98 100.098 l 1
 107.91 104.004 111.328 107.91 116.699 110.84 c 0
 121.582 114.258 127.93 116.211 136.23 116.211 c 0
 151.855 116.211 163.086 109.375 169.434 96.1914 c 0
 175.781 82.5195 179.199 68.3594 179.199 53.2227 c 0
 179.199 13.6719 159.668 -5.85938 121.094 -5.85938 c 0
 99.6094 -5.85938 83.0078 0 70.8008 12.207 c 0
 59.082 23.9258 53.2227 40.5273 53.2227 62.0117 c 2
 53.2227 192.871 l 2
 53.2227 234.375 72.7539 261.23 111.816 272.949 c 1
 94.7266 286.133 67.3828 292.969 29.7852 292.969 c 1
 36.6211 318.359 56.1523 340.82 88.8672 359.863 c 0
 118.164 376.465 147.461 384.766 175.781 384.766 c 0
 222.168 384.766 257.812 375 284.18 354.98 c 0
 314.453 333.008 330.078 300.293 330.078 256.836 c 2
 330.078 159.18 l 1
 348.145 156.25 365.234 151.367 380.859 143.555 c 0
 396.973 135.742 410.645 125 421.875 110.84 c 1
 421.875 377.93 l 1
 474.121 377.93 l 1
 474.121 0 l 1
277.832 69.8242 m 2
 277.832 129.883 l 1
 245.117 124.512 229.004 104.98 229.004 70.8008 c 0
 229.004 47.8516 237.305 35.1562 253.906 34.1797 c 0
 270.02 32.7148 277.832 44.4336 277.832 69.8242 c 2
162.109 53.2227 m 0
 162.109 61.0352 160.156 70.3125 156.738 80.5664 c 0
 152.832 90.8203 145.508 96.1914 134.766 96.1914 c 0
 127.441 96.1914 121.582 92.2852 117.188 84.9609 c 0
 112.305 77.6367 109.863 66.4062 109.863 50.7812 c 0
 109.863 40.5273 112.305 31.7383 117.188 24.9023 c 0
 121.582 18.5547 127.93 15.1367 136.23 15.1367 c 0
 145.508 15.1367 151.855 19.043 155.762 26.8555 c 0
 160.156 35.1562 162.109 43.457 162.109 53.2227 c 0
EndSplineSet
Fore
474 378 m 1
 474 0 l 1
 419 0 l 1
 419 33 410 59 395 82 c 0
 380 106 359 125 330 130 c 1
 330 53 l 2
 330 14 313 -5 278 -5 c 0
 231 -5 205 25 205 72 c 0
 205 116 231 144 278 157 c 1
 278 257 l 2
 278 316 234 352 175 352 c 4
 128 352 92 338 65 309 c 1
 100 309 128 295 149 266 c 1
 122 258 105 239 105 207 c 2
 105 100 l 1
 110 108 120 116 136 116 c 0
 168 116 179 84 179 53 c 0
 179 14 160 -6 121 -6 c 0
 78 -6 53 19 53 62 c 2
 53 193 l 2
 53 234 73 261 112 273 c 1
 95 286 67 293 30 293 c 1
 37 318 56 341 89 360 c 0
 118 377 147 385 176 385 c 0
 222 385 258 375 284 355 c 0
 315 333 330 300 330 257 c 2
 330 159 l 1
 366 154 399 139 422 111 c 1
 422 378 l 1
 474 378 l 1
278 130 m 1
 245 125 229 105 229 71 c 0
 229 48 237 35 254 34 c 0
 270 33 278 45 278 70 c 2
 278 130 l 1
110 51 m 0
 110 30 120 15 136 15 c 0
 155 15 162 34 162 53 c 0
 162 69 156 96 135 96 c 0
 120 96 110 82 110 51 c 0
EndSplineSet
EndChar
StartChar: uni0E0D
Encoding: 173 3597 140
Width: 543
Flags: HMW
HStem: 352 33<160.5 203>
VStem: 423 52<55 378>
Back
475.098 55.1758 m 2
 475.098 18.5547 460.449 0 432.129 0 c 2
 276.855 0 l 1
 276.855 256.836 l 2
 276.855 270.996 274.414 283.691 269.043 295.41 c 0
 263.672 307.129 256.348 317.383 247.07 325.684 c 0
 237.793 333.984 227.051 340.332 214.355 345.215 c 0
 202.148 349.609 188.965 352.051 174.805 352.051 c 0
 127.441 352.051 90.8203 337.891 64.9414 310.059 c 1
 99.1211 310.059 126.953 295.41 148.926 266.113 c 1
 135.742 262.207 125 255.371 117.188 245.605 c 0
 108.887 235.84 104.98 223.145 104.98 207.031 c 2
 104.98 94.2383 l 1
 113.77 104.492 125.488 109.863 140.137 109.863 c 0
 151.367 109.863 161.133 104.98 169.434 95.2148 c 0
 177.734 84.9609 182.129 70.3125 182.129 50.7812 c 0
 182.129 13.1836 161.133 -5.85938 120.117 -5.85938 c 0
 99.1211 -5.85938 83.0078 0 70.8008 12.207 c 0
 59.082 23.9258 53.2227 40.5273 53.2227 62.0117 c 2
 53.2227 193.848 l 2
 53.2227 234.863 72.7539 261.23 111.816 272.949 c 1
 94.7266 286.133 67.3828 292.969 29.7852 292.969 c 1
 37.1094 319.824 57.1289 341.797 88.8672 359.863 c 0
 116.211 376.465 145.508 384.766 175.781 384.766 c 0
 277.832 384.766 329.102 342.285 329.102 256.836 c 2
 329.102 19.043 l 1
 387.207 19.043 l 2
 396.973 19.043 405.273 21.9727 412.598 27.832 c 0
 419.434 34.1797 422.852 42.9688 422.852 55.1758 c 2
 422.852 377.93 l 1
 475.098 377.93 l 1
 475.098 55.1758 l 2
475.098 -44.9219 m 1
 475.098 -145.02 437.5 -194.824 362.793 -194.824 c 0
 337.891 -194.824 316.406 -186.523 298.34 -169.922 c 0
 280.762 -153.32 271.973 -132.324 271.973 -106.934 c 0
 271.973 -88.8672 277.344 -74.2188 288.574 -62.5 c 0
 299.316 -50.7812 313.477 -44.9219 331.055 -44.9219 c 0
 344.238 -44.9219 354.98 -50.7812 362.305 -62.0117 c 0
 370.117 -73.2422 374.023 -85.9375 374.023 -100.098 c 0
 374.023 -113.77 370.117 -126.465 362.305 -138.184 c 0
 354.98 -149.414 344.238 -154.785 331.055 -154.785 c 2
 323.242 -153.809 l 1
 335.449 -168.457 352.051 -175.781 372.07 -175.781 c 0
 381.348 -175.781 390.137 -171.875 397.949 -164.062 c 0
 405.762 -155.762 412.598 -147.461 417.969 -138.184 c 0
 422.852 -129.883 425.293 -119.629 426.27 -106.445 c 0
 427.734 -93.2617 427.734 -81.543 426.758 -69.8242 c 1
 425.781 -44.9219 l 1
 475.098 -44.9219 l 1
166.016 50.7812 m 0
 166.016 62.5 163.574 71.7773 158.203 79.1016 c 0
 152.832 86.4258 146.484 89.8438 140.137 89.8438 c 0
 133.301 89.8438 126.953 86.4258 120.605 79.1016 c 0
 114.258 71.7773 110.84 62.0117 110.84 49.8047 c 0
 110.84 40.5273 113.281 32.2266 118.164 24.4141 c 0
 122.559 16.6016 129.883 13.1836 140.137 13.1836 c 0
 146.484 13.1836 152.832 16.1133 158.203 22.9492 c 0
 163.574 29.7852 166.016 39.0625 166.016 50.7812 c 0
357.91 -100.098 m 0
 357.91 -90.8203 355.469 -82.0312 350.586 -73.7305 c 0
 345.703 -64.9414 338.867 -61.0352 331.055 -61.0352 c 0
 323.73 -61.0352 316.895 -65.4297 311.035 -75.1953 c 0
 308.105 -79.1016 306.641 -83.4961 306.152 -87.8906 c 0
 305.176 -92.7734 305.176 -96.6797 305.176 -100.098 c 0
 305.176 -105.469 305.664 -110.352 307.129 -114.258 c 0
 308.105 -118.652 309.57 -122.559 311.035 -125 c 0
 314.453 -130.371 317.871 -133.789 320.801 -136.23 c 0
 324.219 -138.184 327.637 -139.16 331.055 -140.137 c 0
 340.332 -140.137 347.168 -136.23 351.562 -128.418 c 0
 355.957 -120.605 357.91 -111.328 357.91 -100.098 c 0
EndSplineSet
Fore
475 378 m 1
 475 55 l 2
 475 18 461 0 432 0 c 2
 277 0 l 1
 277 257 l 2
 277 313 231 352 175 352 c 0
 128 352 91 338 65 310 c 1
 99 310 127 295 149 266 c 1
 122 258 105 239 105 207 c 2
 105 94 l 1
 114 105 125 110 140 110 c 0
 163 110 182 90 182 51 c 0
 182 13 161 -6 120 -6 c 0
 79 -6 53 19 53 62 c 2
 53 194 l 2
 53 235 73 261 112 273 c 1
 95 286 67 293 30 293 c 1
 37 320 57 342 89 360 c 0
 116 377 145 385 176 385 c 0
 278 385 329 342 329 257 c 2
 329 19 l 1
 387 19 l 2
 407 19 423 31 423 55 c 2
 423 378 l 1
 475 378 l 1
475 -45 m 1
 475 -145 438 -195 363 -195 c 0
 312 -195 272 -158 272 -107 c 0
 272 -71 296 -45 331 -45 c 0
 358 -45 374 -72 374 -100 c 0
 374 -128 358 -155 331 -155 c 2
 323 -154 l 1
 336 -169 352 -176 372 -176 c 0
 391 -176 407 -157 418 -138 c 0
 427 -122 428 -93 427 -70 c 1
 426 -45 l 1
 475 -45 l 1
111 50 m 0
 111 31 120 13 140 13 c 0
 153 13 166 27 166 51 c 0
 166 74 153 90 140 90 c 0
 127 90 111 74 111 50 c 0
305 -100 m 0
 305 -111 308 -120 311 -125 c 0
 318 -136 324 -139 331 -140 c 0
 350 -140 358 -123 358 -100 c 0
 358 -81 347 -61 331 -61 c 0
 324 -61 317 -66 311 -75 c 0
 306 -83 305 -93 305 -100 c 0
EndSplineSet
EndChar
StartChar: uni0E0E
Encoding: 174 3598 141
Width: 428
Flags: HMW
HStem: 352 33<206 243.5>
VStem: 308 52<-90 274>
Back
359.863 -161.133 m 1
 359.863 256.836 l 2
 359.863 278.32 355.957 297.852 348.633 314.941 c 0
 340.82 332.52 329.102 346.68 313.965 357.91 c 0
 300.781 368.164 287.598 375 274.414 378.906 c 0
 261.719 382.812 243.652 384.766 221.191 384.766 c 0
 190.918 384.766 161.621 376.465 132.812 359.863 c 0
 117.188 350.586 103.516 340.332 91.7969 329.59 c 0
 80.5664 318.359 73.2422 306.152 68.8477 292.969 c 1
 104.98 292.969 133.301 286.133 153.809 272.949 c 1
 116.211 262.207 97.168 235.84 97.168 192.871 c 2
 97.168 104.004 l 1
 85.4492 111.816 76.1719 116.211 68.8477 116.211 c 0
 53.7109 116.211 41.5039 109.863 33.2031 97.168 c 0
 24.4141 84.4727 20.0195 69.8242 20.0195 54.1992 c 0
 20.0195 35.1562 25.3906 20.5078 36.6211 9.76562 c 0
 47.3633 -0.488281 62.5 -5.85938 81.0547 -5.85938 c 0
 106.445 -5.85938 124.023 0 133.789 12.207 c 0
 144.043 23.9258 148.926 42.4805 148.926 67.8711 c 2
 148.926 207.031 l 2
 148.926 222.168 153.32 234.863 161.621 245.117 c 0
 169.922 254.883 180.176 262.207 192.871 266.113 c 1
 171.875 295.41 144.043 310.059 109.863 310.059 c 1
 136.23 337.891 172.852 352.051 220.215 352.051 c 0
 248.535 352.051 270.508 343.262 285.645 326.172 c 0
 300.293 308.594 308.105 285.645 308.105 256.836 c 2
 308.105 -89.8438 l 1
 276.855 -67.8711 l 2
 272.461 -64.4531 268.066 -62.0117 264.648 -59.5703 c 0
 260.742 -57.1289 257.812 -55.1758 254.883 -53.2227 c 1
 255.859 -49.8047 256.348 -43.457 257.324 -34.1797 c 0
 258.301 -24.9023 259.766 -13.1836 261.23 0 c 1
 230.957 0 l 1
 230.469 -12.207 229.98 -20.9961 229.492 -26.8555 c 0
 229.004 -33.2031 228.516 -37.5977 227.051 -41.0156 c 1
 216.309 -37.1094 205.566 -33.6914 193.848 -30.7617 c 0
 182.617 -28.3203 171.387 -26.8555 160.156 -26.8555 c 0
 138.184 -26.8555 118.164 -33.2031 100.586 -44.9219 c 0
 83.0078 -57.1289 74.2188 -73.7305 74.2188 -95.2148 c 0
 74.2188 -104.98 76.1719 -113.77 81.0547 -121.094 c 0
 85.4492 -128.418 91.7969 -134.277 99.1211 -139.16 c 0
 106.445 -143.555 114.746 -146.973 124.023 -148.926 c 0
 133.301 -150.879 142.578 -151.855 151.855 -151.855 c 0
 157.227 -151.855 162.598 -151.855 167.48 -150.879 c 0
 172.363 -150.391 177.246 -149.414 182.129 -147.949 c 0
 203.125 -142.578 218.262 -133.789 227.539 -121.094 c 0
 236.328 -108.398 242.188 -98.1445 244.141 -90.8203 c 1
 255.859 -101.074 267.09 -111.328 276.855 -122.559 c 0
 287.109 -133.301 296.387 -146.484 305.176 -161.133 c 1
 359.863 -161.133 l 1
220.215 -74.2188 m 1
 218.75 -84.4727 214.355 -95.2148 206.543 -104.98 c 0
 198.73 -115.234 189.941 -121.582 180.176 -125 c 0
 169.922 -128.418 160.156 -129.883 149.902 -129.883 c 0
 136.719 -129.883 124.512 -127.441 113.281 -122.07 c 0
 102.539 -116.699 97.168 -107.422 97.168 -94.2383 c 0
 97.168 -82.0312 103.027 -72.2656 115.234 -65.4297 c 0
 126.953 -58.5938 140.625 -55.1758 155.762 -55.1758 c 0
 166.504 -55.1758 177.734 -56.1523 189.453 -59.082 c 0
 201.172 -61.5234 211.426 -66.8945 220.215 -74.2188 c 1
97.168 54.1992 m 0
 97.168 40.5273 94.2383 30.7617 87.8906 23.9258 c 0
 82.0312 17.0898 75.1953 14.1602 67.8711 14.1602 c 0
 61.5234 14.1602 55.1758 17.0898 48.8281 23.9258 c 0
 42.9688 30.7617 40.0391 40.5273 40.0391 54.1992 c 0
 40.0391 62.5 42.4805 71.2891 46.875 80.0781 c 0
 51.7578 88.8672 58.5938 92.7734 67.8711 92.7734 c 0
 76.6602 92.7734 83.4961 89.3555 88.8672 82.5195 c 0
 94.2383 75.6836 97.168 65.918 97.168 54.1992 c 0
EndSplineSet
Fore
360 -161 m 1
 305 -161 l 1
 288 -132 268 -111 244 -91 c 1
 240 -106 225 -137 182 -148 c 0
 173 -151 163 -152 152 -152 c 0
 115 -152 74 -136 74 -95 c 0
 74 -52 116 -27 160 -27 c 0
 183 -27 206 -33 227 -41 c 1
 230 -34 230 -24 231 0 c 1
 261 0 l 1
 258 -27 256 -46 255 -53 c 1
 260 -57 268 -61 277 -68 c 2
 308 -90 l 1
 308 257 l 2
 308 314 277 352 220 352 c 0
 173 352 136 338 110 310 c 1
 144 310 172 295 193 266 c 1
 168 258 149 238 149 207 c 2
 149 68 l 2
 149 17 132 -6 81 -6 c 0
 44 -6 20 17 20 54 c 0
 20 86 38 116 69 116 c 0
 76 116 86 112 97 104 c 1
 97 193 l 2
 97 236 116 262 154 273 c 1
 133 286 105 293 69 293 c 1
 77 320 101 341 133 360 c 0
 162 377 191 385 221 385 c 0
 266 385 287 378 314 358 c 0
 345 335 360 300 360 257 c 2
 360 -161 l 1
220 -74 m 1
 203 -59 177 -55 156 -55 c 0
 125 -55 97 -70 97 -94 c 0
 97 -121 123 -130 150 -130 c 1
 179 -134 216 -109 220 -74 c 1
40 54 m 0
 40 27 55 14 68 14 c 0
 83 14 97 27 97 54 c 0
 97 78 85 93 68 93 c 0
 49 93 40 71 40 54 c 0
EndSplineSet
EndChar
StartChar: uni0E0F
Encoding: 175 3599 142
Width: 428
Flags: HMW
HStem: 352 33<206 243.5>
VStem: 308 52<-93 275>
Back
359.863 256.836 m 2
 359.863 278.32 355.957 297.852 348.633 314.941 c 0
 340.82 332.52 329.102 346.68 313.965 357.91 c 0
 300.781 368.164 287.598 375 274.414 378.906 c 0
 261.719 382.812 243.652 384.766 221.191 384.766 c 0
 190.918 384.766 161.621 376.465 132.812 359.863 c 0
 117.188 350.586 103.516 340.332 91.7969 329.59 c 0
 80.5664 318.359 73.2422 306.152 68.8477 292.969 c 1
 104.98 292.969 133.301 286.133 153.809 272.949 c 1
 116.211 262.207 97.168 235.84 97.168 192.871 c 2
 97.168 103.027 l 1
 94.2383 106.934 90.332 110.352 84.4727 112.305 c 0
 78.6133 114.746 73.7305 116.211 68.8477 116.211 c 0
 53.7109 116.211 41.5039 109.863 33.2031 97.168 c 0
 24.4141 84.4727 20.0195 69.8242 20.0195 54.1992 c 0
 20.0195 35.1562 25.3906 20.5078 36.6211 9.76562 c 0
 47.3633 -0.488281 62.5 -5.85938 81.0547 -5.85938 c 0
 107.91 -5.85938 125.488 0.488281 134.766 14.1602 c 0
 144.531 27.3438 148.926 44.9219 148.926 66.8945 c 2
 148.926 206.055 l 2
 148.926 221.191 153.32 234.375 161.621 244.629 c 0
 169.922 254.883 180.176 262.207 192.871 266.113 c 1
 171.875 295.41 144.043 310.059 109.863 310.059 c 1
 136.23 337.891 172.852 352.051 220.215 352.051 c 0
 248.535 352.051 270.508 343.262 285.645 326.172 c 0
 300.293 308.594 308.105 285.645 308.105 256.836 c 2
 308.105 -92.7734 l 1
 272.949 -28.8086 l 1
 243.164 -96.1914 l 1
 229.004 -79.1016 216.797 -66.8945 207.031 -58.1055 c 1
 208.496 -48.8281 209.473 -40.5273 209.961 -33.6914 c 0
 210.449 -26.3672 210.938 -19.5312 210.938 -12.207 c 2
 210.938 0 l 1
 190.918 0 l 1
 190.918 -7.32422 190.918 -14.6484 190.43 -22.4609 c 0
 189.941 -30.2734 188.965 -37.5977 187.012 -44.9219 c 1
 176.758 -37.5977 167.969 -33.2031 160.156 -31.7383 c 0
 151.855 -29.7852 142.09 -28.8086 130.859 -28.8086 c 0
 112.305 -28.8086 96.1914 -34.1797 82.0312 -44.9219 c 0
 67.8711 -55.6641 61.0352 -69.8242 61.0352 -87.8906 c 0
 61.0352 -104.492 67.8711 -118.164 82.0312 -128.418 c 0
 96.1914 -138.672 111.816 -144.043 129.883 -144.043 c 0
 165.527 -144.043 187.012 -126.465 194.824 -91.7969 c 1
 203.613 -103.516 209.961 -114.746 213.379 -126.465 c 0
 217.285 -138.184 219.727 -149.902 221.191 -162.109 c 1
 244.141 -162.109 l 1
 273.926 -91.7969 l 1
 312.012 -162.109 l 1
 359.863 -162.109 l 1
 359.863 256.836 l 2
179.199 -76.1719 m 1
 170.898 -107.91 154.785 -124.023 129.883 -124.023 c 0
 118.652 -124.023 108.398 -120.605 99.1211 -113.281 c 0
 89.8438 -106.445 84.9609 -98.1445 84.9609 -88.8672 c 0
 84.9609 -66.4062 99.1211 -55.1758 126.953 -55.1758 c 0
 136.23 -55.1758 145.996 -56.6406 155.273 -60.0586 c 0
 165.039 -63.4766 172.852 -68.8477 179.199 -76.1719 c 1
97.168 54.1992 m 0
 97.168 40.5273 94.2383 30.7617 87.8906 23.9258 c 0
 82.0312 17.0898 75.1953 14.1602 67.8711 14.1602 c 0
 61.5234 14.1602 55.1758 17.0898 48.8281 23.9258 c 0
 42.9688 30.7617 40.0391 40.5273 40.0391 54.1992 c 0
 40.0391 62.5 42.4805 71.2891 46.875 80.0781 c 0
 51.7578 88.8672 58.5938 92.7734 67.8711 92.7734 c 0
 76.6602 92.7734 83.4961 89.3555 88.8672 82.5195 c 0
 94.2383 75.6836 97.168 65.918 97.168 54.1992 c 0
EndSplineSet
Fore
360 -162 m 1
 312 -162 l 1
 274 -92 l 1
 244 -162 l 1
 221 -162 l 1
 218 -138 212 -115 195 -92 c 1
 187 -127 165 -144 130 -144 c 0
 94 -144 61 -121 61 -88 c 0
 61 -52 94 -29 131 -29 c 0
 154 -29 167 -30 187 -45 c 1
 191 -30 191 -15 191 0 c 1
 211 0 l 1
 211 -12 l 2
 211 -27 210 -39 207 -58 c 1
 217 -67 229 -79 243 -96 c 1
 273 -29 l 1
 308 -93 l 1
 308 257 l 2
 308 314 277 352 220 352 c 0
 173 352 136 338 110 310 c 1
 144 310 172 295 193 266 c 1
 168 258 149 237 149 206 c 2
 149 67 l 2
 149 23 134 -6 81 -6 c 0
 44 -6 20 17 20 54 c 0
 20 86 38 116 69 116 c 0
 78 116 92 111 97 103 c 1
 97 193 l 2
 97 236 116 262 154 273 c 1
 133 286 105 293 69 293 c 1
 77 320 101 341 133 360 c 0
 162 377 191 385 221 385 c 0
 266 385 287 378 314 358 c 0
 345 335 360 300 360 257 c 2
 360 -162 l 1
179 -76 m 1
 167 -61 146 -55 127 -55 c 0
 99 -55 85 -66 85 -89 c 0
 85 -108 107 -124 130 -124 c 0
 155 -124 171 -108 179 -76 c 1
40 54 m 0
 40 27 55 14 68 14 c 0
 83 14 97 27 97 54 c 0
 97 78 85 93 68 93 c 0
 49 93 40 71 40 54 c 0
EndSplineSet
EndChar
StartChar: uni0E10
Encoding: 176 3600 143
Width: 356
Flags: HMW
HStem: 0 21<194 246 246 246> 106 19<102 104> 197 23<101 114>
VStem: 59 19<162 171>
DStem: 123 -108 138 -117 110 -133 122 -147 169 -134 170 -170 138 -173 146 -198
Back
246.094 -198.242 m 1
 246.094 -82.0312 l 2
 246.094 -37.1094 225.098 -15.1367 184.082 -15.1367 c 0
 168.457 -15.1367 156.738 -20.5078 148.438 -30.7617 c 0
 140.137 -41.5039 136.23 -54.6875 136.23 -69.8242 c 0
 136.23 -83.4961 139.648 -95.7031 146.484 -106.934 c 0
 153.32 -118.164 164.062 -124.023 178.223 -124.023 c 0
 187.988 -124.023 196.777 -120.117 205.078 -111.816 c 1
 205.078 -167.969 l 1
 168.945 -133.789 l 1
 138.184 -172.852 l 1
 131.348 -159.668 125.977 -150.879 122.07 -146.973 c 1
 138.184 -117.188 l 1
 123.047 -107.91 l 1
 109.863 -132.812 l 1
 97.168 -123.047 82.0312 -118.164 63.9648 -118.164 c 0
 52.7344 -118.164 42.4805 -122.07 33.6914 -129.395 c 0
 24.4141 -137.207 20.0195 -146.484 20.0195 -158.203 c 0
 20.0195 -169.434 23.9258 -178.711 31.7383 -186.523 c 0
 39.0625 -194.336 48.8281 -198.242 60.0586 -198.242 c 0
 78.6133 -198.242 96.1914 -187.012 111.816 -165.039 c 1
 121.094 -180.176 l 2
 123.535 -184.57 125 -190.43 125 -198.242 c 1
 145.996 -198.242 l 1
 169.922 -169.922 l 1
 201.172 -198.242 l 1
 246.094 -198.242 l 1
202.148 -69.8242 m 0
 202.148 -82.0312 199.707 -91.3086 194.824 -97.6562 c 0
 190.43 -104.004 184.57 -106.934 178.223 -106.934 c 0
 170.898 -106.934 165.039 -103.516 161.133 -96.1914 c 0
 157.227 -88.8672 154.785 -80.0781 154.785 -69.8242 c 0
 154.785 -58.1055 157.227 -48.8281 162.109 -42.9688 c 0
 166.504 -37.1094 171.875 -34.1797 178.223 -34.1797 c 0
 193.848 -34.1797 202.148 -45.8984 202.148 -69.8242 c 0
99.1211 -149.902 m 1
 91.7969 -161.133 84.9609 -168.945 78.6133 -173.34 c 0
 72.2656 -177.734 66.4062 -180.176 61.0352 -180.176 c 0
 53.7109 -180.176 48.3398 -177.734 44.9219 -172.852 c 0
 41.5039 -168.457 40.0391 -163.574 40.0391 -158.203 c 0
 40.0391 -151.855 41.9922 -146.484 46.3867 -142.09 c 0
 50.7812 -137.207 56.6406 -134.766 63.9648 -134.766 c 0
 75.1953 -134.766 86.9141 -140.137 99.1211 -149.902 c 1
246.094 196.777 m 1
 245.117 231.445 228.027 258.789 193.848 277.832 c 0
 166.504 292.48 132.812 299.805 92.7734 299.805 c 0
 81.0547 299.805 72.2656 299.805 66.8945 299.316 c 0
 61.5234 299.316 57.1289 298.828 54.1992 297.852 c 1
 62.5 326.66 86.4258 340.82 125.977 340.82 c 0
 131.836 340.82 139.648 339.355 148.926 336.426 c 0
 158.203 333.496 168.457 330.566 180.176 327.148 c 0
 191.895 323.242 202.148 320.312 210.938 318.359 c 0
 219.727 316.895 226.562 315.918 231.934 315.918 c 0
 269.531 315.918 293.945 337.402 306.152 379.883 c 1
 285.156 379.883 l 1
 280.273 370.117 275.391 361.816 269.531 354.98 c 0
 263.672 348.145 255.371 345.215 244.141 345.215 c 0
 240.723 345.215 236.328 346.191 231.445 348.633 c 0
 226.562 351.074 221.191 353.516 215.332 356.445 c 0
 209.961 359.375 204.102 362.305 198.73 365.723 c 0
 192.871 368.652 187.988 371.094 184.082 373.047 c 0
 174.805 377.441 165.527 380.859 155.762 382.324 c 0
 146.484 384.277 137.207 384.766 127.93 384.766 c 0
 113.77 384.766 101.074 382.324 88.8672 376.465 c 0
 77.1484 370.605 66.4062 363.281 56.6406 353.516 c 0
 46.875 343.75 39.0625 332.52 33.2031 319.824 c 0
 26.8555 307.129 22.9492 293.457 20.9961 278.809 c 1
 66.8945 278.809 103.027 275.391 128.906 268.066 c 0
 170.898 256.836 192.871 232.91 193.848 195.801 c 1
 193.848 161.133 l 1
 186.523 180.176 175.781 194.824 161.621 205.078 c 0
 146.973 214.844 131.348 220.215 113.77 220.215 c 0
 95.2148 220.215 81.543 214.355 72.2656 203.613 c 0
 63.4766 192.383 59.082 178.711 59.082 162.109 c 0
 59.082 148.438 62.9883 136.23 71.2891 124.023 c 0
 79.5898 111.816 89.8438 105.957 102.051 105.957 c 0
 115.234 105.957 125.977 111.328 133.789 122.559 c 0
 142.09 133.301 145.996 145.996 145.996 160.156 c 0
 145.996 170.898 144.531 179.199 141.113 186.035 c 1
 157.227 171.875 169.922 149.414 179.688 118.652 c 0
 188.965 87.4023 193.848 47.8516 193.848 0 c 1
 246.094 0 l 1
 246.094 196.777 l 1
126.953 162.109 m 0
 126.953 149.902 124.512 140.625 119.629 134.277 c 0
 114.258 127.93 108.887 125 102.051 125 c 0
 94.7266 125 88.8672 127.93 84.4727 134.277 c 0
 80.0781 140.625 78.125 149.902 78.125 162.109 c 0
 78.125 171.875 80.0781 180.176 84.4727 187.012 c 0
 88.8672 193.848 94.7266 196.777 102.051 196.777 c 0
 109.863 196.777 116.211 193.359 120.605 185.547 c 0
 125 177.734 126.953 169.922 126.953 162.109 c 0
EndSplineSet
Fore
246 -198 m 1
 201 -198 l 1
 170 -170 l 1
 146 -198 l 1
 125 -198 l 1
 125 -191 124 -185 121 -180 c 2
 112 -165 l 1
 96 -187 79 -198 60 -198 c 0
 37 -198 20 -181 20 -158 c 0
 20 -135 41 -118 64 -118 c 0
 82 -118 97 -123 110 -133 c 1
 123 -108 l 1
 138 -117 l 1
 122 -147 l 1
 126 -151 131 -160 138 -173 c 1
 169 -134 l 1
 205 -168 l 1
 205 -112 l 1
 197 -120 188 -124 178 -124 c 0
 150 -124 136 -97 136 -70 c 0
 136 -39 153 -15 184 -15 c 0
 225 -15 246 -37 246 -82 c 2
 246 -198 l 1
155 -70 m 4
 155 -90 163 -107 178 -107 c 0
 191 -107 202 -94 202 -70 c 0
 202 -46 194 -34 178 -34 c 0
 166 -34 155 -46 155 -70 c 4
99 -150 m 1
 87 -140 75 -135 64 -135 c 0
 49 -135 40 -146 40 -158 c 0
 40 -169 46 -180 61 -180 c 0
 72 -180 84 -173 99 -150 c 1
306 380 m 1
 294 337 269 316 232 316 c 0
 221 316 204 319 180 327 c 0
 157 334 138 341 126 341 c 0
 87 341 63 327 54 298 c 1
 61 299 69 300 93 300 c 0
 133 300 167 293 194 278 c 0
 228 259 245 232 246 197 c 1
 246 0 l 1
 194 0 l 1
 194 96 173 158 141 186 c 1
 144 179 146 171 146 160 c 0
 146 132 129 106 102 106 c 0
 78 106 59 135 59 162 c 0
 59 195 77 220 114 220 c 0
 149 220 179 200 194 161 c 1
 194 196 l 1
 193 233 171 257 129 268 c 0
 103 275 67 279 21 279 c 1
 29 337 72 385 128 385 c 0
 147 385 165 382 184 373 c 0
 200 365 232 345 244 345 c 0
 267 345 276 360 285 380 c 1
 306 380 l 1
78 162 m 0
 78 138 87 125 102 125 c 0
 115 125 127 138 127 162 c 0
 127 178 118 197 102 197 c 0
 87 197 78 182 78 162 c 0
EndSplineSet
EndChar
StartChar: uni0E11
Encoding: 177 3601 144
Width: 458
Flags: HMW
HStem: 0 21<118 172 118 118 338 390 338 338> 236 20<50 56> 364 21<160 166.5>
VStem: 5 20<298 305> 75 21<298 305> 118 52<0 177> 185 35<320 339> 338 52<0 325>
DStem: 264 326 283 319 170 64 172 0
Back
390.137 0 m 1
 337.891 0 l 1
 337.891 312.988 l 2
 337.891 322.266 335.449 329.102 331.055 333.496 c 0
 326.172 337.891 320.801 339.844 314.941 339.844 c 0
 308.105 339.844 302.246 338.867 296.387 336.426 c 0
 291.016 333.984 286.133 328.125 283.203 318.848 c 2
 171.875 0 l 1
 118.164 0 l 1
 118.164 173.828 l 2
 118.164 187.5 120.605 201.172 125.488 215.332 c 0
 130.371 229.98 138.672 245.605 149.902 263.184 c 0
 173.34 295.898 185.059 316.895 185.059 326.172 c 0
 185.059 351.562 175.781 363.77 157.227 363.77 c 0
 147.461 363.77 140.137 358.887 134.277 349.121 c 0
 128.906 338.867 125.977 329.102 125.977 319.824 c 1
 111.816 319.824 l 1
 111.816 350.098 101.562 365.234 81.0547 365.234 c 0
 70.3125 365.234 62.0117 361.816 56.1523 355.957 c 1
 68.8477 355.957 78.6133 351.074 85.4492 340.332 c 0
 92.2852 330.078 96.1914 315.918 96.1914 297.852 c 0
 96.1914 278.809 91.7969 263.672 83.0078 252.441 c 0
 74.2188 241.699 63.4766 235.84 49.8047 235.84 c 0
 38.0859 235.84 27.3438 241.699 18.5547 252.441 c 0
 9.27734 263.672 4.88281 278.809 4.88281 297.852 c 0
 4.88281 309.57 6.83594 320.312 11.2305 330.566 c 0
 15.1367 340.82 20.5078 350.098 26.8555 357.91 c 0
 33.6914 366.211 41.5039 372.559 50.293 377.441 c 0
 59.5703 382.324 69.3359 384.766 80.0781 384.766 c 0
 97.168 384.766 110.84 375.977 120.117 357.91 c 1
 124.512 372.559 138.184 381.836 160.156 384.766 c 1
 200.195 384.766 220.215 365.234 220.215 325.195 c 0
 220.215 315.43 218.262 306.641 214.355 297.363 c 0
 210.938 288.574 207.031 278.809 203.125 269.043 c 0
 192.383 247.559 184.082 229.004 178.711 212.891 c 0
 172.852 196.777 169.922 184.57 169.922 174.805 c 2
 169.922 63.9648 l 1
 264.16 326.172 l 2
 277.832 365.234 300.781 384.766 332.031 384.766 c 0
 348.145 384.766 361.816 378.906 373.047 367.188 c 0
 384.277 354.98 390.137 340.82 390.137 325.195 c 2
 390.137 0 l 1
75.1953 297.852 m 0
 75.1953 312.012 72.7539 321.777 67.8711 328.125 c 0
 63.4766 333.984 57.1289 336.914 49.8047 336.914 c 0
 44.4336 336.914 39.0625 333.496 33.6914 326.172 c 0
 27.832 318.848 24.9023 309.57 24.9023 297.852 c 0
 24.9023 282.715 27.3438 271.973 32.2266 265.625 c 0
 36.6211 259.277 42.4805 255.859 49.8047 255.859 c 0
 56.6406 255.859 62.5 259.766 67.3828 268.066 c 0
 72.2656 275.879 75.1953 286.133 75.1953 297.852 c 0
EndSplineSet
Fore
390 0 m 1
 338 0 l 1
 338 313 l 2
 338 332 327 340 315 340 c 0
 302 340 290 338 283 319 c 1
 172 0 l 1
 118 0 l 1
 118 174 l 2
 118 201 127 228 150 263 c 0
 173 296 185 317 185 326 c 0
 185 351 176 364 157 364 c 0
 138 364 126 339 126 320 c 1
 112 320 l 1
 112 350 102 365 81 365 c 0
 70 365 62 362 56 356 c 1
 81 356 96 334 96 298 c 0
 96 259 77 236 50 236 c 0
 26 236 5 259 5 298 c 0
 5 342 38 385 80 385 c 0
 97 385 111 376 120 358 c 1
 125 373 138 382 160 385 c 1
 200 385 220 365 220 325 c 0
 220 306 211 289 203 269 c 1
 182 226 170 194 170 175 c 2
 170 64 l 1
 264 326 l 2
 278 365 301 385 332 385 c 0
 364 385 390 357 390 325 c 2
 390 0 l 1
25 298 m 4
 25 267 35 256 50 256 c 0
 63 256 75 274 75 298 c 0
 75 326 65 337 50 337 c 0
 39 337 25 321 25 298 c 4
EndSplineSet
EndChar
StartChar: uni0E12
Encoding: 178 3602 145
Width: 533
Flags: HMW
HStem: 352 33
VStem: 270 51<51 137 164 310> 413 52<124 378>
Back
464.844 0 m 1
 410.156 0 l 1
 410.156 38.5742 402.344 69.3359 386.719 91.7969 c 0
 370.605 114.746 349.121 129.883 320.801 137.207 c 1
 320.801 53.2227 l 2
 320.801 14.1602 304.199 -4.88281 270.996 -4.88281 c 0
 223.633 -4.88281 200.195 23.4375 200.195 80.0781 c 0
 200.195 123.535 223.145 151.367 270.02 164.062 c 1
 270.02 296.875 l 2
 270.02 316.406 265.625 330.566 256.836 339.844 c 0
 248.535 349.121 237.305 354.004 224.121 354.004 c 0
 196.777 354.004 181.152 338.867 176.758 308.105 c 1
 162.109 308.105 l 1
 158.203 338.867 142.09 354.004 115.234 354.004 c 0
 95.7031 354.004 81.0547 341.797 70.8008 316.895 c 0
 63.4766 296.875 60.0586 276.367 60.0586 254.883 c 0
 60.0586 241.699 62.5 228.027 66.8945 213.379 c 0
 71.7773 199.219 77.6367 184.082 84.9609 167.969 c 2
 120.117 95.2148 l 1
 160.156 149.902 l 1
 144.531 149.902 132.324 156.738 122.559 169.434 c 0
 112.793 182.617 107.91 196.289 107.91 210.938 c 0
 107.91 227.539 112.793 242.188 122.07 253.906 c 0
 131.348 266.113 143.555 271.973 159.18 271.973 c 0
 178.223 271.973 192.383 265.625 200.684 252.441 c 0
 208.984 239.258 212.891 224.609 212.891 208.008 c 0
 212.891 197.266 208.984 183.594 201.172 166.504 c 0
 192.871 149.414 179.199 124.512 160.156 90.8203 c 0
 142.09 59.082 132.812 28.8086 132.812 0 c 1
 70.8008 0 l 1
 70.8008 15.1367 67.8711 36.1328 62.0117 62.0117 c 0
 56.1523 87.8906 47.3633 120.117 36.1328 158.203 c 0
 25.3906 193.848 20.0195 224.609 20.0195 250 c 0
 20.0195 282.715 26.3672 312.012 39.0625 337.891 c 0
 55.1758 369.141 78.125 384.766 107.91 384.766 c 0
 132.812 384.766 153.32 372.559 169.922 348.145 c 1
 182.617 372.559 204.59 384.766 235.84 384.766 c 0
 263.184 384.766 284.668 376.953 299.316 360.84 c 0
 314.453 345.215 321.777 323.242 321.777 295.898 c 2
 321.777 166.016 l 1
 340.82 162.598 357.91 157.227 373.535 149.902 c 0
 389.16 142.578 402.344 133.789 413.086 124.023 c 1
 413.086 377.93 l 1
 464.844 377.93 l 1
 464.844 0 l 1
182.129 210.938 m 0
 182.129 220.215 179.688 229.004 174.805 237.305 c 0
 170.41 245.605 163.574 250 154.785 250 c 0
 147.461 250 141.602 247.07 136.719 240.723 c 0
 131.348 234.375 128.906 224.121 128.906 210.938 c 0
 128.906 198.242 131.348 188.477 136.719 181.641 c 0
 141.602 174.316 147.461 170.898 154.785 170.898 c 0
 162.109 170.898 168.457 174.316 173.828 181.641 c 0
 179.199 188.477 182.129 198.242 182.129 210.938 c 0
270.02 55.1758 m 2
 270.02 137.207 l 1
 255.371 132.812 243.652 125.977 235.352 116.211 c 0
 227.051 105.957 223.145 92.7734 223.145 76.1719 c 0
 223.145 62.5 225.098 51.7578 229.492 43.457 c 0
 233.887 35.1562 240.723 30.7617 250 30.7617 c 0
 263.184 30.7617 270.02 39.0625 270.02 55.1758 c 2
EndSplineSet
Fore
465 0 m 1
 410 0 l 1
 410 77 377 122 321 137 c 1
 321 53 l 2
 321 14 304 -5 271 -5 c 0
 224 -5 200 23 200 80 c 0
 200 123 223 151 270 164 c 1
 270 297 l 2
 270 336 251 354 224 354 c 0
 197 354 181 339 177 308 c 1
 162 308 l 1
 158 339 142 354 115 354 c 0
 96 354 81 342 71 317 c 0
 64 297 60 276 60 255 c 0
 60 228 70 200 85 168 c 2
 120 95 l 1
 160 150 l 1
 129 150 108 182 108 211 c 0
 108 244 128 272 159 272 c 0
 198 272 213 241 213 208 c 0
 213 187 199 158 160 91 c 0
 142 59 133 29 133 0 c 1
 71 0 l 1
 71 31 59 82 36 158 c 0
 25 194 20 225 20 250 c 0
 20 283 26 312 39 338 c 0
 55 369 78 385 108 385 c 0
 133 385 153 373 170 348 c 1
 183 373 205 385 236 385 c 0
 291 385 322 351 322 296 c 2
 322 166 l 1
 359 159 392 144 413 124 c 1
 413 378 l 1
 465 378 l 1
 465 0 l 1
129 211 m 0
 129 186 140 171 155 171 c 0
 170 171 182 186 182 211 c 0
 182 230 172 250 155 250 c 0
 140 250 129 238 129 211 c 0
270 137 m 5
 241 129 223 109 223 76 c 0
 223 49 231 31 250 31 c 0
 263 31 270 39 270 55 c 2
 270 137 l 5
EndSplineSet
EndChar
StartChar: uni0E13
Encoding: 179 3603 146
Width: 582
Flags: HMW
HStem: 352 33<162.5 204>
VStem: 275 54<0 21.9516 0 268> 415 52<43.6448 137 165 378>
Back
537.109 80.0781 m 0
 537.109 51.2695 530.273 29.7852 517.09 16.1133 c 0
 503.906 1.95312 486.816 -4.88281 465.82 -4.88281 c 0
 448.242 -4.88281 435.059 0 426.758 9.27734 c 0
 418.945 19.043 415.039 33.6914 415.039 53.2227 c 2
 415.039 137.207 l 1
 384.766 129.883 362.305 111.816 347.168 83.9844 c 0
 334.961 60.0586 329.102 32.2266 329.102 0 c 1
 274.902 0 l 1
 274.902 256.836 l 2
 274.902 285.156 265.625 307.617 246.582 325.684 c 0
 227.539 343.262 204.102 352.051 175.781 352.051 c 0
 128.906 352.051 91.7969 337.891 65.918 309.082 c 1
 100.586 309.082 128.418 294.434 148.926 266.113 c 1
 135.742 261.23 125 254.395 117.188 244.629 c 0
 108.887 234.863 104.98 222.168 104.98 207.031 c 2
 104.98 103.027 l 1
 107.91 107.91 111.816 110.84 117.676 112.793 c 0
 123.047 115.234 129.883 116.211 137.207 116.211 c 0
 151.855 116.211 163.574 109.375 171.875 96.6797 c 0
 180.664 83.4961 185.059 69.8242 185.059 55.1758 c 0
 185.059 14.1602 164.062 -5.85938 122.07 -5.85938 c 0
 98.6328 -5.85938 81.543 0 69.8242 12.207 c 0
 58.5938 23.9258 53.2227 40.5273 53.2227 62.0117 c 2
 53.2227 192.871 l 2
 53.2227 234.375 73.2422 261.23 112.793 272.949 c 1
 95.7031 286.133 67.8711 292.969 29.7852 292.969 c 1
 38.0859 318.848 57.6172 341.309 88.8672 359.863 c 0
 118.164 376.465 147.461 384.766 176.758 384.766 c 0
 276.855 384.766 327.148 342.285 327.148 256.836 c 2
 327.148 113.77 l 1
 336.914 127.441 349.609 138.184 365.723 146.973 c 0
 381.348 155.762 397.461 162.109 415.039 166.016 c 1
 415.039 377.93 l 1
 466.797 377.93 l 1
 466.797 164.062 l 1
 486.328 158.203 502.93 147.949 516.602 133.789 c 0
 530.273 120.117 537.109 102.051 537.109 80.0781 c 0
514.16 76.1719 m 0
 514.16 93.2617 508.789 106.934 499.023 117.188 c 0
 488.77 126.953 478.516 133.789 466.797 137.207 c 1
 466.797 51.7578 l 2
 466.797 44.4336 468.75 39.5508 472.168 36.1328 c 0
 475.098 32.7148 479.492 30.7617 483.887 30.7617 c 0
 490.723 30.7617 497.559 34.668 503.906 41.9922 c 0
 510.742 49.3164 514.16 60.5469 514.16 76.1719 c 0
166.992 55.1758 m 0
 166.992 63.4766 164.551 72.2656 159.18 81.0547 c 0
 153.809 89.8438 146.484 94.2383 137.207 94.2383 c 0
 129.883 94.2383 123.047 90.8203 116.699 84.4727 c 0
 110.352 78.125 106.934 68.3594 106.934 55.1758 c 0
 106.934 43.457 109.863 34.1797 116.211 26.3672 c 0
 122.07 19.043 128.906 15.1367 137.207 15.1367 c 0
 144.531 15.1367 151.367 18.5547 157.715 24.9023 c 0
 164.062 31.7383 166.992 41.5039 166.992 55.1758 c 0
EndSplineSet
Fore
467 378 m 5
 467 164 l 1
 506 152 537 124 537 80 c 0
 537 23 507 -5 466 -5 c 0
 430 -5 415 14 415 53 c 2
 415 137 l 1
 385 130 362 112 347 84 c 0
 335 60 329 32 329 0 c 1
 275 0 l 1
 275 257 l 2
 275 313 232 352 176 352 c 0
 129 352 92 338 66 309 c 1
 101 309 128 295 149 266 c 1
 122 257 105 238 105 207 c 2
 105 103 l 1
 110 112 122 116 137 116 c 0
 166 116 185 84 185 55 c 0
 185 14 164 -6 122 -6 c 0
 75 -6 53 19 53 62 c 2
 53 193 l 2
 53 234 73 261 113 273 c 1
 96 286 68 293 30 293 c 1
 38 319 58 341 89 360 c 0
 118 377 148 385 177 385 c 0
 277 385 327 342 327 257 c 2
 327 114 l 1
 347 141 380 158 415 166 c 1
 415 378 l 1
 467 378 l 5
467 137 m 1
 467 52 l 2
 467 37 475 31 484 31 c 0
 497 31 514 45 514 76 c 0
 514 111 490 130 467 137 c 1
107 55 m 0
 107 32 121 15 137 15 c 0
 152 15 167 28 167 55 c 0
 167 72 156 94 137 94 c 0
 122 94 107 82 107 55 c 0
EndSplineSet
EndChar
StartChar: uni0E14
Encoding: 180 3604 147
Width: 387
Flags: HMW
HStem: 0 21<80 80 80 132 267 267 267 319> 164 20<147 156> 262 24<150 160> 365 20<150 181>
VStem: 20 41<239 257> 106 21<224 226> 267 52<0 273>
Back
318.848 0 m 1
 267.09 0 l 1
 267.09 264.16 l 2
 267.09 293.457 257.812 317.383 238.77 336.426 c 0
 220.215 355.469 196.289 365.234 166.992 365.234 c 0
 132.812 365.234 106.934 354.98 88.3789 335.449 c 0
 70.3125 315.918 61.0352 289.062 61.0352 254.883 c 0
 61.0352 243.652 62.5 230.469 65.918 215.82 c 0
 69.3359 201.172 75.1953 185.059 83.9844 166.992 c 2
 118.164 94.2383 l 1
 155.762 164.062 l 1
 140.625 164.062 128.418 170.41 119.629 183.594 c 0
 110.352 196.289 105.957 209.961 105.957 224.121 c 0
 105.957 241.211 110.84 255.859 120.605 268.066 c 0
 130.371 279.785 143.555 286.133 160.156 286.133 c 0
 170.898 286.133 179.688 283.691 186.523 278.32 c 0
 193.359 273.438 199.219 267.09 203.613 259.766 c 0
 208.008 252.441 210.449 244.629 211.426 235.84 c 0
 212.402 227.539 212.402 219.238 210.938 211.914 c 0
 209.473 206.055 205.566 193.848 198.73 175.293 c 0
 191.406 157.227 178.223 129.883 159.18 92.7734 c 0
 149.902 75.1953 143.066 58.1055 138.672 42.9688 c 0
 134.277 27.832 131.836 13.1836 131.836 0 c 1
 80.0781 0 l 1
 80.0781 14.6484 77.1484 32.2266 71.7773 53.2227 c 0
 66.8945 73.7305 59.5703 97.6562 49.8047 125 c 0
 40.5273 152.832 33.2031 176.27 27.832 195.312 c 0
 22.4609 214.355 20.0195 229.492 20.0195 241.211 c 0
 20.0195 285.645 33.6914 320.801 60.5469 346.68 c 0
 87.4023 372.07 123.535 384.766 168.945 384.766 c 0
 208.496 384.766 242.188 375.488 270.996 355.957 c 0
 303.223 333.984 318.848 303.223 318.848 264.16 c 2
 318.848 0 l 1
179.199 224.121 m 0
 179.199 236.816 176.27 246.094 170.898 252.441 c 0
 165.527 258.789 159.18 262.207 151.855 262.207 c 0
 145.996 262.207 140.137 258.789 134.766 252.441 c 0
 129.883 246.094 126.953 236.816 126.953 224.121 c 0
 126.953 213.379 129.395 204.102 134.277 195.801 c 0
 139.648 187.988 145.996 184.082 153.809 184.082 c 0
 159.18 184.082 165.039 187.012 170.41 192.383 c 0
 176.27 198.242 179.199 208.496 179.199 224.121 c 0
EndSplineSet
Fore
80 0 m 1
 80 29 69 70 50 125 c 0
 31 181 20 218 20 241 c 0
 20 330 78 385 169 385 c 0
 208 385 242 375 271 356 c 0
 303 334 319 303 319 264 c 2
 319 0 l 1
 267 0 l 1
 267 264 l 2
 267 323 226 365 167 365 c 0
 99 365 61 323 61 255 c 0
 61 232 67 203 84 167 c 2
 118 94 l 1
 156 164 l 1
 125 164 106 196 106 224 c 0
 106 259 127 286 160 286 c 0
 202 286 216 241 211 212 c 0
 208 200 198 166 159 93 c 0
 140 57 132 27 132 0 c 1
 80 0 l 1
127 224 m 4
 127 203 138 184 154 184 c 0
 165 184 179 193 179 224 c 0
 179 249 167 262 152 262 c 0
 140 262 127 249 127 224 c 4
EndSplineSet
EndChar
StartChar: uni0E15
Encoding: 181 3605 148
Width: 395
Flags: HMW
HStem: 0 21<83 83 83 135 275 275 275 327> 164 20<152 158> 262 24<152 162> 309 21<170 184 170 170> 354 31<107 122 228 243>
VStem: 20 41<251 273> 108 21<224 226> 275 52<0 305>
Back
327.148 0 m 1
 327.148 286.133 l 2
 327.148 315.43 319.824 339.355 306.152 357.422 c 0
 291.992 375.977 270.996 384.766 243.164 384.766 c 0
 211.426 384.766 189.941 372.559 178.223 348.145 c 1
 161.133 372.559 139.16 384.766 111.816 384.766 c 0
 96.6797 384.766 83.0078 381.348 70.8008 374.023 c 0
 59.082 366.699 48.8281 355.469 41.0156 339.844 c 0
 34.1797 326.66 29.2969 312.988 25.3906 298.828 c 0
 21.9727 285.156 20.0195 269.531 20.0195 252.93 c 0
 20.0195 239.746 22.4609 225.098 27.3438 208.984 c 0
 32.7148 192.871 37.5977 175.781 42.9688 157.227 c 0
 54.1992 119.141 63.9648 87.4023 71.2891 61.5234 c 0
 79.1016 35.6445 83.0078 15.1367 83.0078 0 c 1
 134.766 0 l 1
 134.766 28.8086 143.555 59.5703 161.133 92.7734 c 0
 180.176 129.883 193.848 157.715 201.66 177.734 c 0
 208.984 197.266 212.891 209.961 212.891 215.82 c 0
 212.891 224.121 212.402 231.934 210.449 240.723 c 0
 208.984 249.023 206.055 256.348 202.637 263.184 c 0
 198.73 269.531 193.848 275.391 187.5 279.297 c 0
 181.152 283.691 172.852 286.133 162.109 286.133 c 0
 145.508 286.133 132.324 279.785 122.559 268.066 c 0
 112.793 255.859 107.91 241.211 107.91 224.121 c 0
 107.91 209.961 112.305 196.289 121.582 183.594 c 0
 130.371 170.41 142.578 164.062 158.203 164.062 c 1
 120.117 94.2383 l 1
 117.188 103.516 112.793 114.258 105.957 126.953 c 0
 99.1211 139.648 91.7969 155.762 83.9844 174.805 c 0
 77.1484 190.43 71.7773 204.59 67.3828 217.773 c 0
 62.9883 231.445 61.0352 243.652 61.0352 254.883 c 0
 61.0352 280.273 64.4531 301.27 71.7773 317.871 c 0
 82.0312 341.797 97.168 354.004 118.164 354.004 c 0
 148.438 354.004 166.016 338.867 169.922 309.082 c 1
 184.082 309.082 l 1
 189.941 338.867 205.566 354.004 229.98 354.004 c 0
 243.164 354.004 254.395 348.633 262.695 337.402 c 0
 270.996 326.66 274.902 309.57 274.902 287.109 c 2
 274.902 0 l 1
 327.148 0 l 1
181.152 224.121 m 0
 181.152 208.496 178.223 198.242 172.363 192.383 c 0
 166.992 187.012 161.133 184.082 155.762 184.082 c 0
 147.949 184.082 141.602 187.988 136.719 195.801 c 0
 131.348 204.102 128.906 213.379 128.906 224.121 c 0
 128.906 236.816 131.836 246.094 137.207 252.441 c 0
 142.09 258.789 147.949 262.207 153.809 262.207 c 0
 161.133 262.207 167.48 258.789 172.852 252.441 c 0
 178.223 246.094 181.152 236.816 181.152 224.121 c 0
EndSplineSet
Fore
83 0 m 1
 83 31 66 81 43 157 c 0
 32 194 20 226 20 253 c 0
 20 286 28 313 41 340 c 0
 57 371 81 385 112 385 c 0
 139 385 161 373 178 348 c 1
 190 373 212 385 243 385 c 0
 299 385 327 345 327 286 c 2
 327 0 l 1
 275 0 l 1
 275 287 l 2
 275 332 257 354 230 354 c 0
 205 354 190 339 184 309 c 1
 170 309 l 1
 166 339 149 354 118 354 c 0
 97 354 82 342 72 318 c 0
 65 301 61 280 61 255 c 0
 61 232 71 206 84 175 c 0
 100 136 115 113 120 94 c 1
 158 164 l 1
 127 164 108 196 108 224 c 0
 108 259 129 286 162 286 c 0
 203 286 213 248 213 216 c 0
 213 204 200 166 161 93 c 0
 144 60 135 29 135 0 c 1
 83 0 l 1
129 224 m 0
 129 203 140 184 156 184 c 0
 167 184 181 193 181 224 c 0
 181 249 169 262 154 262 c 0
 142 262 129 249 129 224 c 0
EndSplineSet
EndChar
StartChar: uni0E16
Encoding: 182 3606 149
Width: 399
Flags: HMW
HStem: 352 33<162 199.5>
VStem: 278 53<0 268>
Back
331.055 0 m 1
 331.055 256.836 l 2
 331.055 300.293 315.43 333.008 284.18 354.98 c 0
 257.324 375 221.68 384.766 176.758 384.766 c 0
 146.973 384.766 117.676 376.465 88.8672 359.863 c 0
 73.2422 350.586 59.5703 340.332 47.8516 329.59 c 0
 36.6211 318.359 28.8086 306.152 24.9023 292.969 c 1
 61.0352 292.969 89.3555 286.133 109.863 272.949 c 1
 72.7539 262.207 54.1992 235.84 54.1992 192.871 c 2
 54.1992 62.0117 l 2
 54.1992 40.5273 59.5703 23.9258 70.8008 12.207 c 0
 82.5195 0 99.6094 -5.85938 123.047 -5.85938 c 0
 165.039 -5.85938 186.035 14.1602 186.035 55.1758 c 0
 186.035 70.8008 181.641 84.9609 172.852 97.6562 c 0
 164.551 109.863 152.832 116.211 139.16 116.211 c 0
 131.836 116.211 125 114.746 119.141 112.305 c 0
 112.793 110.352 108.887 106.934 105.957 103.027 c 1
 105.957 207.031 l 2
 105.957 222.168 109.863 234.863 118.164 245.117 c 0
 125.977 254.883 136.23 262.207 148.926 266.113 c 1
 127.441 295.41 100.098 310.059 65.918 310.059 c 1
 91.7969 337.891 128.906 352.051 175.781 352.051 c 0
 204.59 352.051 229.004 343.262 248.535 326.172 c 0
 268.066 308.594 277.832 285.645 277.832 256.836 c 2
 277.832 0 l 1
 331.055 0 l 1
167.969 55.1758 m 0
 167.969 41.5039 164.551 31.7383 158.203 24.9023 c 0
 151.367 18.5547 144.531 15.1367 137.207 15.1367 c 0
 128.906 15.1367 122.07 19.043 116.699 26.3672 c 0
 110.84 34.1797 107.91 43.457 107.91 55.1758 c 0
 107.91 68.3594 111.328 78.125 118.164 84.4727 c 0
 124.512 90.8203 131.836 94.2383 139.16 94.2383 c 0
 147.461 94.2383 154.785 89.8438 160.156 81.0547 c 0
 165.527 72.2656 167.969 63.4766 167.969 55.1758 c 0
EndSplineSet
Fore
331 0 m 1
 278 0 l 1
 278 257 l 2
 278 314 233 352 176 352 c 0
 129 352 92 338 66 310 c 1
 100 310 128 295 149 266 c 1
 124 258 106 238 106 207 c 2
 106 103 l 1
 111 111 124 116 139 116 c 0
 167 116 186 87 186 55 c 0
 186 14 165 -6 123 -6 c 0
 76 -6 54 19 54 62 c 2
 54 193 l 2
 54 236 73 262 110 273 c 1
 89 286 61 293 25 293 c 1
 33 320 57 341 89 360 c 0
 118 377 147 385 177 385 c 0
 222 385 257 375 284 355 c 0
 315 333 331 300 331 257 c 2
 331 0 l 1
108 55 m 0
 108 32 121 15 137 15 c 0
 152 15 168 28 168 55 c 0
 168 72 156 94 139 94 c 0
 124 94 108 82 108 55 c 0
EndSplineSet
EndChar
StartChar: uni0E17
Encoding: 183 3607 150
Width: 428
Flags: HMW
HStem: 0 21<93 149 93 93 308 360 308 308> 261 19<63 67>
VStem: 15 20<310 325> 93 52<0 325> 308 52<0 321>
Back
359.863 0 m 1
 308.105 0 l 1
 308.105 312.012 l 2
 308.105 321.777 305.176 329.59 299.805 334.961 c 0
 294.434 340.332 288.086 342.773 279.785 342.773 c 0
 270.508 342.773 263.184 339.355 256.836 332.031 c 0
 250.977 324.707 244.141 309.57 236.816 286.133 c 2
 148.926 0 l 1
 92.7734 0 l 1
 92.7734 272.949 l 1
 85.4492 265.137 75.6836 261.23 62.9883 261.23 c 0
 49.8047 261.23 38.5742 266.602 28.8086 277.344 c 0
 19.5312 288.574 15.1367 302.246 15.1367 318.848 c 0
 15.1367 337.891 20.5078 353.516 30.7617 366.211 c 0
 41.5039 378.906 58.1055 384.766 80.0781 384.766 c 0
 103.516 384.766 120.117 378.906 129.883 366.211 c 0
 140.137 353.516 145.02 336.426 145.02 314.941 c 2
 145.02 83.9844 l 1
 145.02 83.9844 146.484 88.3789 149.414 97.168 c 0
 152.344 105.469 156.25 117.188 161.133 130.859 c 0
 165.527 145.02 170.898 160.645 175.781 178.223 c 0
 181.152 195.312 187.012 212.402 192.383 229.492 c 0
 198.242 246.582 203.613 262.695 208.984 277.832 c 0
 214.355 293.457 218.75 306.152 222.168 315.918 c 0
 229.98 339.355 241.211 356.445 254.883 368.164 c 0
 269.043 379.395 283.691 384.766 298.828 384.766 c 0
 318.359 384.766 333.496 379.395 344.238 367.676 c 0
 354.492 355.957 359.863 340.332 359.863 320.801 c 2
 359.863 0 l 1
91.7969 321.777 m 0
 91.7969 333.496 89.3555 342.773 83.9844 350.098 c 0
 78.6133 357.422 71.7773 360.84 63.9648 360.84 c 0
 58.5938 360.84 52.7344 357.91 45.4102 351.074 c 0
 38.5742 344.238 35.1562 334.473 35.1562 320.801 c 0
 35.1562 312.988 37.1094 304.199 41.0156 294.434 c 0
 44.9219 284.668 52.2461 279.785 62.9883 279.785 c 0
 70.8008 279.785 77.6367 283.691 83.4961 290.527 c 0
 89.3555 297.363 91.7969 308.105 91.7969 321.777 c 0
EndSplineSet
Fore
360 0 m 1
 308 0 l 1
 308 312 l 2
 308 332 296 343 280 343 c 0
 261 343 252 333 237 286 c 1
 149 0 l 1
 93 0 l 1
 93 273 l 1
 86 265 76 261 63 261 c 0
 36 261 15 286 15 319 c 0
 15 356 36 385 80 385 c 0
 127 385 145 358 145 315 c 2
 145 84 l 1
 146 84 200 257 222 316 c 0
 238 363 268 385 299 385 c 0
 338 385 360 360 360 321 c 2
 360 0 l 1
35 321 m 0
 35 305 42 280 63 280 c 0
 79 280 92 294 92 322 c 0
 92 345 80 361 64 361 c 0
 53 361 35 348 35 321 c 0
EndSplineSet
EndChar
StartChar: uni0E18
Encoding: 184 3608 151
Width: 360
Flags: HMW
HStem: 0 19<38 220>
VStem: 212 52<55 199>
Back
264.16 195.801 m 2
 264.16 213.867 258.789 229.98 249.023 243.652 c 0
 238.77 257.324 225.098 268.555 208.008 277.832 c 0
 193.848 285.156 177.734 291.016 159.18 294.434 c 0
 140.137 298.34 121.094 299.805 102.051 299.805 c 2
 84.9609 299.805 l 1
 62.9883 297.852 l 1
 71.7773 326.66 95.7031 340.82 134.766 340.82 c 0
 146.484 340.82 164.062 337.402 187.988 330.078 c 0
 211.914 321.777 229.492 317.871 240.234 317.871 c 0
 277.832 317.871 303.223 338.867 314.941 379.883 c 1
 293.945 379.883 l 1
 285.156 359.863 270.508 350.098 249.023 350.098 c 1
 192.871 373.047 l 2
 174.805 380.859 156.25 384.766 137.207 384.766 c 0
 123.047 384.766 109.863 382.324 98.1445 376.465 c 0
 85.9375 370.605 75.1953 363.281 65.4297 353.516 c 0
 55.6641 343.75 47.8516 332.52 41.9922 319.824 c 0
 36.1328 307.129 32.2266 293.457 29.7852 278.809 c 1
 36.1328 278.809 41.5039 278.809 46.875 278.809 c 0
 53.2227 278.809 58.5938 278.809 63.9648 277.832 c 1
 63.9648 19.043 l 1
 38.0859 19.043 l 1
 38.0859 0 l 1
 220.215 0 l 2
 249.512 0 264.16 18.5547 264.16 55.1758 c 2
 264.16 195.801 l 2
211.914 55.1758 m 2
 211.914 42.9688 208.496 34.1797 201.66 27.832 c 0
 194.336 21.9727 185.547 19.043 174.805 19.043 c 2
 116.211 19.043 l 1
 116.211 271.973 l 1
 133.789 268.066 l 2
 154.785 261.23 172.852 251.953 188.477 240.234 c 0
 204.102 228.027 211.914 212.891 211.914 194.824 c 2
 211.914 55.1758 l 2
EndSplineSet
Fore
315 380 m 1
 303 339 278 318 240 318 c 0
 229 318 212 322 188 330 c 0
 164 337 146 341 135 341 c 0
 96 341 72 327 63 298 c 1
 85 300 l 1
 102 300 l 2
 141 300 180 293 208 278 c 0
 243 259 264 232 264 196 c 2
 264 55 l 2
 264 18 249 0 220 0 c 2
 38 0 l 1
 38 19 l 1
 64 19 l 1
 64 278 l 1
 59 279 53 279 47 279 c 2
 30 279 l 1
 38 337 81 385 137 385 c 0
 156 385 175 381 193 373 c 2
 249 350 l 1
 270 350 285 360 294 380 c 1
 315 380 l 1
116 272 m 5
 116 19 l 1
 175 19 l 2
 196 19 212 31 212 55 c 2
 212 195 l 2
 212 231 175 255 134 268 c 1
 116 272 l 5
EndSplineSet
EndChar
StartChar: uni0E19
Encoding: 185 3609 152
Width: 457
Flags: HMW
HStem: 361 24<63.5 77>
VStem: 98 52<0 332> 285 52<51 136 164 377>
Back
412.109 80.0781 m 0
 412.109 101.562 404.297 119.629 389.648 134.277 c 0
 374.512 149.414 356.934 159.18 336.914 163.086 c 1
 336.914 376.953 l 1
 285.156 376.953 l 1
 285.156 165.039 l 1
 257.812 161.133 231.445 152.344 206.055 139.16 c 0
 180.664 125.488 162.109 106.445 149.902 82.0312 c 1
 149.902 314.941 l 2
 149.902 336.426 145.02 353.516 134.766 366.211 c 0
 125 378.906 108.398 384.766 84.9609 384.766 c 0
 62.9883 384.766 46.875 378.906 36.1328 366.211 c 0
 25.3906 353.516 20.0195 337.891 20.0195 318.848 c 0
 20.0195 302.246 24.9023 288.574 34.1797 277.344 c 0
 43.457 266.602 54.6875 261.23 67.8711 261.23 c 0
 80.5664 261.23 90.8203 265.137 98.1445 272.949 c 1
 98.1445 0 l 1
 149.902 0 l 1
 162.598 40.0391 181.641 71.2891 207.031 94.2383 c 0
 232.422 116.699 258.301 130.859 285.156 136.23 c 1
 285.156 53.2227 l 2
 285.156 46.875 286.133 40.5273 288.086 34.1797 c 0
 290.039 27.3438 292.969 20.9961 297.363 15.625 c 0
 301.758 9.76562 307.129 4.88281 313.477 0.976562 c 0
 319.824 -2.92969 327.148 -4.88281 335.938 -4.88281 c 0
 359.863 -4.88281 378.906 1.95312 392.09 16.1133 c 0
 405.273 29.7852 412.109 51.2695 412.109 80.0781 c 0
389.16 75.1953 m 0
 389.16 59.5703 386.23 48.3398 379.883 41.5039 c 0
 374.023 34.668 366.699 30.7617 357.91 30.7617 c 0
 352.051 30.7617 347.168 33.2031 342.773 37.1094 c 0
 338.867 41.0156 336.914 46.875 336.914 55.1758 c 2
 336.914 136.23 l 1
 351.562 131.836 363.77 125 374.023 114.258 c 0
 383.789 104.004 389.16 90.8203 389.16 75.1953 c 0
97.168 321.777 m 0
 97.168 308.105 94.2383 297.363 88.3789 290.527 c 0
 83.0078 283.691 76.1719 279.785 67.8711 279.785 c 0
 57.1289 279.785 49.8047 284.668 45.8984 294.434 c 0
 41.9922 304.199 40.0391 312.988 40.0391 320.801 c 0
 40.0391 334.473 43.457 344.238 50.293 351.074 c 0
 57.6172 357.91 63.4766 360.84 68.8477 360.84 c 0
 77.1484 360.84 83.4961 357.422 88.8672 350.098 c 0
 94.2383 342.773 97.168 333.496 97.168 321.777 c 0
EndSplineSet
Fore
337 377 m 1
 337 163 l 1
 377 155 412 123 412 80 c 0
 412 23 384 -5 336 -5 c 0
 301 -5 285 30 285 53 c 2
 285 136 l 1
 232 125 175 80 150 0 c 1
 98 0 l 1
 98 273 l 1
 91 265 81 261 68 261 c 0
 41 261 20 286 20 319 c 0
 20 356 41 385 85 385 c 0
 132 385 150 358 150 315 c 2
 150 82 l 1
 174 131 230 157 285 165 c 1
 285 377 l 1
 337 377 l 1
337 136 m 1
 337 55 l 2
 337 39 346 31 358 31 c 0
 375 31 389 44 389 75 c 0
 389 107 366 128 337 136 c 1
40 321 m 0
 40 305 47 280 68 280 c 0
 84 280 97 294 97 322 c 0
 97 345 85 361 69 361 c 4
 58 361 40 348 40 321 c 0
EndSplineSet
EndChar
StartChar: uni0E1A
Encoding: 186 3610 153
Width: 413
Flags: HMW
HStem: 0 19<57 301> 261 19<63 67> 361 24<58.5 72>
VStem: 93 52<19 325> 293 52<55 377>
Back
345.215 55.1758 m 2
 345.215 376.953 l 1
 292.969 376.953 l 1
 292.969 55.1758 l 2
 292.969 42.9688 289.551 34.1797 282.715 27.832 c 0
 275.391 21.9727 267.09 19.043 256.836 19.043 c 2
 145.02 19.043 l 1
 145.02 314.941 l 2
 145.02 336.426 140.137 353.516 129.883 366.211 c 0
 120.117 378.906 103.516 384.766 80.0781 384.766 c 0
 58.1055 384.766 41.5039 378.906 30.7617 366.211 c 0
 20.5078 353.516 15.1367 337.891 15.1367 318.848 c 0
 15.1367 302.246 19.5312 288.574 28.8086 277.344 c 0
 38.5742 266.602 49.8047 261.23 62.9883 261.23 c 0
 75.6836 261.23 85.4492 265.137 92.7734 272.949 c 1
 92.7734 19.043 l 1
 57.1289 19.043 l 1
 57.1289 0 l 1
 300.781 0 l 2
 330.566 0 345.215 18.5547 345.215 55.1758 c 2
91.7969 321.777 m 0
 91.7969 308.105 89.3555 297.363 83.4961 290.527 c 0
 77.6367 283.691 70.8008 279.785 62.9883 279.785 c 0
 52.2461 279.785 44.9219 284.668 41.0156 294.434 c 0
 37.1094 304.199 35.1562 312.988 35.1562 320.801 c 0
 35.1562 334.473 38.5742 344.238 45.4102 351.074 c 0
 52.7344 357.91 58.5938 360.84 63.9648 360.84 c 0
 71.7773 360.84 78.6133 357.422 83.9844 350.098 c 0
 89.3555 342.773 91.7969 333.496 91.7969 321.777 c 0
EndSplineSet
Fore
345 377 m 1
 345 55 l 2
 345 18 330 0 301 0 c 2
 57 0 l 1
 57 19 l 1
 93 19 l 1
 93 273 l 1
 86 265 76 261 63 261 c 0
 36 261 15 286 15 319 c 0
 15 356 36 385 80 385 c 0
 127 385 145 358 145 315 c 2
 145 19 l 1
 257 19 l 2
 277 19 293 31 293 55 c 2
 293 377 l 1
 345 377 l 1
35 321 m 4
 35 305 42 280 63 280 c 0
 79 280 92 294 92 322 c 0
 92 345 80 361 64 361 c 0
 53 361 35 348 35 321 c 4
EndSplineSet
EndChar
StartChar: uni0E1B
Encoding: 187 3611 154
Width: 413
Flags: MW
HStem: 0 19<57 301> 261 19<63 67> 361 24<64 80>
VStem: 93 52<19 325> 293 52<55 542>
Back
345.215 55.1758 m 2
 345.215 541.992 l 1
 292.969 541.992 l 1
 292.969 55.1758 l 2
 292.969 42.9688 289.551 34.1797 282.715 27.832 c 0
 275.391 21.9727 267.09 19.043 256.836 19.043 c 2
 145.02 19.043 l 1
 145.02 314.941 l 2
 145.02 336.426 140.137 353.516 129.883 366.211 c 0
 120.117 378.906 103.516 384.766 80.0781 384.766 c 0
 58.1055 384.766 41.5039 378.906 30.7617 366.211 c 0
 20.5078 353.516 15.1367 337.891 15.1367 318.848 c 0
 15.1367 302.246 19.5312 288.574 28.8086 277.344 c 0
 38.5742 266.602 49.8047 261.23 62.9883 261.23 c 0
 75.6836 261.23 85.4492 265.137 92.7734 272.949 c 1
 92.7734 19.043 l 1
 57.1289 19.043 l 1
 57.1289 0 l 1
 300.781 0 l 2
 330.566 0 345.215 18.5547 345.215 55.1758 c 2
91.7969 321.777 m 0
 91.7969 308.105 89.3555 297.363 83.4961 290.527 c 0
 77.6367 283.691 70.8008 279.785 62.9883 279.785 c 0
 52.2461 279.785 44.9219 284.668 41.0156 294.434 c 0
 37.1094 304.199 35.1562 312.988 35.1562 320.801 c 0
 35.1562 334.473 38.5742 344.238 45.4102 351.074 c 0
 52.7344 357.91 58.5938 360.84 63.9648 360.84 c 0
 71.7773 360.84 78.6133 357.422 83.9844 350.098 c 0
 89.3555 342.773 91.7969 333.496 91.7969 321.777 c 0
EndSplineSet
Fore
345 542 m 5
 345 55 l 2
 345 18 330 0 301 0 c 2
 57 0 l 1
 57 19 l 1
 93 19 l 1
 93 273 l 1
 86 265 76 261 63 261 c 0
 36 261 15 286 15 319 c 0
 15 356 36 385 80 385 c 0
 127 385 145 358 145 315 c 2
 145 19 l 1
 257 19 l 2
 277 19 293 31 293 55 c 2
 293 542 l 1
 345 542 l 5
35 321 m 0
 35 305 42 280 63 280 c 0
 79 280 92 294 92 322 c 0
 92 345 80 361 64 361 c 0
 53 361 35 348 35 321 c 0
EndSplineSet
EndChar
StartChar: uni0E1C
Encoding: 188 3612 155
Width: 406
Flags: HMW
HStem: 0 21<30 87 30 30 288 338 288 288> 261 19<114 116> 361 24<105 118.5>
VStem: 30 52<0 273 0 324> 143 20<313 325> 286 52<53 377>
DStem: 182 171 182 223 288 0 286 53 182 223 182 171 82 48 87 0 182 171 182 223 288 0 286 53 182 223 182 171 82 48 87 0 182 171 182 223 288 0 286 53 182 223 182 171 82 48 87 0 182 171 182 223 288 0 286 53 182 223 182 171 82 48 87 0 182 171 182 223 288 0 286 53 182 223 182 171 82 48 87 0 182 171 182 223 288 0 286 53 182 223 182 171 82 48 87 0 182 171 182 223 288 0 286 53 182 223 182 171 82 48 87 0 182 171 182 223 288 0 286 53 182 223 182 171 82 48 87 0 182 171 182 223 288 0 286 53 182 223 182 171 82 48 87 0 182 171 182 223 288 0 286 53 182 223 182 171 82 48 87 0
Back
337.891 0 m 1
 337.891 376.953 l 1
 286.133 376.953 l 1
 286.133 53.2227 l 1
 182.129 223.145 l 1
 82.0312 47.8516 l 1
 82.0312 272.949 l 1
 85.9375 268.555 90.8203 265.137 96.6797 263.672 c 0
 102.051 261.719 107.91 261.23 113.77 261.23 c 0
 127.441 261.23 138.672 266.602 148.438 277.344 c 0
 158.203 288.574 163.086 302.246 163.086 318.848 c 0
 163.086 337.891 157.715 353.516 146.973 366.211 c 0
 136.23 378.906 120.117 384.766 98.1445 384.766 c 0
 74.707 384.766 57.6172 378.906 46.3867 366.211 c 0
 35.6445 353.516 29.7852 336.426 29.7852 314.941 c 2
 29.7852 0 l 1
 86.9141 0 l 1
 182.129 170.898 l 1
 288.086 0 l 1
 337.891 0 l 1
83.0078 321.777 m 0
 83.0078 333.496 85.9375 342.773 91.7969 350.098 c 0
 98.1445 357.422 104.98 360.84 112.793 360.84 c 0
 118.164 360.84 124.512 357.91 131.836 351.074 c 0
 139.16 344.238 143.066 334.473 143.066 320.801 c 0
 143.066 312.988 140.625 304.199 136.719 294.434 c 0
 132.324 284.668 124.512 279.785 113.77 279.785 c 0
 105.957 279.785 98.6328 283.691 92.2852 290.527 c 0
 85.9375 297.363 83.0078 308.105 83.0078 321.777 c 0
EndSplineSet
Fore
338 377 m 1
 338 0 l 1
 288 0 l 1
 182 171 l 1
 87 0 l 1
 30 0 l 1
 30 315 l 2
 30 358 51 385 98 385 c 0
 142 385 163 356 163 319 c 0
 163 286 141 261 114 261 c 0
 102 261 90 264 82 273 c 1
 82 48 l 1
 182 223 l 1
 286 53 l 1
 286 377 l 1
 338 377 l 1
83 322 m 0
 83 294 98 280 114 280 c 0
 135 280 143 305 143 321 c 0
 143 348 124 361 113 361 c 0
 97 361 83 345 83 322 c 0
EndSplineSet
EndChar
StartChar: uni0E1D
Encoding: 189 3613 156
Width: 406
Flags: MW
HStem: 0 21<30 87 30 30 288 338 288 288> 261 19<114 116> 361 24<98 113>
VStem: 30 52<0 273 0 324> 143 20<313 325> 286 52<53 542>
DStem: 182 171 182 223 288 0 286 53 182 223 182 171 82 48 87 0 182 171 182 223 288 0 286 53 182 223 182 171 82 48 87 0 182 171 182 223 288 0 286 53 182 223 182 171 82 48 87 0 182 171 182 223 288 0 286 53 182 223 182 171 82 48 87 0 182 171 182 223 288 0 286 53 182 223 182 171 82 48 87 0 182 171 182 223 288 0 286 53 182 223 182 171 82 48 87 0 182 171 182 223 288 0 286 53 182 223 182 171 82 48 87 0 182 171 182 223 288 0 286 53 182 223 182 171 82 48 87 0 182 171 182 223 288 0 286 53 182 223 182 171 82 48 87 0 182 171 182 223 288 0 286 53 182 223 182 171 82 48 87 0
Back
337.891 0 m 1
 337.891 541.992 l 1
 286.133 541.992 l 1
 286.133 53.2227 l 1
 182.129 223.145 l 1
 82.0312 47.8516 l 1
 82.0312 272.949 l 1
 85.9375 268.555 90.8203 265.137 96.6797 263.672 c 0
 102.051 261.719 107.91 261.23 113.77 261.23 c 0
 127.441 261.23 138.672 266.602 148.438 277.344 c 0
 158.203 288.574 163.086 302.246 163.086 318.848 c 0
 163.086 337.891 157.715 353.516 146.973 366.211 c 0
 136.23 378.906 120.117 384.766 98.1445 384.766 c 0
 74.707 384.766 57.6172 378.906 46.3867 366.211 c 0
 35.6445 353.516 29.7852 336.426 29.7852 314.941 c 2
 29.7852 0 l 1
 86.9141 0 l 1
 182.129 170.898 l 1
 288.086 0 l 1
 337.891 0 l 1
83.0078 321.777 m 0
 83.0078 333.496 85.9375 342.773 91.7969 350.098 c 0
 98.1445 357.422 104.98 360.84 112.793 360.84 c 0
 118.164 360.84 124.512 357.91 131.836 351.074 c 0
 139.16 344.238 143.066 334.473 143.066 320.801 c 0
 143.066 312.988 140.625 304.199 136.719 294.434 c 0
 132.324 284.668 124.512 279.785 113.77 279.785 c 0
 105.957 279.785 98.6328 283.691 92.2852 290.527 c 0
 85.9375 297.363 83.0078 308.105 83.0078 321.777 c 0
EndSplineSet
Fore
338 542 m 5
 338 0 l 1
 288 0 l 1
 182 171 l 1
 87 0 l 1
 30 0 l 1
 30 315 l 2
 30 358 51 385 98 385 c 0
 142 385 163 356 163 319 c 0
 163 286 141 261 114 261 c 0
 102 261 90 264 82 273 c 1
 82 48 l 1
 182 223 l 1
 286 53 l 1
 286 542 l 1
 338 542 l 5
83 322 m 0
 83 294 98 280 114 280 c 0
 135 280 143 305 143 321 c 0
 143 348 124 361 113 361 c 0
 97 361 83 345 83 322 c 0
EndSplineSet
EndChar
StartChar: uni0E1E
Encoding: 190 3614 157
Width: 446
Flags: HMW
HStem: 0 21<93 152 93 93 318 378 318 318> 261 19<63 67> 361 24<58.5 72>
VStem: 15 20<313 325> 93 52<0 325> 326 52<67 377>
DStem: 236 285 236 377 318 0 326 67 236 377 236 285 145 67 152 0 236 285 236 377 318 0 326 67 236 377 236 285 145 67 152 0 236 285 236 377 318 0 326 67 236 377 236 285 145 67 152 0 236 285 236 377 318 0 326 67 236 377 236 285 145 67 152 0 236 285 236 377 318 0 326 67 236 377 236 285 145 67 152 0 236 285 236 377 318 0 326 67 236 377 236 285 145 67 152 0 236 285 236 377 318 0 326 67 236 377 236 285 145 67 152 0 236 285 236 377 318 0 326 67 236 377 236 285 145 67 152 0 236 285 236 377 318 0 326 67 236 377 236 285 145 67 152 0 236 285 236 377 318 0 326 67 236 377 236 285 145 67 152 0 236 285 236 377 318 0 326 67 236 377 236 285 145 67 152 0 236 285 236 377 318 0 326 67 236 377 236 285 145 67 152 0 236 285 236 377 318 0 326 67 236 377 236 285 145 67 152 0 236 285 236 377 318 0 326 67 236 377 236 285 145 67 152 0 236 285 236 377 318 0 326 67 236 377 236 285 145 67 152 0 236 285 236 377 318 0 326 67 236 377 236 285 145 67 152 0 236 285 236 377 318 0 326 67 236 377 236 285 145 67 152 0 236 285 236 377 318 0 326 67 236 377 236 285 145 67 152 0 236 285 236 377 318 0 326 67 236 377 236 285 145 67 152 0 236 285 236 377 318 0 326 67 236 377 236 285 145 67 152 0 236 285 236 377 318 0 326 67 236 377 236 285 145 67 152 0 236 285 236 377 318 0 326 67 236 377 236 285 145 67 152 0 236 285 236 377 318 0 326 67 236 377 236 285 145 67 152 0 236 285 236 377 318 0 326 67 236 377 236 285 145 67 152 0 236 285 236 377 318 0 326 67 236 377 236 285 145 67 152 0 236 285 236 377 318 0 326 67 236 377 236 285 145 67 152 0
Back
145.02 314.941 m 2
 145.02 336.426 140.137 353.516 129.883 366.211 c 0
 120.117 378.906 103.516 384.766 80.0781 384.766 c 0
 58.1055 384.766 41.5039 378.906 30.7617 366.211 c 0
 20.5078 353.516 15.1367 337.891 15.1367 318.848 c 0
 15.1367 302.246 19.5312 288.574 28.8086 277.344 c 0
 38.5742 266.602 49.8047 261.23 62.9883 261.23 c 0
 75.6836 261.23 85.4492 265.137 92.7734 272.949 c 1
 92.7734 0 l 1
 151.855 0 l 1
 235.84 285.156 l 1
 317.871 0 l 1
 377.93 0 l 1
 377.93 376.953 l 1
 326.172 376.953 l 1
 326.172 66.8945 l 1
 235.84 376.953 l 1
 145.02 66.8945 l 1
 145.02 314.941 l 2
91.7969 321.777 m 0
 91.7969 308.105 89.3555 297.363 83.4961 290.527 c 0
 77.6367 283.691 70.8008 279.785 62.9883 279.785 c 0
 52.2461 279.785 44.9219 284.668 41.0156 294.434 c 0
 37.1094 304.199 35.1562 312.988 35.1562 320.801 c 0
 35.1562 334.473 38.5742 344.238 45.4102 351.074 c 0
 52.7344 357.91 58.5938 360.84 63.9648 360.84 c 0
 71.7773 360.84 78.6133 357.422 83.9844 350.098 c 0
 89.3555 342.773 91.7969 333.496 91.7969 321.777 c 0
EndSplineSet
Fore
378 377 m 1
 378 0 l 1
 318 0 l 1
 236 285 l 1
 152 0 l 1
 93 0 l 1
 93 273 l 1
 86 265 76 261 63 261 c 0
 36 261 15 286 15 319 c 0
 15 356 36 385 80 385 c 0
 127 385 145 358 145 315 c 2
 145 67 l 1
 236 377 l 1
 326 67 l 1
 326 377 l 1
 378 377 l 1
35 321 m 4
 35 305 42 280 63 280 c 0
 79 280 92 294 92 322 c 0
 92 345 80 361 64 361 c 0
 53 361 35 348 35 321 c 4
EndSplineSet
EndChar
StartChar: uni0E1F
Encoding: 191 3615 158
Width: 446
Flags: MW
HStem: 0 21<93 152 93 93 318 378 318 318> 261 19<63 67> 361 24<64 80>
VStem: 15 20<313 325> 93 52<0 325> 326 52<67 542>
DStem: 236 285 236 377 318 0 326 67 236 377 236 285 145 67 152 0 236 285 236 377 318 0 326 67 236 377 236 285 145 67 152 0 236 285 236 377 318 0 326 67 236 377 236 285 145 67 152 0 236 285 236 377 318 0 326 67 236 377 236 285 145 67 152 0 236 285 236 377 318 0 326 67 236 377 236 285 145 67 152 0 236 285 236 377 318 0 326 67 236 377 236 285 145 67 152 0 236 285 236 377 318 0 326 67 236 377 236 285 145 67 152 0 236 285 236 377 318 0 326 67 236 377 236 285 145 67 152 0 236 285 236 377 318 0 326 67 236 377 236 285 145 67 152 0 236 285 236 377 318 0 326 67 236 377 236 285 145 67 152 0 236 285 236 377 318 0 326 67 236 377 236 285 145 67 152 0 236 285 236 377 318 0 326 67 236 377 236 285 145 67 152 0 236 285 236 377 318 0 326 67 236 377 236 285 145 67 152 0 236 285 236 377 318 0 326 67 236 377 236 285 145 67 152 0 236 285 236 377 318 0 326 67 236 377 236 285 145 67 152 0 236 285 236 377 318 0 326 67 236 377 236 285 145 67 152 0 236 285 236 377 318 0 326 67 236 377 236 285 145 67 152 0 236 285 236 377 318 0 326 67 236 377 236 285 145 67 152 0 236 285 236 377 318 0 326 67 236 377 236 285 145 67 152 0 236 285 236 377 318 0 326 67 236 377 236 285 145 67 152 0 236 285 236 377 318 0 326 67 236 377 236 285 145 67 152 0 236 285 236 377 318 0 326 67 236 377 236 285 145 67 152 0 236 285 236 377 318 0 326 67 236 377 236 285 145 67 152 0 236 285 236 377 318 0 326 67 236 377 236 285 145 67 152 0 236 285 236 377 318 0 326 67 236 377 236 285 145 67 152 0 236 285 236 377 318 0 326 67 236 377 236 285 145 67 152 0
Back
145.02 314.941 m 2
 145.02 336.426 140.137 353.516 129.883 366.211 c 0
 120.117 378.906 103.516 384.766 80.0781 384.766 c 0
 58.1055 384.766 41.5039 378.906 30.7617 366.211 c 0
 20.5078 353.516 15.1367 337.891 15.1367 318.848 c 0
 15.1367 302.246 19.5312 288.574 28.8086 277.344 c 0
 38.5742 266.602 49.8047 261.23 62.9883 261.23 c 0
 75.6836 261.23 85.4492 265.137 92.7734 272.949 c 1
 92.7734 0 l 1
 151.855 0 l 1
 235.84 285.156 l 1
 317.871 0 l 1
 377.93 0 l 1
 377.93 541.992 l 1
 326.172 541.992 l 1
 326.172 66.8945 l 1
 235.84 376.953 l 1
 145.02 66.8945 l 1
 145.02 314.941 l 2
91.7969 321.777 m 0
 91.7969 308.105 89.3555 297.363 83.4961 290.527 c 0
 77.6367 283.691 70.8008 279.785 62.9883 279.785 c 0
 52.2461 279.785 44.9219 284.668 41.0156 294.434 c 0
 37.1094 304.199 35.1562 312.988 35.1562 320.801 c 0
 35.1562 334.473 38.5742 344.238 45.4102 351.074 c 0
 52.7344 357.91 58.5938 360.84 63.9648 360.84 c 0
 71.7773 360.84 78.6133 357.422 83.9844 350.098 c 0
 89.3555 342.773 91.7969 333.496 91.7969 321.777 c 0
EndSplineSet
Fore
378 542 m 5
 378 0 l 1
 318 0 l 1
 236 285 l 1
 152 0 l 1
 93 0 l 1
 93 273 l 1
 86 265 76 261 63 261 c 0
 36 261 15 286 15 319 c 0
 15 356 36 385 80 385 c 0
 127 385 145 358 145 315 c 2
 145 67 l 1
 236 377 l 1
 326 67 l 1
 326 542 l 1
 378 542 l 5
35 321 m 0
 35 305 42 280 63 280 c 0
 79 280 92 294 92 322 c 0
 92 345 80 361 64 361 c 0
 53 361 35 348 35 321 c 0
EndSplineSet
EndChar
